%TF.GenerationSoftware,KiCad,Pcbnew,(5.1.10)-1*%
%TF.CreationDate,2021-07-26T18:41:44-03:00*%
%TF.ProjectId,ASBF,41534246-2e6b-4696-9361-645f70636258,V1.1*%
%TF.SameCoordinates,Original*%
%TF.FileFunction,Soldermask,Top*%
%TF.FilePolarity,Negative*%
%FSLAX46Y46*%
G04 Gerber Fmt 4.6, Leading zero omitted, Abs format (unit mm)*
G04 Created by KiCad (PCBNEW (5.1.10)-1) date 2021-07-26 18:41:44*
%MOMM*%
%LPD*%
G01*
G04 APERTURE LIST*
%ADD10C,3.000000*%
%ADD11R,3.000000X3.000000*%
%ADD12C,1.200000*%
%ADD13R,1.200000X1.200000*%
%ADD14O,2.400000X1.600000*%
%ADD15R,2.400000X1.600000*%
%ADD16C,1.440000*%
%ADD17O,1.600000X1.600000*%
%ADD18C,1.600000*%
%ADD19C,2.250000*%
%ADD20C,2.050000*%
%ADD21O,1.700000X1.700000*%
%ADD22R,1.700000X1.700000*%
%ADD23C,2.500000*%
G04 APERTURE END LIST*
D10*
%TO.C,J17*%
X152760000Y-118500000D03*
X147680000Y-118500000D03*
D11*
X142600000Y-118500000D03*
%TD*%
%TO.C,J2*%
X112000000Y-48500000D03*
D10*
X106920000Y-48500000D03*
%TD*%
D12*
%TO.C,C12*%
X181500000Y-115100000D03*
D13*
X181500000Y-116600000D03*
%TD*%
D12*
%TO.C,C17*%
X168400000Y-56100000D03*
D13*
X168400000Y-57600000D03*
%TD*%
D12*
%TO.C,C16*%
X168304000Y-114000000D03*
D13*
X168304000Y-112500000D03*
%TD*%
D14*
%TO.C,J4*%
X154740000Y-50800000D03*
X139500000Y-109220000D03*
X154740000Y-53340000D03*
X139500000Y-106680000D03*
X154740000Y-55880000D03*
X139500000Y-104140000D03*
X154740000Y-58420000D03*
X139500000Y-101600000D03*
X154740000Y-60960000D03*
X139500000Y-99060000D03*
X154740000Y-63500000D03*
X139500000Y-96520000D03*
X154740000Y-66040000D03*
X139500000Y-93980000D03*
X154740000Y-68580000D03*
X139500000Y-91440000D03*
X154740000Y-71120000D03*
X139500000Y-88900000D03*
X154740000Y-73660000D03*
X139500000Y-86360000D03*
X154740000Y-76200000D03*
X139500000Y-83820000D03*
X154740000Y-78740000D03*
X139500000Y-81280000D03*
X154740000Y-81280000D03*
X139500000Y-78740000D03*
X154740000Y-83820000D03*
X139500000Y-76200000D03*
X154740000Y-86360000D03*
X139500000Y-73660000D03*
X154740000Y-88900000D03*
X139500000Y-71120000D03*
X154740000Y-91440000D03*
X139500000Y-68580000D03*
X154740000Y-93980000D03*
X139500000Y-66040000D03*
X154740000Y-96520000D03*
X139500000Y-63500000D03*
X154740000Y-99060000D03*
X139500000Y-60960000D03*
X154740000Y-101600000D03*
X139500000Y-58420000D03*
X154740000Y-104140000D03*
X139500000Y-55880000D03*
X154740000Y-106680000D03*
X139500000Y-53340000D03*
X154740000Y-109220000D03*
D15*
X139500000Y-50800000D03*
%TD*%
D16*
%TO.C,RV3*%
X116800000Y-108500000D03*
X116800000Y-105960000D03*
X116800000Y-103420000D03*
%TD*%
%TO.C,RV2*%
X117600000Y-75100000D03*
X117600000Y-72560000D03*
X117600000Y-70020000D03*
%TD*%
%TO.C,RV1*%
X110246000Y-100931000D03*
X110246000Y-98391000D03*
X110246000Y-95851000D03*
%TD*%
D17*
%TO.C,L3*%
X162000000Y-64520000D03*
D18*
X162000000Y-56900000D03*
%TD*%
D17*
%TO.C,L2*%
X163700000Y-106880000D03*
D18*
X163700000Y-114500000D03*
%TD*%
%TO.C,L1*%
X118600000Y-117500000D03*
D17*
X126220000Y-117500000D03*
%TD*%
D19*
%TO.C,J16*%
X201197000Y-96864000D03*
X201197000Y-91784000D03*
X206277000Y-91784000D03*
X206277000Y-96864000D03*
D20*
X203737000Y-94324000D03*
%TD*%
D21*
%TO.C,J15*%
X199800000Y-113280000D03*
X199800000Y-110740000D03*
D22*
X199800000Y-108200000D03*
%TD*%
D21*
%TO.C,J14*%
X189600000Y-96102000D03*
D22*
X189600000Y-93562000D03*
%TD*%
D21*
%TO.C,J13*%
X189132000Y-120486000D03*
X186592000Y-120486000D03*
D22*
X184052000Y-120486000D03*
%TD*%
D21*
%TO.C,J12*%
X166272000Y-120740000D03*
X168812000Y-120740000D03*
D22*
X171352000Y-120740000D03*
%TD*%
D21*
%TO.C,J11*%
X172876000Y-105754000D03*
X170336000Y-105754000D03*
D22*
X167796000Y-105754000D03*
%TD*%
%TO.C,J10*%
X167923000Y-97753000D03*
%TD*%
D21*
%TO.C,J9*%
X178360000Y-90400000D03*
D22*
X180900000Y-90400000D03*
%TD*%
D21*
%TO.C,J8*%
X178337000Y-86196000D03*
D22*
X180877000Y-86196000D03*
%TD*%
D21*
%TO.C,J7*%
X187200000Y-47020000D03*
X187200000Y-49560000D03*
X187200000Y-52100000D03*
X187200000Y-54640000D03*
X187200000Y-57180000D03*
X187200000Y-59720000D03*
X187200000Y-62260000D03*
X187200000Y-64800000D03*
X187200000Y-67340000D03*
X187200000Y-69880000D03*
X187200000Y-72420000D03*
X187200000Y-74960000D03*
D22*
X187200000Y-77500000D03*
%TD*%
D19*
%TO.C,J6*%
X201197000Y-56732000D03*
X201197000Y-51652000D03*
X206277000Y-51652000D03*
X206277000Y-56732000D03*
D20*
X203737000Y-54192000D03*
%TD*%
D21*
%TO.C,J5*%
X199700000Y-71280000D03*
X199700000Y-68740000D03*
D22*
X199700000Y-66200000D03*
%TD*%
D11*
%TO.C,J3*%
X130000000Y-48500000D03*
D10*
X124920000Y-48500000D03*
X119840000Y-48500000D03*
%TD*%
D20*
%TO.C,J1*%
X109465000Y-84894000D03*
D19*
X112005000Y-87434000D03*
X112005000Y-82354000D03*
X106925000Y-82354000D03*
X106925000Y-87434000D03*
%TD*%
D23*
%TO.C,H2*%
X207400000Y-44000000D03*
%TD*%
%TO.C,H1*%
X102700000Y-120600000D03*
%TD*%
D13*
%TO.C,C10*%
X131600000Y-117400000D03*
D12*
X133100000Y-117400000D03*
%TD*%
D13*
%TO.C,C9*%
X110400000Y-56700000D03*
D12*
X111900000Y-56700000D03*
%TD*%
D13*
%TO.C,C4*%
X110100000Y-108400000D03*
D12*
X110100000Y-106900000D03*
%TD*%
M02*
