%TF.GenerationSoftware,KiCad,Pcbnew,5.1.10-88a1d61d58~88~ubuntu18.04.1*%
%TF.CreationDate,2021-07-13T17:51:20-03:00*%
%TF.ProjectId,ASBF,41534246-2e6b-4696-9361-645f70636258,V1.1*%
%TF.SameCoordinates,Original*%
%TF.FileFunction,Soldermask,Bot*%
%TF.FilePolarity,Negative*%
%FSLAX46Y46*%
G04 Gerber Fmt 4.6, Leading zero omitted, Abs format (unit mm)*
G04 Created by KiCad (PCBNEW 5.1.10-88a1d61d58~88~ubuntu18.04.1) date 2021-07-13 17:51:20*
%MOMM*%
%LPD*%
G01*
G04 APERTURE LIST*
%ADD10C,3.000000*%
%ADD11R,3.000000X3.000000*%
%ADD12C,1.200000*%
%ADD13R,1.200000X1.200000*%
%ADD14O,2.400000X1.600000*%
%ADD15R,2.400000X1.600000*%
%ADD16C,1.440000*%
%ADD17O,1.600000X1.600000*%
%ADD18C,1.600000*%
%ADD19C,2.250000*%
%ADD20C,2.050000*%
%ADD21O,1.700000X1.700000*%
%ADD22R,1.700000X1.700000*%
%ADD23C,2.500000*%
G04 APERTURE END LIST*
D10*
%TO.C,J2*%
X82169000Y-96012000D03*
D11*
X77089000Y-96012000D03*
%TD*%
D12*
%TO.C,C12*%
X159512000Y-28424000D03*
D13*
X159512000Y-26924000D03*
%TD*%
D12*
%TO.C,C17*%
X146431000Y-87606000D03*
D13*
X146431000Y-86106000D03*
%TD*%
D12*
%TO.C,C16*%
X146304000Y-29488000D03*
D13*
X146304000Y-30988000D03*
%TD*%
D14*
%TO.C,J4*%
X132842000Y-34417000D03*
X117602000Y-92837000D03*
X132842000Y-36957000D03*
X117602000Y-90297000D03*
X132842000Y-39497000D03*
X117602000Y-87757000D03*
X132842000Y-42037000D03*
X117602000Y-85217000D03*
X132842000Y-44577000D03*
X117602000Y-82677000D03*
X132842000Y-47117000D03*
X117602000Y-80137000D03*
X132842000Y-49657000D03*
X117602000Y-77597000D03*
X132842000Y-52197000D03*
X117602000Y-75057000D03*
X132842000Y-54737000D03*
X117602000Y-72517000D03*
X132842000Y-57277000D03*
X117602000Y-69977000D03*
X132842000Y-59817000D03*
X117602000Y-67437000D03*
X132842000Y-62357000D03*
X117602000Y-64897000D03*
X132842000Y-64897000D03*
X117602000Y-62357000D03*
X132842000Y-67437000D03*
X117602000Y-59817000D03*
X132842000Y-69977000D03*
X117602000Y-57277000D03*
X132842000Y-72517000D03*
X117602000Y-54737000D03*
X132842000Y-75057000D03*
X117602000Y-52197000D03*
X132842000Y-77597000D03*
X117602000Y-49657000D03*
X132842000Y-80137000D03*
X117602000Y-47117000D03*
X132842000Y-82677000D03*
X117602000Y-44577000D03*
X132842000Y-85217000D03*
X117602000Y-42037000D03*
X132842000Y-87757000D03*
X117602000Y-39497000D03*
X132842000Y-90297000D03*
X117602000Y-36957000D03*
X132842000Y-92837000D03*
D15*
X117602000Y-34417000D03*
%TD*%
D16*
%TO.C,RV3*%
X95504000Y-42164000D03*
X95504000Y-39624000D03*
X95504000Y-37084000D03*
%TD*%
%TO.C,RV2*%
X92329000Y-75438000D03*
X92329000Y-72898000D03*
X92329000Y-70358000D03*
%TD*%
%TO.C,RV1*%
X88773000Y-44577000D03*
X88773000Y-42037000D03*
X88773000Y-39497000D03*
%TD*%
D17*
%TO.C,L3*%
X140081000Y-78867000D03*
D18*
X140081000Y-86487000D03*
%TD*%
D17*
%TO.C,L2*%
X141732000Y-36576000D03*
D18*
X141732000Y-28956000D03*
%TD*%
D17*
%TO.C,L1*%
X77089000Y-82169000D03*
D18*
X77089000Y-89789000D03*
%TD*%
D10*
%TO.C,J17*%
X120396000Y-25400000D03*
X125476000Y-25400000D03*
D11*
X130556000Y-25400000D03*
%TD*%
D19*
%TO.C,J16*%
X181483000Y-51816000D03*
X181483000Y-46736000D03*
X186563000Y-46736000D03*
X186563000Y-51816000D03*
D20*
X184023000Y-49276000D03*
%TD*%
D21*
%TO.C,J15*%
X179451000Y-30480000D03*
X179451000Y-33020000D03*
D22*
X179451000Y-35560000D03*
%TD*%
D21*
%TO.C,J14*%
X169164000Y-47371000D03*
D22*
X169164000Y-49911000D03*
%TD*%
D21*
%TO.C,J13*%
X167132000Y-23114000D03*
X164592000Y-23114000D03*
D22*
X162052000Y-23114000D03*
%TD*%
D21*
%TO.C,J12*%
X144272000Y-22860000D03*
X146812000Y-22860000D03*
D22*
X149352000Y-22860000D03*
%TD*%
D21*
%TO.C,J11*%
X150876000Y-37846000D03*
X148336000Y-37846000D03*
D22*
X145796000Y-37846000D03*
%TD*%
%TO.C,J10*%
X145923000Y-45847000D03*
%TD*%
D21*
%TO.C,J9*%
X156337000Y-52959000D03*
D22*
X158877000Y-52959000D03*
%TD*%
D21*
%TO.C,J8*%
X156337000Y-57404000D03*
D22*
X158877000Y-57404000D03*
%TD*%
D21*
%TO.C,J7*%
X164592000Y-96520000D03*
X164592000Y-93980000D03*
X164592000Y-91440000D03*
X164592000Y-88900000D03*
X164592000Y-86360000D03*
X164592000Y-83820000D03*
X164592000Y-81280000D03*
X164592000Y-78740000D03*
X164592000Y-76200000D03*
X164592000Y-73660000D03*
X164592000Y-71120000D03*
X164592000Y-68580000D03*
D22*
X164592000Y-66040000D03*
%TD*%
D19*
%TO.C,J6*%
X181356000Y-91948000D03*
X181356000Y-86868000D03*
X186436000Y-86868000D03*
X186436000Y-91948000D03*
D20*
X183896000Y-89408000D03*
%TD*%
D21*
%TO.C,J5*%
X179324000Y-72517000D03*
X179324000Y-75057000D03*
D22*
X179324000Y-77597000D03*
%TD*%
D10*
%TO.C,J3*%
X107823000Y-96012000D03*
X102743000Y-96012000D03*
D11*
X97663000Y-96012000D03*
%TD*%
D19*
%TO.C,J1*%
X74549000Y-55372000D03*
X74549000Y-50292000D03*
X79629000Y-50292000D03*
X79629000Y-55372000D03*
D20*
X77089000Y-52832000D03*
%TD*%
D23*
%TO.C,H2*%
X187452000Y-21844000D03*
%TD*%
%TO.C,H1*%
X71247000Y-98679000D03*
%TD*%
D12*
%TO.C,C10*%
X111736000Y-28321000D03*
D13*
X110236000Y-28321000D03*
%TD*%
D12*
%TO.C,C9*%
X82653000Y-89154000D03*
D13*
X81153000Y-89154000D03*
%TD*%
M02*
