%TF.GenerationSoftware,KiCad,Pcbnew,5.1.10-88a1d61d58~88~ubuntu18.04.1*%
%TF.CreationDate,2021-07-13T17:51:20-03:00*%
%TF.ProjectId,ASBF,41534246-2e6b-4696-9361-645f70636258,V1.1*%
%TF.SameCoordinates,Original*%
%TF.FileFunction,Legend,Top*%
%TF.FilePolarity,Positive*%
%FSLAX46Y46*%
G04 Gerber Fmt 4.6, Leading zero omitted, Abs format (unit mm)*
G04 Created by KiCad (PCBNEW 5.1.10-88a1d61d58~88~ubuntu18.04.1) date 2021-07-13 17:51:20*
%MOMM*%
%LPD*%
G01*
G04 APERTURE LIST*
%ADD10C,0.120000*%
%ADD11C,0.150000*%
G04 APERTURE END LIST*
D10*
%TO.C,TR1*%
X174117000Y-55753000D02*
X174117000Y-55245000D01*
X174117000Y-55245000D02*
X168275000Y-55245000D01*
X168275000Y-55245000D02*
X168275000Y-55753000D01*
X168275000Y-55753000D02*
X167386000Y-55753000D01*
X168275000Y-62865000D02*
X168275000Y-63373000D01*
X168275000Y-63373000D02*
X174117000Y-63373000D01*
X174117000Y-63373000D02*
X174117000Y-62865000D01*
%TO.C,J2*%
X84709000Y-98552000D02*
X74549000Y-98552000D01*
X84709000Y-99822000D02*
X84709000Y-92202000D01*
X84709000Y-92202000D02*
X74549000Y-92202000D01*
X74549000Y-92202000D02*
X74549000Y-99822000D01*
X74549000Y-99822000D02*
X84709000Y-99822000D01*
%TO.C,C12*%
X160907000Y-25604199D02*
X160507000Y-25604199D01*
X160707000Y-25404199D02*
X160707000Y-25804199D01*
X159882000Y-29755000D02*
X159142000Y-29755000D01*
X160049000Y-29715000D02*
X158975000Y-29715000D01*
X160176000Y-29675000D02*
X158848000Y-29675000D01*
X160280000Y-29635000D02*
X158744000Y-29635000D01*
X160371000Y-29595000D02*
X158653000Y-29595000D01*
X160452000Y-29555000D02*
X158572000Y-29555000D01*
X160525000Y-29515000D02*
X158499000Y-29515000D01*
X160592000Y-29475000D02*
X158432000Y-29475000D01*
X160654000Y-29435000D02*
X158370000Y-29435000D01*
X160712000Y-29395000D02*
X158312000Y-29395000D01*
X160766000Y-29355000D02*
X158258000Y-29355000D01*
X160816000Y-29315000D02*
X158208000Y-29315000D01*
X160863000Y-29275000D02*
X158161000Y-29275000D01*
X158672000Y-29235000D02*
X158116000Y-29235000D01*
X160908000Y-29235000D02*
X160352000Y-29235000D01*
X158672000Y-29195000D02*
X158074000Y-29195000D01*
X160950000Y-29195000D02*
X160352000Y-29195000D01*
X158672000Y-29155000D02*
X158034000Y-29155000D01*
X160990000Y-29155000D02*
X160352000Y-29155000D01*
X158672000Y-29115000D02*
X157996000Y-29115000D01*
X161028000Y-29115000D02*
X160352000Y-29115000D01*
X158672000Y-29075000D02*
X157960000Y-29075000D01*
X161064000Y-29075000D02*
X160352000Y-29075000D01*
X158672000Y-29035000D02*
X157925000Y-29035000D01*
X161099000Y-29035000D02*
X160352000Y-29035000D01*
X158672000Y-28995000D02*
X157893000Y-28995000D01*
X161131000Y-28995000D02*
X160352000Y-28995000D01*
X158672000Y-28955000D02*
X157862000Y-28955000D01*
X161162000Y-28955000D02*
X160352000Y-28955000D01*
X158672000Y-28915000D02*
X157832000Y-28915000D01*
X161192000Y-28915000D02*
X160352000Y-28915000D01*
X158672000Y-28875000D02*
X157804000Y-28875000D01*
X161220000Y-28875000D02*
X160352000Y-28875000D01*
X158672000Y-28835000D02*
X157777000Y-28835000D01*
X161247000Y-28835000D02*
X160352000Y-28835000D01*
X158672000Y-28795000D02*
X157752000Y-28795000D01*
X161272000Y-28795000D02*
X160352000Y-28795000D01*
X158672000Y-28755000D02*
X157727000Y-28755000D01*
X161297000Y-28755000D02*
X160352000Y-28755000D01*
X158672000Y-28715000D02*
X157704000Y-28715000D01*
X161320000Y-28715000D02*
X160352000Y-28715000D01*
X158672000Y-28675000D02*
X157682000Y-28675000D01*
X161342000Y-28675000D02*
X160352000Y-28675000D01*
X158672000Y-28635000D02*
X157661000Y-28635000D01*
X161363000Y-28635000D02*
X160352000Y-28635000D01*
X158672000Y-28595000D02*
X157642000Y-28595000D01*
X161382000Y-28595000D02*
X160352000Y-28595000D01*
X158672000Y-28555000D02*
X157623000Y-28555000D01*
X161401000Y-28555000D02*
X160352000Y-28555000D01*
X158672000Y-28515000D02*
X157605000Y-28515000D01*
X161419000Y-28515000D02*
X160352000Y-28515000D01*
X158672000Y-28475000D02*
X157588000Y-28475000D01*
X161436000Y-28475000D02*
X160352000Y-28475000D01*
X158672000Y-28435000D02*
X157572000Y-28435000D01*
X161452000Y-28435000D02*
X160352000Y-28435000D01*
X158672000Y-28395000D02*
X157558000Y-28395000D01*
X161466000Y-28395000D02*
X160352000Y-28395000D01*
X158672000Y-28354000D02*
X157544000Y-28354000D01*
X161480000Y-28354000D02*
X160352000Y-28354000D01*
X158672000Y-28314000D02*
X157530000Y-28314000D01*
X161494000Y-28314000D02*
X160352000Y-28314000D01*
X158672000Y-28274000D02*
X157518000Y-28274000D01*
X161506000Y-28274000D02*
X160352000Y-28274000D01*
X158672000Y-28234000D02*
X157507000Y-28234000D01*
X161517000Y-28234000D02*
X160352000Y-28234000D01*
X158672000Y-28194000D02*
X157496000Y-28194000D01*
X161528000Y-28194000D02*
X160352000Y-28194000D01*
X158672000Y-28154000D02*
X157487000Y-28154000D01*
X161537000Y-28154000D02*
X160352000Y-28154000D01*
X158672000Y-28114000D02*
X157478000Y-28114000D01*
X161546000Y-28114000D02*
X160352000Y-28114000D01*
X158672000Y-28074000D02*
X157470000Y-28074000D01*
X161554000Y-28074000D02*
X160352000Y-28074000D01*
X158672000Y-28034000D02*
X157462000Y-28034000D01*
X161562000Y-28034000D02*
X160352000Y-28034000D01*
X158672000Y-27994000D02*
X157456000Y-27994000D01*
X161568000Y-27994000D02*
X160352000Y-27994000D01*
X158672000Y-27954000D02*
X157450000Y-27954000D01*
X161574000Y-27954000D02*
X160352000Y-27954000D01*
X158672000Y-27914000D02*
X157445000Y-27914000D01*
X161579000Y-27914000D02*
X160352000Y-27914000D01*
X158672000Y-27874000D02*
X157441000Y-27874000D01*
X161583000Y-27874000D02*
X160352000Y-27874000D01*
X158672000Y-27834000D02*
X157438000Y-27834000D01*
X161586000Y-27834000D02*
X160352000Y-27834000D01*
X158672000Y-27794000D02*
X157435000Y-27794000D01*
X161589000Y-27794000D02*
X160352000Y-27794000D01*
X161591000Y-27754000D02*
X160352000Y-27754000D01*
X158672000Y-27754000D02*
X157433000Y-27754000D01*
X161592000Y-27714000D02*
X160352000Y-27714000D01*
X158672000Y-27714000D02*
X157432000Y-27714000D01*
X161592000Y-27674000D02*
X160352000Y-27674000D01*
X158672000Y-27674000D02*
X157432000Y-27674000D01*
X161632000Y-27674000D02*
G75*
G03*
X161632000Y-27674000I-2120000J0D01*
G01*
%TO.C,C17*%
X147826000Y-84786199D02*
X147426000Y-84786199D01*
X147626000Y-84586199D02*
X147626000Y-84986199D01*
X146801000Y-88937000D02*
X146061000Y-88937000D01*
X146968000Y-88897000D02*
X145894000Y-88897000D01*
X147095000Y-88857000D02*
X145767000Y-88857000D01*
X147199000Y-88817000D02*
X145663000Y-88817000D01*
X147290000Y-88777000D02*
X145572000Y-88777000D01*
X147371000Y-88737000D02*
X145491000Y-88737000D01*
X147444000Y-88697000D02*
X145418000Y-88697000D01*
X147511000Y-88657000D02*
X145351000Y-88657000D01*
X147573000Y-88617000D02*
X145289000Y-88617000D01*
X147631000Y-88577000D02*
X145231000Y-88577000D01*
X147685000Y-88537000D02*
X145177000Y-88537000D01*
X147735000Y-88497000D02*
X145127000Y-88497000D01*
X147782000Y-88457000D02*
X145080000Y-88457000D01*
X145591000Y-88417000D02*
X145035000Y-88417000D01*
X147827000Y-88417000D02*
X147271000Y-88417000D01*
X145591000Y-88377000D02*
X144993000Y-88377000D01*
X147869000Y-88377000D02*
X147271000Y-88377000D01*
X145591000Y-88337000D02*
X144953000Y-88337000D01*
X147909000Y-88337000D02*
X147271000Y-88337000D01*
X145591000Y-88297000D02*
X144915000Y-88297000D01*
X147947000Y-88297000D02*
X147271000Y-88297000D01*
X145591000Y-88257000D02*
X144879000Y-88257000D01*
X147983000Y-88257000D02*
X147271000Y-88257000D01*
X145591000Y-88217000D02*
X144844000Y-88217000D01*
X148018000Y-88217000D02*
X147271000Y-88217000D01*
X145591000Y-88177000D02*
X144812000Y-88177000D01*
X148050000Y-88177000D02*
X147271000Y-88177000D01*
X145591000Y-88137000D02*
X144781000Y-88137000D01*
X148081000Y-88137000D02*
X147271000Y-88137000D01*
X145591000Y-88097000D02*
X144751000Y-88097000D01*
X148111000Y-88097000D02*
X147271000Y-88097000D01*
X145591000Y-88057000D02*
X144723000Y-88057000D01*
X148139000Y-88057000D02*
X147271000Y-88057000D01*
X145591000Y-88017000D02*
X144696000Y-88017000D01*
X148166000Y-88017000D02*
X147271000Y-88017000D01*
X145591000Y-87977000D02*
X144671000Y-87977000D01*
X148191000Y-87977000D02*
X147271000Y-87977000D01*
X145591000Y-87937000D02*
X144646000Y-87937000D01*
X148216000Y-87937000D02*
X147271000Y-87937000D01*
X145591000Y-87897000D02*
X144623000Y-87897000D01*
X148239000Y-87897000D02*
X147271000Y-87897000D01*
X145591000Y-87857000D02*
X144601000Y-87857000D01*
X148261000Y-87857000D02*
X147271000Y-87857000D01*
X145591000Y-87817000D02*
X144580000Y-87817000D01*
X148282000Y-87817000D02*
X147271000Y-87817000D01*
X145591000Y-87777000D02*
X144561000Y-87777000D01*
X148301000Y-87777000D02*
X147271000Y-87777000D01*
X145591000Y-87737000D02*
X144542000Y-87737000D01*
X148320000Y-87737000D02*
X147271000Y-87737000D01*
X145591000Y-87697000D02*
X144524000Y-87697000D01*
X148338000Y-87697000D02*
X147271000Y-87697000D01*
X145591000Y-87657000D02*
X144507000Y-87657000D01*
X148355000Y-87657000D02*
X147271000Y-87657000D01*
X145591000Y-87617000D02*
X144491000Y-87617000D01*
X148371000Y-87617000D02*
X147271000Y-87617000D01*
X145591000Y-87577000D02*
X144477000Y-87577000D01*
X148385000Y-87577000D02*
X147271000Y-87577000D01*
X145591000Y-87536000D02*
X144463000Y-87536000D01*
X148399000Y-87536000D02*
X147271000Y-87536000D01*
X145591000Y-87496000D02*
X144449000Y-87496000D01*
X148413000Y-87496000D02*
X147271000Y-87496000D01*
X145591000Y-87456000D02*
X144437000Y-87456000D01*
X148425000Y-87456000D02*
X147271000Y-87456000D01*
X145591000Y-87416000D02*
X144426000Y-87416000D01*
X148436000Y-87416000D02*
X147271000Y-87416000D01*
X145591000Y-87376000D02*
X144415000Y-87376000D01*
X148447000Y-87376000D02*
X147271000Y-87376000D01*
X145591000Y-87336000D02*
X144406000Y-87336000D01*
X148456000Y-87336000D02*
X147271000Y-87336000D01*
X145591000Y-87296000D02*
X144397000Y-87296000D01*
X148465000Y-87296000D02*
X147271000Y-87296000D01*
X145591000Y-87256000D02*
X144389000Y-87256000D01*
X148473000Y-87256000D02*
X147271000Y-87256000D01*
X145591000Y-87216000D02*
X144381000Y-87216000D01*
X148481000Y-87216000D02*
X147271000Y-87216000D01*
X145591000Y-87176000D02*
X144375000Y-87176000D01*
X148487000Y-87176000D02*
X147271000Y-87176000D01*
X145591000Y-87136000D02*
X144369000Y-87136000D01*
X148493000Y-87136000D02*
X147271000Y-87136000D01*
X145591000Y-87096000D02*
X144364000Y-87096000D01*
X148498000Y-87096000D02*
X147271000Y-87096000D01*
X145591000Y-87056000D02*
X144360000Y-87056000D01*
X148502000Y-87056000D02*
X147271000Y-87056000D01*
X145591000Y-87016000D02*
X144357000Y-87016000D01*
X148505000Y-87016000D02*
X147271000Y-87016000D01*
X145591000Y-86976000D02*
X144354000Y-86976000D01*
X148508000Y-86976000D02*
X147271000Y-86976000D01*
X148510000Y-86936000D02*
X147271000Y-86936000D01*
X145591000Y-86936000D02*
X144352000Y-86936000D01*
X148511000Y-86896000D02*
X147271000Y-86896000D01*
X145591000Y-86896000D02*
X144351000Y-86896000D01*
X148511000Y-86856000D02*
X147271000Y-86856000D01*
X145591000Y-86856000D02*
X144351000Y-86856000D01*
X148551000Y-86856000D02*
G75*
G03*
X148551000Y-86856000I-2120000J0D01*
G01*
%TO.C,C16*%
X144909000Y-32307801D02*
X145309000Y-32307801D01*
X145109000Y-32507801D02*
X145109000Y-32107801D01*
X145934000Y-28157000D02*
X146674000Y-28157000D01*
X145767000Y-28197000D02*
X146841000Y-28197000D01*
X145640000Y-28237000D02*
X146968000Y-28237000D01*
X145536000Y-28277000D02*
X147072000Y-28277000D01*
X145445000Y-28317000D02*
X147163000Y-28317000D01*
X145364000Y-28357000D02*
X147244000Y-28357000D01*
X145291000Y-28397000D02*
X147317000Y-28397000D01*
X145224000Y-28437000D02*
X147384000Y-28437000D01*
X145162000Y-28477000D02*
X147446000Y-28477000D01*
X145104000Y-28517000D02*
X147504000Y-28517000D01*
X145050000Y-28557000D02*
X147558000Y-28557000D01*
X145000000Y-28597000D02*
X147608000Y-28597000D01*
X144953000Y-28637000D02*
X147655000Y-28637000D01*
X147144000Y-28677000D02*
X147700000Y-28677000D01*
X144908000Y-28677000D02*
X145464000Y-28677000D01*
X147144000Y-28717000D02*
X147742000Y-28717000D01*
X144866000Y-28717000D02*
X145464000Y-28717000D01*
X147144000Y-28757000D02*
X147782000Y-28757000D01*
X144826000Y-28757000D02*
X145464000Y-28757000D01*
X147144000Y-28797000D02*
X147820000Y-28797000D01*
X144788000Y-28797000D02*
X145464000Y-28797000D01*
X147144000Y-28837000D02*
X147856000Y-28837000D01*
X144752000Y-28837000D02*
X145464000Y-28837000D01*
X147144000Y-28877000D02*
X147891000Y-28877000D01*
X144717000Y-28877000D02*
X145464000Y-28877000D01*
X147144000Y-28917000D02*
X147923000Y-28917000D01*
X144685000Y-28917000D02*
X145464000Y-28917000D01*
X147144000Y-28957000D02*
X147954000Y-28957000D01*
X144654000Y-28957000D02*
X145464000Y-28957000D01*
X147144000Y-28997000D02*
X147984000Y-28997000D01*
X144624000Y-28997000D02*
X145464000Y-28997000D01*
X147144000Y-29037000D02*
X148012000Y-29037000D01*
X144596000Y-29037000D02*
X145464000Y-29037000D01*
X147144000Y-29077000D02*
X148039000Y-29077000D01*
X144569000Y-29077000D02*
X145464000Y-29077000D01*
X147144000Y-29117000D02*
X148064000Y-29117000D01*
X144544000Y-29117000D02*
X145464000Y-29117000D01*
X147144000Y-29157000D02*
X148089000Y-29157000D01*
X144519000Y-29157000D02*
X145464000Y-29157000D01*
X147144000Y-29197000D02*
X148112000Y-29197000D01*
X144496000Y-29197000D02*
X145464000Y-29197000D01*
X147144000Y-29237000D02*
X148134000Y-29237000D01*
X144474000Y-29237000D02*
X145464000Y-29237000D01*
X147144000Y-29277000D02*
X148155000Y-29277000D01*
X144453000Y-29277000D02*
X145464000Y-29277000D01*
X147144000Y-29317000D02*
X148174000Y-29317000D01*
X144434000Y-29317000D02*
X145464000Y-29317000D01*
X147144000Y-29357000D02*
X148193000Y-29357000D01*
X144415000Y-29357000D02*
X145464000Y-29357000D01*
X147144000Y-29397000D02*
X148211000Y-29397000D01*
X144397000Y-29397000D02*
X145464000Y-29397000D01*
X147144000Y-29437000D02*
X148228000Y-29437000D01*
X144380000Y-29437000D02*
X145464000Y-29437000D01*
X147144000Y-29477000D02*
X148244000Y-29477000D01*
X144364000Y-29477000D02*
X145464000Y-29477000D01*
X147144000Y-29517000D02*
X148258000Y-29517000D01*
X144350000Y-29517000D02*
X145464000Y-29517000D01*
X147144000Y-29558000D02*
X148272000Y-29558000D01*
X144336000Y-29558000D02*
X145464000Y-29558000D01*
X147144000Y-29598000D02*
X148286000Y-29598000D01*
X144322000Y-29598000D02*
X145464000Y-29598000D01*
X147144000Y-29638000D02*
X148298000Y-29638000D01*
X144310000Y-29638000D02*
X145464000Y-29638000D01*
X147144000Y-29678000D02*
X148309000Y-29678000D01*
X144299000Y-29678000D02*
X145464000Y-29678000D01*
X147144000Y-29718000D02*
X148320000Y-29718000D01*
X144288000Y-29718000D02*
X145464000Y-29718000D01*
X147144000Y-29758000D02*
X148329000Y-29758000D01*
X144279000Y-29758000D02*
X145464000Y-29758000D01*
X147144000Y-29798000D02*
X148338000Y-29798000D01*
X144270000Y-29798000D02*
X145464000Y-29798000D01*
X147144000Y-29838000D02*
X148346000Y-29838000D01*
X144262000Y-29838000D02*
X145464000Y-29838000D01*
X147144000Y-29878000D02*
X148354000Y-29878000D01*
X144254000Y-29878000D02*
X145464000Y-29878000D01*
X147144000Y-29918000D02*
X148360000Y-29918000D01*
X144248000Y-29918000D02*
X145464000Y-29918000D01*
X147144000Y-29958000D02*
X148366000Y-29958000D01*
X144242000Y-29958000D02*
X145464000Y-29958000D01*
X147144000Y-29998000D02*
X148371000Y-29998000D01*
X144237000Y-29998000D02*
X145464000Y-29998000D01*
X147144000Y-30038000D02*
X148375000Y-30038000D01*
X144233000Y-30038000D02*
X145464000Y-30038000D01*
X147144000Y-30078000D02*
X148378000Y-30078000D01*
X144230000Y-30078000D02*
X145464000Y-30078000D01*
X147144000Y-30118000D02*
X148381000Y-30118000D01*
X144227000Y-30118000D02*
X145464000Y-30118000D01*
X144225000Y-30158000D02*
X145464000Y-30158000D01*
X147144000Y-30158000D02*
X148383000Y-30158000D01*
X144224000Y-30198000D02*
X145464000Y-30198000D01*
X147144000Y-30198000D02*
X148384000Y-30198000D01*
X144224000Y-30238000D02*
X145464000Y-30238000D01*
X147144000Y-30238000D02*
X148384000Y-30238000D01*
X148424000Y-30238000D02*
G75*
G03*
X148424000Y-30238000I-2120000J0D01*
G01*
%TO.C,J4*%
X124222000Y-33087000D02*
X119162000Y-33087000D01*
X119162000Y-33087000D02*
X119162000Y-94167000D01*
X119162000Y-94167000D02*
X131282000Y-94167000D01*
X131282000Y-94167000D02*
X131282000Y-33087000D01*
X131282000Y-33087000D02*
X126222000Y-33087000D01*
X126222000Y-33087000D02*
G75*
G02*
X124222000Y-33087000I-1000000J0D01*
G01*
D11*
%TO.C,U3*%
X142806000Y-64701000D02*
X142806000Y-65126000D01*
X150056000Y-64701000D02*
X150056000Y-65226000D01*
X150056000Y-71951000D02*
X150056000Y-71426000D01*
X142806000Y-71951000D02*
X142806000Y-71426000D01*
X142806000Y-64701000D02*
X143331000Y-64701000D01*
X142806000Y-71951000D02*
X143331000Y-71951000D01*
X150056000Y-71951000D02*
X149531000Y-71951000D01*
X150056000Y-64701000D02*
X149531000Y-64701000D01*
X142806000Y-65126000D02*
X141431000Y-65126000D01*
D10*
%TO.C,U2*%
X106680000Y-49755000D02*
X108880000Y-49755000D01*
X106680000Y-49755000D02*
X104480000Y-49755000D01*
X106680000Y-41685000D02*
X108880000Y-41685000D01*
X106680000Y-41685000D02*
X103080000Y-41685000D01*
%TO.C,U1*%
X90084000Y-57266000D02*
X90084000Y-59066000D01*
X93304000Y-59066000D02*
X93304000Y-56616000D01*
%TO.C,TR2*%
X171831000Y-36195000D02*
X171831000Y-35687000D01*
X171831000Y-35687000D02*
X165989000Y-35687000D01*
X165989000Y-35687000D02*
X165989000Y-36195000D01*
X165989000Y-36195000D02*
X165100000Y-36195000D01*
X165989000Y-43307000D02*
X165989000Y-43815000D01*
X165989000Y-43815000D02*
X171831000Y-43815000D01*
X171831000Y-43815000D02*
X171831000Y-43307000D01*
%TO.C,RV3*%
X93224000Y-43099000D02*
X93224000Y-36149000D01*
X97964000Y-43099000D02*
X97964000Y-36149000D01*
X93224000Y-43099000D02*
X95010000Y-43099000D01*
X96000000Y-43099000D02*
X97964000Y-43099000D01*
X93224000Y-36149000D02*
X95010000Y-36149000D01*
X96000000Y-36149000D02*
X97964000Y-36149000D01*
%TO.C,RV2*%
X90049000Y-76373000D02*
X90049000Y-69423000D01*
X94789000Y-76373000D02*
X94789000Y-69423000D01*
X90049000Y-76373000D02*
X91835000Y-76373000D01*
X92825000Y-76373000D02*
X94789000Y-76373000D01*
X90049000Y-69423000D02*
X91835000Y-69423000D01*
X92825000Y-69423000D02*
X94789000Y-69423000D01*
%TO.C,RV1*%
X86493000Y-45512000D02*
X86493000Y-38562000D01*
X91233000Y-45512000D02*
X91233000Y-38562000D01*
X86493000Y-45512000D02*
X88279000Y-45512000D01*
X89269000Y-45512000D02*
X91233000Y-45512000D01*
X86493000Y-38562000D02*
X88279000Y-38562000D01*
X89269000Y-38562000D02*
X91233000Y-38562000D01*
%TO.C,R22*%
X160888000Y-33239064D02*
X160888000Y-31784936D01*
X162708000Y-33239064D02*
X162708000Y-31784936D01*
%TO.C,R21*%
X157205000Y-32985064D02*
X157205000Y-31530936D01*
X159025000Y-32985064D02*
X159025000Y-31530936D01*
%TO.C,R20*%
X153945000Y-27720936D02*
X153945000Y-29175064D01*
X152125000Y-27720936D02*
X152125000Y-29175064D01*
%TO.C,R19*%
X173897936Y-44683000D02*
X175352064Y-44683000D01*
X173897936Y-46503000D02*
X175352064Y-46503000D01*
%TO.C,R18*%
X157205000Y-49048564D02*
X157205000Y-47594436D01*
X159025000Y-49048564D02*
X159025000Y-47594436D01*
%TO.C,R17*%
X163936000Y-33239064D02*
X163936000Y-31784936D01*
X165756000Y-33239064D02*
X165756000Y-31784936D01*
%TO.C,R16*%
X164317000Y-53305064D02*
X164317000Y-51850936D01*
X166137000Y-53305064D02*
X166137000Y-51850936D01*
%TO.C,R15*%
X161438000Y-47594436D02*
X161438000Y-49048564D01*
X159618000Y-47594436D02*
X159618000Y-49048564D01*
%TO.C,R14*%
X174024936Y-52430000D02*
X175479064Y-52430000D01*
X174024936Y-54250000D02*
X175479064Y-54250000D01*
%TO.C,R13*%
X147299000Y-80483064D02*
X147299000Y-79028936D01*
X149119000Y-80483064D02*
X149119000Y-79028936D01*
%TO.C,R12*%
X143235000Y-80356064D02*
X143235000Y-78901936D01*
X145055000Y-80356064D02*
X145055000Y-78901936D01*
%TO.C,R11*%
X111739000Y-39335064D02*
X111739000Y-37880936D01*
X113559000Y-39335064D02*
X113559000Y-37880936D01*
%TO.C,R10*%
X105050000Y-52612936D02*
X105050000Y-54067064D01*
X103230000Y-52612936D02*
X103230000Y-54067064D01*
%TO.C,R9*%
X92181000Y-50384064D02*
X92181000Y-48929936D01*
X94001000Y-50384064D02*
X94001000Y-48929936D01*
%TO.C,R8*%
X93633936Y-33126000D02*
X95088064Y-33126000D01*
X93633936Y-34946000D02*
X95088064Y-34946000D01*
%TO.C,R7*%
X90966936Y-52684000D02*
X92421064Y-52684000D01*
X90966936Y-54504000D02*
X92421064Y-54504000D01*
%TO.C,R6*%
X93578000Y-82388064D02*
X93578000Y-80933936D01*
X95398000Y-82388064D02*
X95398000Y-80933936D01*
%TO.C,R5*%
X98319000Y-69630936D02*
X98319000Y-71085064D01*
X96499000Y-69630936D02*
X96499000Y-71085064D01*
%TO.C,R4*%
X90826000Y-48864436D02*
X90826000Y-50318564D01*
X89006000Y-48864436D02*
X89006000Y-50318564D01*
%TO.C,R3*%
X87143000Y-48929936D02*
X87143000Y-50384064D01*
X85323000Y-48929936D02*
X85323000Y-50384064D01*
%TO.C,R2*%
X85323000Y-66132064D02*
X85323000Y-64677936D01*
X87143000Y-66132064D02*
X87143000Y-64677936D01*
%TO.C,R1*%
X80751000Y-72162564D02*
X80751000Y-70708436D01*
X82571000Y-72162564D02*
X82571000Y-70708436D01*
%TO.C,L3*%
X139041000Y-85947000D02*
X138711000Y-85947000D01*
X138711000Y-85947000D02*
X138711000Y-79407000D01*
X138711000Y-79407000D02*
X139041000Y-79407000D01*
X141121000Y-85947000D02*
X141451000Y-85947000D01*
X141451000Y-85947000D02*
X141451000Y-79407000D01*
X141451000Y-79407000D02*
X141121000Y-79407000D01*
%TO.C,L2*%
X142772000Y-29496000D02*
X143102000Y-29496000D01*
X143102000Y-29496000D02*
X143102000Y-36036000D01*
X143102000Y-36036000D02*
X142772000Y-36036000D01*
X140692000Y-29496000D02*
X140362000Y-29496000D01*
X140362000Y-29496000D02*
X140362000Y-36036000D01*
X140362000Y-36036000D02*
X140692000Y-36036000D01*
%TO.C,L1*%
X76049000Y-89249000D02*
X75719000Y-89249000D01*
X75719000Y-89249000D02*
X75719000Y-82709000D01*
X75719000Y-82709000D02*
X76049000Y-82709000D01*
X78129000Y-89249000D02*
X78459000Y-89249000D01*
X78459000Y-89249000D02*
X78459000Y-82709000D01*
X78459000Y-82709000D02*
X78129000Y-82709000D01*
%TO.C,J17*%
X133096000Y-21590000D02*
X133096000Y-29210000D01*
X117856000Y-21590000D02*
X117856000Y-29210000D01*
X133096000Y-22860000D02*
X117856000Y-22860000D01*
X133096000Y-29210000D02*
X117856000Y-29210000D01*
X133096000Y-21590000D02*
X117856000Y-21590000D01*
%TO.C,J16*%
X180343000Y-47476000D02*
X180343000Y-51076000D01*
X187703000Y-47476000D02*
X187703000Y-51076000D01*
X182223000Y-52956000D02*
X185823000Y-52956000D01*
X182223000Y-45596000D02*
X185823000Y-45596000D01*
%TO.C,J15*%
X180781000Y-34290000D02*
X178121000Y-34290000D01*
X180781000Y-34290000D02*
X180781000Y-29150000D01*
X180781000Y-29150000D02*
X178121000Y-29150000D01*
X178121000Y-34290000D02*
X178121000Y-29150000D01*
X178121000Y-36890000D02*
X178121000Y-35560000D01*
X179451000Y-36890000D02*
X178121000Y-36890000D01*
%TO.C,J14*%
X170494000Y-48641000D02*
X167834000Y-48641000D01*
X170494000Y-48641000D02*
X170494000Y-46041000D01*
X170494000Y-46041000D02*
X167834000Y-46041000D01*
X167834000Y-48641000D02*
X167834000Y-46041000D01*
X167834000Y-51241000D02*
X167834000Y-49911000D01*
X169164000Y-51241000D02*
X167834000Y-51241000D01*
%TO.C,J13*%
X163322000Y-24444000D02*
X163322000Y-21784000D01*
X163322000Y-24444000D02*
X168462000Y-24444000D01*
X168462000Y-24444000D02*
X168462000Y-21784000D01*
X163322000Y-21784000D02*
X168462000Y-21784000D01*
X160722000Y-21784000D02*
X162052000Y-21784000D01*
X160722000Y-23114000D02*
X160722000Y-21784000D01*
%TO.C,J12*%
X148082000Y-21530000D02*
X148082000Y-24190000D01*
X148082000Y-21530000D02*
X142942000Y-21530000D01*
X142942000Y-21530000D02*
X142942000Y-24190000D01*
X148082000Y-24190000D02*
X142942000Y-24190000D01*
X150682000Y-24190000D02*
X149352000Y-24190000D01*
X150682000Y-22860000D02*
X150682000Y-24190000D01*
%TO.C,J11*%
X147066000Y-39176000D02*
X147066000Y-36516000D01*
X147066000Y-39176000D02*
X152206000Y-39176000D01*
X152206000Y-39176000D02*
X152206000Y-36516000D01*
X147066000Y-36516000D02*
X152206000Y-36516000D01*
X144466000Y-36516000D02*
X145796000Y-36516000D01*
X144466000Y-37846000D02*
X144466000Y-36516000D01*
%TO.C,J10*%
X144593000Y-47177000D02*
X147253000Y-47177000D01*
X144593000Y-47057000D02*
X144593000Y-47177000D01*
X147253000Y-47057000D02*
X147253000Y-47177000D01*
X147253000Y-44517000D02*
X147253000Y-45847000D01*
X145923000Y-44517000D02*
X147253000Y-44517000D01*
%TO.C,J9*%
X157607000Y-51629000D02*
X157607000Y-54289000D01*
X157607000Y-51629000D02*
X155007000Y-51629000D01*
X155007000Y-51629000D02*
X155007000Y-54289000D01*
X157607000Y-54289000D02*
X155007000Y-54289000D01*
X160207000Y-54289000D02*
X158877000Y-54289000D01*
X160207000Y-52959000D02*
X160207000Y-54289000D01*
%TO.C,J8*%
X157607000Y-56074000D02*
X157607000Y-58734000D01*
X157607000Y-56074000D02*
X155007000Y-56074000D01*
X155007000Y-56074000D02*
X155007000Y-58734000D01*
X157607000Y-58734000D02*
X155007000Y-58734000D01*
X160207000Y-58734000D02*
X158877000Y-58734000D01*
X160207000Y-57404000D02*
X160207000Y-58734000D01*
%TO.C,J7*%
X163262000Y-67310000D02*
X165922000Y-67310000D01*
X163262000Y-67310000D02*
X163262000Y-97850000D01*
X163262000Y-97850000D02*
X165922000Y-97850000D01*
X165922000Y-67310000D02*
X165922000Y-97850000D01*
X165922000Y-64710000D02*
X165922000Y-66040000D01*
X164592000Y-64710000D02*
X165922000Y-64710000D01*
%TO.C,J6*%
X180216000Y-87608000D02*
X180216000Y-91208000D01*
X187576000Y-87608000D02*
X187576000Y-91208000D01*
X182096000Y-93088000D02*
X185696000Y-93088000D01*
X182096000Y-85728000D02*
X185696000Y-85728000D01*
%TO.C,J5*%
X180654000Y-76327000D02*
X177994000Y-76327000D01*
X180654000Y-76327000D02*
X180654000Y-71187000D01*
X180654000Y-71187000D02*
X177994000Y-71187000D01*
X177994000Y-76327000D02*
X177994000Y-71187000D01*
X177994000Y-78927000D02*
X177994000Y-77597000D01*
X179324000Y-78927000D02*
X177994000Y-78927000D01*
%TO.C,J3*%
X95123000Y-99822000D02*
X95123000Y-92202000D01*
X110363000Y-99822000D02*
X110363000Y-92202000D01*
X95123000Y-98552000D02*
X110363000Y-98552000D01*
X95123000Y-92202000D02*
X110363000Y-92202000D01*
X95123000Y-99822000D02*
X110363000Y-99822000D01*
%TO.C,J1*%
X73409000Y-51032000D02*
X73409000Y-54632000D01*
X80769000Y-51032000D02*
X80769000Y-54632000D01*
X75289000Y-56512000D02*
X78889000Y-56512000D01*
X75289000Y-49152000D02*
X78889000Y-49152000D01*
%TO.C,C24*%
X174247436Y-47652000D02*
X174701564Y-47652000D01*
X174247436Y-49122000D02*
X174701564Y-49122000D01*
%TO.C,C23*%
X155094000Y-49018564D02*
X155094000Y-48564436D01*
X156564000Y-49018564D02*
X156564000Y-48564436D01*
%TO.C,C22*%
X145188000Y-42160564D02*
X145188000Y-41706436D01*
X146658000Y-42160564D02*
X146658000Y-41706436D01*
%TO.C,C21*%
X163549000Y-48667936D02*
X163549000Y-49122064D01*
X162079000Y-48667936D02*
X162079000Y-49122064D01*
%TO.C,C20*%
X174270936Y-49938000D02*
X174725064Y-49938000D01*
X174270936Y-51408000D02*
X174725064Y-51408000D01*
%TO.C,C19*%
X154332000Y-32866064D02*
X154332000Y-32411936D01*
X155802000Y-32866064D02*
X155802000Y-32411936D01*
%TO.C,C18*%
X165708000Y-27689436D02*
X165708000Y-28143564D01*
X164238000Y-27689436D02*
X164238000Y-28143564D01*
%TO.C,C15*%
X152881000Y-86894936D02*
X152881000Y-87349064D01*
X151411000Y-86894936D02*
X151411000Y-87349064D01*
%TO.C,C14*%
X149760000Y-30326064D02*
X149760000Y-29871936D01*
X151230000Y-30326064D02*
X151230000Y-29871936D01*
%TO.C,C11*%
X109120000Y-38454064D02*
X109120000Y-37999936D01*
X110590000Y-38454064D02*
X110590000Y-37999936D01*
%TO.C,C10*%
X113106000Y-28321000D02*
G75*
G03*
X113106000Y-28321000I-2120000J0D01*
G01*
X110986000Y-29161000D02*
X110986000Y-30401000D01*
X110986000Y-26241000D02*
X110986000Y-27481000D01*
X111026000Y-29161000D02*
X111026000Y-30401000D01*
X111026000Y-26241000D02*
X111026000Y-27481000D01*
X111066000Y-29161000D02*
X111066000Y-30400000D01*
X111066000Y-26242000D02*
X111066000Y-27481000D01*
X111106000Y-26244000D02*
X111106000Y-27481000D01*
X111106000Y-29161000D02*
X111106000Y-30398000D01*
X111146000Y-26247000D02*
X111146000Y-27481000D01*
X111146000Y-29161000D02*
X111146000Y-30395000D01*
X111186000Y-26250000D02*
X111186000Y-27481000D01*
X111186000Y-29161000D02*
X111186000Y-30392000D01*
X111226000Y-26254000D02*
X111226000Y-27481000D01*
X111226000Y-29161000D02*
X111226000Y-30388000D01*
X111266000Y-26259000D02*
X111266000Y-27481000D01*
X111266000Y-29161000D02*
X111266000Y-30383000D01*
X111306000Y-26265000D02*
X111306000Y-27481000D01*
X111306000Y-29161000D02*
X111306000Y-30377000D01*
X111346000Y-26271000D02*
X111346000Y-27481000D01*
X111346000Y-29161000D02*
X111346000Y-30371000D01*
X111386000Y-26279000D02*
X111386000Y-27481000D01*
X111386000Y-29161000D02*
X111386000Y-30363000D01*
X111426000Y-26287000D02*
X111426000Y-27481000D01*
X111426000Y-29161000D02*
X111426000Y-30355000D01*
X111466000Y-26296000D02*
X111466000Y-27481000D01*
X111466000Y-29161000D02*
X111466000Y-30346000D01*
X111506000Y-26305000D02*
X111506000Y-27481000D01*
X111506000Y-29161000D02*
X111506000Y-30337000D01*
X111546000Y-26316000D02*
X111546000Y-27481000D01*
X111546000Y-29161000D02*
X111546000Y-30326000D01*
X111586000Y-26327000D02*
X111586000Y-27481000D01*
X111586000Y-29161000D02*
X111586000Y-30315000D01*
X111626000Y-26339000D02*
X111626000Y-27481000D01*
X111626000Y-29161000D02*
X111626000Y-30303000D01*
X111666000Y-26353000D02*
X111666000Y-27481000D01*
X111666000Y-29161000D02*
X111666000Y-30289000D01*
X111707000Y-26367000D02*
X111707000Y-27481000D01*
X111707000Y-29161000D02*
X111707000Y-30275000D01*
X111747000Y-26381000D02*
X111747000Y-27481000D01*
X111747000Y-29161000D02*
X111747000Y-30261000D01*
X111787000Y-26397000D02*
X111787000Y-27481000D01*
X111787000Y-29161000D02*
X111787000Y-30245000D01*
X111827000Y-26414000D02*
X111827000Y-27481000D01*
X111827000Y-29161000D02*
X111827000Y-30228000D01*
X111867000Y-26432000D02*
X111867000Y-27481000D01*
X111867000Y-29161000D02*
X111867000Y-30210000D01*
X111907000Y-26451000D02*
X111907000Y-27481000D01*
X111907000Y-29161000D02*
X111907000Y-30191000D01*
X111947000Y-26470000D02*
X111947000Y-27481000D01*
X111947000Y-29161000D02*
X111947000Y-30172000D01*
X111987000Y-26491000D02*
X111987000Y-27481000D01*
X111987000Y-29161000D02*
X111987000Y-30151000D01*
X112027000Y-26513000D02*
X112027000Y-27481000D01*
X112027000Y-29161000D02*
X112027000Y-30129000D01*
X112067000Y-26536000D02*
X112067000Y-27481000D01*
X112067000Y-29161000D02*
X112067000Y-30106000D01*
X112107000Y-26561000D02*
X112107000Y-27481000D01*
X112107000Y-29161000D02*
X112107000Y-30081000D01*
X112147000Y-26586000D02*
X112147000Y-27481000D01*
X112147000Y-29161000D02*
X112147000Y-30056000D01*
X112187000Y-26613000D02*
X112187000Y-27481000D01*
X112187000Y-29161000D02*
X112187000Y-30029000D01*
X112227000Y-26641000D02*
X112227000Y-27481000D01*
X112227000Y-29161000D02*
X112227000Y-30001000D01*
X112267000Y-26671000D02*
X112267000Y-27481000D01*
X112267000Y-29161000D02*
X112267000Y-29971000D01*
X112307000Y-26702000D02*
X112307000Y-27481000D01*
X112307000Y-29161000D02*
X112307000Y-29940000D01*
X112347000Y-26734000D02*
X112347000Y-27481000D01*
X112347000Y-29161000D02*
X112347000Y-29908000D01*
X112387000Y-26769000D02*
X112387000Y-27481000D01*
X112387000Y-29161000D02*
X112387000Y-29873000D01*
X112427000Y-26805000D02*
X112427000Y-27481000D01*
X112427000Y-29161000D02*
X112427000Y-29837000D01*
X112467000Y-26843000D02*
X112467000Y-27481000D01*
X112467000Y-29161000D02*
X112467000Y-29799000D01*
X112507000Y-26883000D02*
X112507000Y-27481000D01*
X112507000Y-29161000D02*
X112507000Y-29759000D01*
X112547000Y-26925000D02*
X112547000Y-27481000D01*
X112547000Y-29161000D02*
X112547000Y-29717000D01*
X112587000Y-26970000D02*
X112587000Y-29672000D01*
X112627000Y-27017000D02*
X112627000Y-29625000D01*
X112667000Y-27067000D02*
X112667000Y-29575000D01*
X112707000Y-27121000D02*
X112707000Y-29521000D01*
X112747000Y-27179000D02*
X112747000Y-29463000D01*
X112787000Y-27241000D02*
X112787000Y-29401000D01*
X112827000Y-27308000D02*
X112827000Y-29334000D01*
X112867000Y-27381000D02*
X112867000Y-29261000D01*
X112907000Y-27462000D02*
X112907000Y-29180000D01*
X112947000Y-27553000D02*
X112947000Y-29089000D01*
X112987000Y-27657000D02*
X112987000Y-28985000D01*
X113027000Y-27784000D02*
X113027000Y-28858000D01*
X113067000Y-27951000D02*
X113067000Y-28691000D01*
X108716199Y-27126000D02*
X109116199Y-27126000D01*
X108916199Y-26926000D02*
X108916199Y-27326000D01*
%TO.C,C9*%
X84023000Y-89154000D02*
G75*
G03*
X84023000Y-89154000I-2120000J0D01*
G01*
X81903000Y-89994000D02*
X81903000Y-91234000D01*
X81903000Y-87074000D02*
X81903000Y-88314000D01*
X81943000Y-89994000D02*
X81943000Y-91234000D01*
X81943000Y-87074000D02*
X81943000Y-88314000D01*
X81983000Y-89994000D02*
X81983000Y-91233000D01*
X81983000Y-87075000D02*
X81983000Y-88314000D01*
X82023000Y-87077000D02*
X82023000Y-88314000D01*
X82023000Y-89994000D02*
X82023000Y-91231000D01*
X82063000Y-87080000D02*
X82063000Y-88314000D01*
X82063000Y-89994000D02*
X82063000Y-91228000D01*
X82103000Y-87083000D02*
X82103000Y-88314000D01*
X82103000Y-89994000D02*
X82103000Y-91225000D01*
X82143000Y-87087000D02*
X82143000Y-88314000D01*
X82143000Y-89994000D02*
X82143000Y-91221000D01*
X82183000Y-87092000D02*
X82183000Y-88314000D01*
X82183000Y-89994000D02*
X82183000Y-91216000D01*
X82223000Y-87098000D02*
X82223000Y-88314000D01*
X82223000Y-89994000D02*
X82223000Y-91210000D01*
X82263000Y-87104000D02*
X82263000Y-88314000D01*
X82263000Y-89994000D02*
X82263000Y-91204000D01*
X82303000Y-87112000D02*
X82303000Y-88314000D01*
X82303000Y-89994000D02*
X82303000Y-91196000D01*
X82343000Y-87120000D02*
X82343000Y-88314000D01*
X82343000Y-89994000D02*
X82343000Y-91188000D01*
X82383000Y-87129000D02*
X82383000Y-88314000D01*
X82383000Y-89994000D02*
X82383000Y-91179000D01*
X82423000Y-87138000D02*
X82423000Y-88314000D01*
X82423000Y-89994000D02*
X82423000Y-91170000D01*
X82463000Y-87149000D02*
X82463000Y-88314000D01*
X82463000Y-89994000D02*
X82463000Y-91159000D01*
X82503000Y-87160000D02*
X82503000Y-88314000D01*
X82503000Y-89994000D02*
X82503000Y-91148000D01*
X82543000Y-87172000D02*
X82543000Y-88314000D01*
X82543000Y-89994000D02*
X82543000Y-91136000D01*
X82583000Y-87186000D02*
X82583000Y-88314000D01*
X82583000Y-89994000D02*
X82583000Y-91122000D01*
X82624000Y-87200000D02*
X82624000Y-88314000D01*
X82624000Y-89994000D02*
X82624000Y-91108000D01*
X82664000Y-87214000D02*
X82664000Y-88314000D01*
X82664000Y-89994000D02*
X82664000Y-91094000D01*
X82704000Y-87230000D02*
X82704000Y-88314000D01*
X82704000Y-89994000D02*
X82704000Y-91078000D01*
X82744000Y-87247000D02*
X82744000Y-88314000D01*
X82744000Y-89994000D02*
X82744000Y-91061000D01*
X82784000Y-87265000D02*
X82784000Y-88314000D01*
X82784000Y-89994000D02*
X82784000Y-91043000D01*
X82824000Y-87284000D02*
X82824000Y-88314000D01*
X82824000Y-89994000D02*
X82824000Y-91024000D01*
X82864000Y-87303000D02*
X82864000Y-88314000D01*
X82864000Y-89994000D02*
X82864000Y-91005000D01*
X82904000Y-87324000D02*
X82904000Y-88314000D01*
X82904000Y-89994000D02*
X82904000Y-90984000D01*
X82944000Y-87346000D02*
X82944000Y-88314000D01*
X82944000Y-89994000D02*
X82944000Y-90962000D01*
X82984000Y-87369000D02*
X82984000Y-88314000D01*
X82984000Y-89994000D02*
X82984000Y-90939000D01*
X83024000Y-87394000D02*
X83024000Y-88314000D01*
X83024000Y-89994000D02*
X83024000Y-90914000D01*
X83064000Y-87419000D02*
X83064000Y-88314000D01*
X83064000Y-89994000D02*
X83064000Y-90889000D01*
X83104000Y-87446000D02*
X83104000Y-88314000D01*
X83104000Y-89994000D02*
X83104000Y-90862000D01*
X83144000Y-87474000D02*
X83144000Y-88314000D01*
X83144000Y-89994000D02*
X83144000Y-90834000D01*
X83184000Y-87504000D02*
X83184000Y-88314000D01*
X83184000Y-89994000D02*
X83184000Y-90804000D01*
X83224000Y-87535000D02*
X83224000Y-88314000D01*
X83224000Y-89994000D02*
X83224000Y-90773000D01*
X83264000Y-87567000D02*
X83264000Y-88314000D01*
X83264000Y-89994000D02*
X83264000Y-90741000D01*
X83304000Y-87602000D02*
X83304000Y-88314000D01*
X83304000Y-89994000D02*
X83304000Y-90706000D01*
X83344000Y-87638000D02*
X83344000Y-88314000D01*
X83344000Y-89994000D02*
X83344000Y-90670000D01*
X83384000Y-87676000D02*
X83384000Y-88314000D01*
X83384000Y-89994000D02*
X83384000Y-90632000D01*
X83424000Y-87716000D02*
X83424000Y-88314000D01*
X83424000Y-89994000D02*
X83424000Y-90592000D01*
X83464000Y-87758000D02*
X83464000Y-88314000D01*
X83464000Y-89994000D02*
X83464000Y-90550000D01*
X83504000Y-87803000D02*
X83504000Y-90505000D01*
X83544000Y-87850000D02*
X83544000Y-90458000D01*
X83584000Y-87900000D02*
X83584000Y-90408000D01*
X83624000Y-87954000D02*
X83624000Y-90354000D01*
X83664000Y-88012000D02*
X83664000Y-90296000D01*
X83704000Y-88074000D02*
X83704000Y-90234000D01*
X83744000Y-88141000D02*
X83744000Y-90167000D01*
X83784000Y-88214000D02*
X83784000Y-90094000D01*
X83824000Y-88295000D02*
X83824000Y-90013000D01*
X83864000Y-88386000D02*
X83864000Y-89922000D01*
X83904000Y-88490000D02*
X83904000Y-89818000D01*
X83944000Y-88617000D02*
X83944000Y-89691000D01*
X83984000Y-88784000D02*
X83984000Y-89524000D01*
X79633199Y-87959000D02*
X80033199Y-87959000D01*
X79833199Y-87759000D02*
X79833199Y-88159000D01*
%TO.C,C8*%
X103732000Y-37999936D02*
X103732000Y-38454064D01*
X102262000Y-37999936D02*
X102262000Y-38454064D01*
%TO.C,C7*%
X100811000Y-50168436D02*
X100811000Y-50622564D01*
X99341000Y-50168436D02*
X99341000Y-50622564D01*
%TO.C,C6*%
X101065000Y-46405436D02*
X101065000Y-46859564D01*
X99595000Y-46405436D02*
X99595000Y-46859564D01*
%TO.C,C5*%
X103478000Y-33150436D02*
X103478000Y-33604564D01*
X102008000Y-33150436D02*
X102008000Y-33604564D01*
%TO.C,C4*%
X101065000Y-35586936D02*
X101065000Y-36041064D01*
X99595000Y-35586936D02*
X99595000Y-36041064D01*
%TO.C,C3*%
X105794436Y-88038000D02*
X106248564Y-88038000D01*
X105794436Y-89508000D02*
X106248564Y-89508000D01*
%TO.C,C2*%
X99390564Y-89381000D02*
X98936436Y-89381000D01*
X99390564Y-87911000D02*
X98936436Y-87911000D01*
%TO.C,C1*%
X85243936Y-72163000D02*
X85698064Y-72163000D01*
X85243936Y-73633000D02*
X85698064Y-73633000D01*
%TO.C,TR1*%
D11*
X169934095Y-53935380D02*
X170505523Y-53935380D01*
X170219809Y-54935380D02*
X170219809Y-53935380D01*
X171410285Y-54935380D02*
X171076952Y-54459190D01*
X170838857Y-54935380D02*
X170838857Y-53935380D01*
X171219809Y-53935380D01*
X171315047Y-53983000D01*
X171362666Y-54030619D01*
X171410285Y-54125857D01*
X171410285Y-54268714D01*
X171362666Y-54363952D01*
X171315047Y-54411571D01*
X171219809Y-54459190D01*
X170838857Y-54459190D01*
X172362666Y-54935380D02*
X171791238Y-54935380D01*
X172076952Y-54935380D02*
X172076952Y-53935380D01*
X171981714Y-54078238D01*
X171886476Y-54173476D01*
X171791238Y-54221095D01*
%TO.C,J2*%
X79295666Y-90384380D02*
X79295666Y-91098666D01*
X79248047Y-91241523D01*
X79152809Y-91336761D01*
X79009952Y-91384380D01*
X78914714Y-91384380D01*
X79724238Y-90479619D02*
X79771857Y-90432000D01*
X79867095Y-90384380D01*
X80105190Y-90384380D01*
X80200428Y-90432000D01*
X80248047Y-90479619D01*
X80295666Y-90574857D01*
X80295666Y-90670095D01*
X80248047Y-90812952D01*
X79676619Y-91384380D01*
X80295666Y-91384380D01*
%TO.C,C12*%
X163119142Y-28316857D02*
X163166761Y-28364476D01*
X163214380Y-28507333D01*
X163214380Y-28602571D01*
X163166761Y-28745428D01*
X163071523Y-28840666D01*
X162976285Y-28888285D01*
X162785809Y-28935904D01*
X162642952Y-28935904D01*
X162452476Y-28888285D01*
X162357238Y-28840666D01*
X162262000Y-28745428D01*
X162214380Y-28602571D01*
X162214380Y-28507333D01*
X162262000Y-28364476D01*
X162309619Y-28316857D01*
X163214380Y-27364476D02*
X163214380Y-27935904D01*
X163214380Y-27650190D02*
X162214380Y-27650190D01*
X162357238Y-27745428D01*
X162452476Y-27840666D01*
X162500095Y-27935904D01*
X162309619Y-26983523D02*
X162262000Y-26935904D01*
X162214380Y-26840666D01*
X162214380Y-26602571D01*
X162262000Y-26507333D01*
X162309619Y-26459714D01*
X162404857Y-26412095D01*
X162500095Y-26412095D01*
X162642952Y-26459714D01*
X163214380Y-27031142D01*
X163214380Y-26412095D01*
%TO.C,C17*%
X150038142Y-87498857D02*
X150085761Y-87546476D01*
X150133380Y-87689333D01*
X150133380Y-87784571D01*
X150085761Y-87927428D01*
X149990523Y-88022666D01*
X149895285Y-88070285D01*
X149704809Y-88117904D01*
X149561952Y-88117904D01*
X149371476Y-88070285D01*
X149276238Y-88022666D01*
X149181000Y-87927428D01*
X149133380Y-87784571D01*
X149133380Y-87689333D01*
X149181000Y-87546476D01*
X149228619Y-87498857D01*
X150133380Y-86546476D02*
X150133380Y-87117904D01*
X150133380Y-86832190D02*
X149133380Y-86832190D01*
X149276238Y-86927428D01*
X149371476Y-87022666D01*
X149419095Y-87117904D01*
X149133380Y-86213142D02*
X149133380Y-85546476D01*
X150133380Y-85975047D01*
%TO.C,C16*%
X143411142Y-30880857D02*
X143458761Y-30928476D01*
X143506380Y-31071333D01*
X143506380Y-31166571D01*
X143458761Y-31309428D01*
X143363523Y-31404666D01*
X143268285Y-31452285D01*
X143077809Y-31499904D01*
X142934952Y-31499904D01*
X142744476Y-31452285D01*
X142649238Y-31404666D01*
X142554000Y-31309428D01*
X142506380Y-31166571D01*
X142506380Y-31071333D01*
X142554000Y-30928476D01*
X142601619Y-30880857D01*
X143506380Y-29928476D02*
X143506380Y-30499904D01*
X143506380Y-30214190D02*
X142506380Y-30214190D01*
X142649238Y-30309428D01*
X142744476Y-30404666D01*
X142792095Y-30499904D01*
X142506380Y-29071333D02*
X142506380Y-29261809D01*
X142554000Y-29357047D01*
X142601619Y-29404666D01*
X142744476Y-29499904D01*
X142934952Y-29547523D01*
X143315904Y-29547523D01*
X143411142Y-29499904D01*
X143458761Y-29452285D01*
X143506380Y-29357047D01*
X143506380Y-29166571D01*
X143458761Y-29071333D01*
X143411142Y-29023714D01*
X143315904Y-28976095D01*
X143077809Y-28976095D01*
X142982571Y-29023714D01*
X142934952Y-29071333D01*
X142887333Y-29166571D01*
X142887333Y-29357047D01*
X142934952Y-29452285D01*
X142982571Y-29499904D01*
X143077809Y-29547523D01*
%TO.C,J4*%
X124888666Y-31539380D02*
X124888666Y-32253666D01*
X124841047Y-32396523D01*
X124745809Y-32491761D01*
X124602952Y-32539380D01*
X124507714Y-32539380D01*
X125793428Y-31872714D02*
X125793428Y-32539380D01*
X125555333Y-31491761D02*
X125317238Y-32206047D01*
X125936285Y-32206047D01*
%TO.C,U3*%
X145669095Y-61778380D02*
X145669095Y-62587904D01*
X145716714Y-62683142D01*
X145764333Y-62730761D01*
X145859571Y-62778380D01*
X146050047Y-62778380D01*
X146145285Y-62730761D01*
X146192904Y-62683142D01*
X146240523Y-62587904D01*
X146240523Y-61778380D01*
X146621476Y-61778380D02*
X147240523Y-61778380D01*
X146907190Y-62159333D01*
X147050047Y-62159333D01*
X147145285Y-62206952D01*
X147192904Y-62254571D01*
X147240523Y-62349809D01*
X147240523Y-62587904D01*
X147192904Y-62683142D01*
X147145285Y-62730761D01*
X147050047Y-62778380D01*
X146764333Y-62778380D01*
X146669095Y-62730761D01*
X146621476Y-62683142D01*
%TO.C,U2*%
X105918095Y-40322380D02*
X105918095Y-41131904D01*
X105965714Y-41227142D01*
X106013333Y-41274761D01*
X106108571Y-41322380D01*
X106299047Y-41322380D01*
X106394285Y-41274761D01*
X106441904Y-41227142D01*
X106489523Y-41131904D01*
X106489523Y-40322380D01*
X106918095Y-40417619D02*
X106965714Y-40370000D01*
X107060952Y-40322380D01*
X107299047Y-40322380D01*
X107394285Y-40370000D01*
X107441904Y-40417619D01*
X107489523Y-40512857D01*
X107489523Y-40608095D01*
X107441904Y-40750952D01*
X106870476Y-41322380D01*
X107489523Y-41322380D01*
%TO.C,U1*%
X94046380Y-58927904D02*
X94855904Y-58927904D01*
X94951142Y-58880285D01*
X94998761Y-58832666D01*
X95046380Y-58737428D01*
X95046380Y-58546952D01*
X94998761Y-58451714D01*
X94951142Y-58404095D01*
X94855904Y-58356476D01*
X94046380Y-58356476D01*
X95046380Y-57356476D02*
X95046380Y-57927904D01*
X95046380Y-57642190D02*
X94046380Y-57642190D01*
X94189238Y-57737428D01*
X94284476Y-57832666D01*
X94332095Y-57927904D01*
%TO.C,TR2*%
X167648095Y-34377380D02*
X168219523Y-34377380D01*
X167933809Y-35377380D02*
X167933809Y-34377380D01*
X169124285Y-35377380D02*
X168790952Y-34901190D01*
X168552857Y-35377380D02*
X168552857Y-34377380D01*
X168933809Y-34377380D01*
X169029047Y-34425000D01*
X169076666Y-34472619D01*
X169124285Y-34567857D01*
X169124285Y-34710714D01*
X169076666Y-34805952D01*
X169029047Y-34853571D01*
X168933809Y-34901190D01*
X168552857Y-34901190D01*
X169505238Y-34472619D02*
X169552857Y-34425000D01*
X169648095Y-34377380D01*
X169886190Y-34377380D01*
X169981428Y-34425000D01*
X170029047Y-34472619D01*
X170076666Y-34567857D01*
X170076666Y-34663095D01*
X170029047Y-34805952D01*
X169457619Y-35377380D01*
X170076666Y-35377380D01*
%TO.C,RV3*%
X92546380Y-40219238D02*
X92070190Y-40552571D01*
X92546380Y-40790666D02*
X91546380Y-40790666D01*
X91546380Y-40409714D01*
X91594000Y-40314476D01*
X91641619Y-40266857D01*
X91736857Y-40219238D01*
X91879714Y-40219238D01*
X91974952Y-40266857D01*
X92022571Y-40314476D01*
X92070190Y-40409714D01*
X92070190Y-40790666D01*
X91546380Y-39933523D02*
X92546380Y-39600190D01*
X91546380Y-39266857D01*
X91546380Y-39028761D02*
X91546380Y-38409714D01*
X91927333Y-38743047D01*
X91927333Y-38600190D01*
X91974952Y-38504952D01*
X92022571Y-38457333D01*
X92117809Y-38409714D01*
X92355904Y-38409714D01*
X92451142Y-38457333D01*
X92498761Y-38504952D01*
X92546380Y-38600190D01*
X92546380Y-38885904D01*
X92498761Y-38981142D01*
X92451142Y-39028761D01*
%TO.C,RV2*%
X89371380Y-73493238D02*
X88895190Y-73826571D01*
X89371380Y-74064666D02*
X88371380Y-74064666D01*
X88371380Y-73683714D01*
X88419000Y-73588476D01*
X88466619Y-73540857D01*
X88561857Y-73493238D01*
X88704714Y-73493238D01*
X88799952Y-73540857D01*
X88847571Y-73588476D01*
X88895190Y-73683714D01*
X88895190Y-74064666D01*
X88371380Y-73207523D02*
X89371380Y-72874190D01*
X88371380Y-72540857D01*
X88466619Y-72255142D02*
X88419000Y-72207523D01*
X88371380Y-72112285D01*
X88371380Y-71874190D01*
X88419000Y-71778952D01*
X88466619Y-71731333D01*
X88561857Y-71683714D01*
X88657095Y-71683714D01*
X88799952Y-71731333D01*
X89371380Y-72302761D01*
X89371380Y-71683714D01*
%TO.C,RV1*%
X85815380Y-42632238D02*
X85339190Y-42965571D01*
X85815380Y-43203666D02*
X84815380Y-43203666D01*
X84815380Y-42822714D01*
X84863000Y-42727476D01*
X84910619Y-42679857D01*
X85005857Y-42632238D01*
X85148714Y-42632238D01*
X85243952Y-42679857D01*
X85291571Y-42727476D01*
X85339190Y-42822714D01*
X85339190Y-43203666D01*
X84815380Y-42346523D02*
X85815380Y-42013190D01*
X84815380Y-41679857D01*
X85815380Y-40822714D02*
X85815380Y-41394142D01*
X85815380Y-41108428D02*
X84815380Y-41108428D01*
X84958238Y-41203666D01*
X85053476Y-41298904D01*
X85101095Y-41394142D01*
%TO.C,R22*%
X160430380Y-33154857D02*
X159954190Y-33488190D01*
X160430380Y-33726285D02*
X159430380Y-33726285D01*
X159430380Y-33345333D01*
X159478000Y-33250095D01*
X159525619Y-33202476D01*
X159620857Y-33154857D01*
X159763714Y-33154857D01*
X159858952Y-33202476D01*
X159906571Y-33250095D01*
X159954190Y-33345333D01*
X159954190Y-33726285D01*
X159525619Y-32773904D02*
X159478000Y-32726285D01*
X159430380Y-32631047D01*
X159430380Y-32392952D01*
X159478000Y-32297714D01*
X159525619Y-32250095D01*
X159620857Y-32202476D01*
X159716095Y-32202476D01*
X159858952Y-32250095D01*
X160430380Y-32821523D01*
X160430380Y-32202476D01*
X159525619Y-31821523D02*
X159478000Y-31773904D01*
X159430380Y-31678666D01*
X159430380Y-31440571D01*
X159478000Y-31345333D01*
X159525619Y-31297714D01*
X159620857Y-31250095D01*
X159716095Y-31250095D01*
X159858952Y-31297714D01*
X160430380Y-31869142D01*
X160430380Y-31250095D01*
%TO.C,R21*%
X156747380Y-32900857D02*
X156271190Y-33234190D01*
X156747380Y-33472285D02*
X155747380Y-33472285D01*
X155747380Y-33091333D01*
X155795000Y-32996095D01*
X155842619Y-32948476D01*
X155937857Y-32900857D01*
X156080714Y-32900857D01*
X156175952Y-32948476D01*
X156223571Y-32996095D01*
X156271190Y-33091333D01*
X156271190Y-33472285D01*
X155842619Y-32519904D02*
X155795000Y-32472285D01*
X155747380Y-32377047D01*
X155747380Y-32138952D01*
X155795000Y-32043714D01*
X155842619Y-31996095D01*
X155937857Y-31948476D01*
X156033095Y-31948476D01*
X156175952Y-31996095D01*
X156747380Y-32567523D01*
X156747380Y-31948476D01*
X156747380Y-30996095D02*
X156747380Y-31567523D01*
X156747380Y-31281809D02*
X155747380Y-31281809D01*
X155890238Y-31377047D01*
X155985476Y-31472285D01*
X156033095Y-31567523D01*
%TO.C,R20*%
X155307380Y-29090857D02*
X154831190Y-29424190D01*
X155307380Y-29662285D02*
X154307380Y-29662285D01*
X154307380Y-29281333D01*
X154355000Y-29186095D01*
X154402619Y-29138476D01*
X154497857Y-29090857D01*
X154640714Y-29090857D01*
X154735952Y-29138476D01*
X154783571Y-29186095D01*
X154831190Y-29281333D01*
X154831190Y-29662285D01*
X154402619Y-28709904D02*
X154355000Y-28662285D01*
X154307380Y-28567047D01*
X154307380Y-28328952D01*
X154355000Y-28233714D01*
X154402619Y-28186095D01*
X154497857Y-28138476D01*
X154593095Y-28138476D01*
X154735952Y-28186095D01*
X155307380Y-28757523D01*
X155307380Y-28138476D01*
X154307380Y-27519428D02*
X154307380Y-27424190D01*
X154355000Y-27328952D01*
X154402619Y-27281333D01*
X154497857Y-27233714D01*
X154688333Y-27186095D01*
X154926428Y-27186095D01*
X155116904Y-27233714D01*
X155212142Y-27281333D01*
X155259761Y-27328952D01*
X155307380Y-27424190D01*
X155307380Y-27519428D01*
X155259761Y-27614666D01*
X155212142Y-27662285D01*
X155116904Y-27709904D01*
X154926428Y-27757523D01*
X154688333Y-27757523D01*
X154497857Y-27709904D01*
X154402619Y-27662285D01*
X154355000Y-27614666D01*
X154307380Y-27519428D01*
%TO.C,R19*%
X173982142Y-44225380D02*
X173648809Y-43749190D01*
X173410714Y-44225380D02*
X173410714Y-43225380D01*
X173791666Y-43225380D01*
X173886904Y-43273000D01*
X173934523Y-43320619D01*
X173982142Y-43415857D01*
X173982142Y-43558714D01*
X173934523Y-43653952D01*
X173886904Y-43701571D01*
X173791666Y-43749190D01*
X173410714Y-43749190D01*
X174934523Y-44225380D02*
X174363095Y-44225380D01*
X174648809Y-44225380D02*
X174648809Y-43225380D01*
X174553571Y-43368238D01*
X174458333Y-43463476D01*
X174363095Y-43511095D01*
X175410714Y-44225380D02*
X175601190Y-44225380D01*
X175696428Y-44177761D01*
X175744047Y-44130142D01*
X175839285Y-43987285D01*
X175886904Y-43796809D01*
X175886904Y-43415857D01*
X175839285Y-43320619D01*
X175791666Y-43273000D01*
X175696428Y-43225380D01*
X175505952Y-43225380D01*
X175410714Y-43273000D01*
X175363095Y-43320619D01*
X175315476Y-43415857D01*
X175315476Y-43653952D01*
X175363095Y-43749190D01*
X175410714Y-43796809D01*
X175505952Y-43844428D01*
X175696428Y-43844428D01*
X175791666Y-43796809D01*
X175839285Y-43749190D01*
X175886904Y-43653952D01*
%TO.C,R18*%
X156747380Y-48964357D02*
X156271190Y-49297690D01*
X156747380Y-49535785D02*
X155747380Y-49535785D01*
X155747380Y-49154833D01*
X155795000Y-49059595D01*
X155842619Y-49011976D01*
X155937857Y-48964357D01*
X156080714Y-48964357D01*
X156175952Y-49011976D01*
X156223571Y-49059595D01*
X156271190Y-49154833D01*
X156271190Y-49535785D01*
X156747380Y-48011976D02*
X156747380Y-48583404D01*
X156747380Y-48297690D02*
X155747380Y-48297690D01*
X155890238Y-48392928D01*
X155985476Y-48488166D01*
X156033095Y-48583404D01*
X156175952Y-47440547D02*
X156128333Y-47535785D01*
X156080714Y-47583404D01*
X155985476Y-47631023D01*
X155937857Y-47631023D01*
X155842619Y-47583404D01*
X155795000Y-47535785D01*
X155747380Y-47440547D01*
X155747380Y-47250071D01*
X155795000Y-47154833D01*
X155842619Y-47107214D01*
X155937857Y-47059595D01*
X155985476Y-47059595D01*
X156080714Y-47107214D01*
X156128333Y-47154833D01*
X156175952Y-47250071D01*
X156175952Y-47440547D01*
X156223571Y-47535785D01*
X156271190Y-47583404D01*
X156366428Y-47631023D01*
X156556904Y-47631023D01*
X156652142Y-47583404D01*
X156699761Y-47535785D01*
X156747380Y-47440547D01*
X156747380Y-47250071D01*
X156699761Y-47154833D01*
X156652142Y-47107214D01*
X156556904Y-47059595D01*
X156366428Y-47059595D01*
X156271190Y-47107214D01*
X156223571Y-47154833D01*
X156175952Y-47250071D01*
%TO.C,R17*%
X163478380Y-33154857D02*
X163002190Y-33488190D01*
X163478380Y-33726285D02*
X162478380Y-33726285D01*
X162478380Y-33345333D01*
X162526000Y-33250095D01*
X162573619Y-33202476D01*
X162668857Y-33154857D01*
X162811714Y-33154857D01*
X162906952Y-33202476D01*
X162954571Y-33250095D01*
X163002190Y-33345333D01*
X163002190Y-33726285D01*
X163478380Y-32202476D02*
X163478380Y-32773904D01*
X163478380Y-32488190D02*
X162478380Y-32488190D01*
X162621238Y-32583428D01*
X162716476Y-32678666D01*
X162764095Y-32773904D01*
X162478380Y-31869142D02*
X162478380Y-31202476D01*
X163478380Y-31631047D01*
%TO.C,R16*%
X163859380Y-53220857D02*
X163383190Y-53554190D01*
X163859380Y-53792285D02*
X162859380Y-53792285D01*
X162859380Y-53411333D01*
X162907000Y-53316095D01*
X162954619Y-53268476D01*
X163049857Y-53220857D01*
X163192714Y-53220857D01*
X163287952Y-53268476D01*
X163335571Y-53316095D01*
X163383190Y-53411333D01*
X163383190Y-53792285D01*
X163859380Y-52268476D02*
X163859380Y-52839904D01*
X163859380Y-52554190D02*
X162859380Y-52554190D01*
X163002238Y-52649428D01*
X163097476Y-52744666D01*
X163145095Y-52839904D01*
X162859380Y-51411333D02*
X162859380Y-51601809D01*
X162907000Y-51697047D01*
X162954619Y-51744666D01*
X163097476Y-51839904D01*
X163287952Y-51887523D01*
X163668904Y-51887523D01*
X163764142Y-51839904D01*
X163811761Y-51792285D01*
X163859380Y-51697047D01*
X163859380Y-51506571D01*
X163811761Y-51411333D01*
X163764142Y-51363714D01*
X163668904Y-51316095D01*
X163430809Y-51316095D01*
X163335571Y-51363714D01*
X163287952Y-51411333D01*
X163240333Y-51506571D01*
X163240333Y-51697047D01*
X163287952Y-51792285D01*
X163335571Y-51839904D01*
X163430809Y-51887523D01*
%TO.C,R15*%
X162800380Y-48964357D02*
X162324190Y-49297690D01*
X162800380Y-49535785D02*
X161800380Y-49535785D01*
X161800380Y-49154833D01*
X161848000Y-49059595D01*
X161895619Y-49011976D01*
X161990857Y-48964357D01*
X162133714Y-48964357D01*
X162228952Y-49011976D01*
X162276571Y-49059595D01*
X162324190Y-49154833D01*
X162324190Y-49535785D01*
X162800380Y-48011976D02*
X162800380Y-48583404D01*
X162800380Y-48297690D02*
X161800380Y-48297690D01*
X161943238Y-48392928D01*
X162038476Y-48488166D01*
X162086095Y-48583404D01*
X161800380Y-47107214D02*
X161800380Y-47583404D01*
X162276571Y-47631023D01*
X162228952Y-47583404D01*
X162181333Y-47488166D01*
X162181333Y-47250071D01*
X162228952Y-47154833D01*
X162276571Y-47107214D01*
X162371809Y-47059595D01*
X162609904Y-47059595D01*
X162705142Y-47107214D01*
X162752761Y-47154833D01*
X162800380Y-47250071D01*
X162800380Y-47488166D01*
X162752761Y-47583404D01*
X162705142Y-47631023D01*
%TO.C,R14*%
X174109142Y-51972380D02*
X173775809Y-51496190D01*
X173537714Y-51972380D02*
X173537714Y-50972380D01*
X173918666Y-50972380D01*
X174013904Y-51020000D01*
X174061523Y-51067619D01*
X174109142Y-51162857D01*
X174109142Y-51305714D01*
X174061523Y-51400952D01*
X174013904Y-51448571D01*
X173918666Y-51496190D01*
X173537714Y-51496190D01*
X175061523Y-51972380D02*
X174490095Y-51972380D01*
X174775809Y-51972380D02*
X174775809Y-50972380D01*
X174680571Y-51115238D01*
X174585333Y-51210476D01*
X174490095Y-51258095D01*
X175918666Y-51305714D02*
X175918666Y-51972380D01*
X175680571Y-50924761D02*
X175442476Y-51639047D01*
X176061523Y-51639047D01*
%TO.C,R13*%
X146841380Y-80398857D02*
X146365190Y-80732190D01*
X146841380Y-80970285D02*
X145841380Y-80970285D01*
X145841380Y-80589333D01*
X145889000Y-80494095D01*
X145936619Y-80446476D01*
X146031857Y-80398857D01*
X146174714Y-80398857D01*
X146269952Y-80446476D01*
X146317571Y-80494095D01*
X146365190Y-80589333D01*
X146365190Y-80970285D01*
X146841380Y-79446476D02*
X146841380Y-80017904D01*
X146841380Y-79732190D02*
X145841380Y-79732190D01*
X145984238Y-79827428D01*
X146079476Y-79922666D01*
X146127095Y-80017904D01*
X145841380Y-79113142D02*
X145841380Y-78494095D01*
X146222333Y-78827428D01*
X146222333Y-78684571D01*
X146269952Y-78589333D01*
X146317571Y-78541714D01*
X146412809Y-78494095D01*
X146650904Y-78494095D01*
X146746142Y-78541714D01*
X146793761Y-78589333D01*
X146841380Y-78684571D01*
X146841380Y-78970285D01*
X146793761Y-79065523D01*
X146746142Y-79113142D01*
%TO.C,R12*%
X142777380Y-80271857D02*
X142301190Y-80605190D01*
X142777380Y-80843285D02*
X141777380Y-80843285D01*
X141777380Y-80462333D01*
X141825000Y-80367095D01*
X141872619Y-80319476D01*
X141967857Y-80271857D01*
X142110714Y-80271857D01*
X142205952Y-80319476D01*
X142253571Y-80367095D01*
X142301190Y-80462333D01*
X142301190Y-80843285D01*
X142777380Y-79319476D02*
X142777380Y-79890904D01*
X142777380Y-79605190D02*
X141777380Y-79605190D01*
X141920238Y-79700428D01*
X142015476Y-79795666D01*
X142063095Y-79890904D01*
X141872619Y-78938523D02*
X141825000Y-78890904D01*
X141777380Y-78795666D01*
X141777380Y-78557571D01*
X141825000Y-78462333D01*
X141872619Y-78414714D01*
X141967857Y-78367095D01*
X142063095Y-78367095D01*
X142205952Y-78414714D01*
X142777380Y-78986142D01*
X142777380Y-78367095D01*
%TO.C,R11*%
X111281380Y-39250857D02*
X110805190Y-39584190D01*
X111281380Y-39822285D02*
X110281380Y-39822285D01*
X110281380Y-39441333D01*
X110329000Y-39346095D01*
X110376619Y-39298476D01*
X110471857Y-39250857D01*
X110614714Y-39250857D01*
X110709952Y-39298476D01*
X110757571Y-39346095D01*
X110805190Y-39441333D01*
X110805190Y-39822285D01*
X111281380Y-38298476D02*
X111281380Y-38869904D01*
X111281380Y-38584190D02*
X110281380Y-38584190D01*
X110424238Y-38679428D01*
X110519476Y-38774666D01*
X110567095Y-38869904D01*
X111281380Y-37346095D02*
X111281380Y-37917523D01*
X111281380Y-37631809D02*
X110281380Y-37631809D01*
X110424238Y-37727047D01*
X110519476Y-37822285D01*
X110567095Y-37917523D01*
%TO.C,R10*%
X106412380Y-53982857D02*
X105936190Y-54316190D01*
X106412380Y-54554285D02*
X105412380Y-54554285D01*
X105412380Y-54173333D01*
X105460000Y-54078095D01*
X105507619Y-54030476D01*
X105602857Y-53982857D01*
X105745714Y-53982857D01*
X105840952Y-54030476D01*
X105888571Y-54078095D01*
X105936190Y-54173333D01*
X105936190Y-54554285D01*
X106412380Y-53030476D02*
X106412380Y-53601904D01*
X106412380Y-53316190D02*
X105412380Y-53316190D01*
X105555238Y-53411428D01*
X105650476Y-53506666D01*
X105698095Y-53601904D01*
X105412380Y-52411428D02*
X105412380Y-52316190D01*
X105460000Y-52220952D01*
X105507619Y-52173333D01*
X105602857Y-52125714D01*
X105793333Y-52078095D01*
X106031428Y-52078095D01*
X106221904Y-52125714D01*
X106317142Y-52173333D01*
X106364761Y-52220952D01*
X106412380Y-52316190D01*
X106412380Y-52411428D01*
X106364761Y-52506666D01*
X106317142Y-52554285D01*
X106221904Y-52601904D01*
X106031428Y-52649523D01*
X105793333Y-52649523D01*
X105602857Y-52601904D01*
X105507619Y-52554285D01*
X105460000Y-52506666D01*
X105412380Y-52411428D01*
%TO.C,R9*%
X91723380Y-49823666D02*
X91247190Y-50157000D01*
X91723380Y-50395095D02*
X90723380Y-50395095D01*
X90723380Y-50014142D01*
X90771000Y-49918904D01*
X90818619Y-49871285D01*
X90913857Y-49823666D01*
X91056714Y-49823666D01*
X91151952Y-49871285D01*
X91199571Y-49918904D01*
X91247190Y-50014142D01*
X91247190Y-50395095D01*
X91723380Y-49347476D02*
X91723380Y-49157000D01*
X91675761Y-49061761D01*
X91628142Y-49014142D01*
X91485285Y-48918904D01*
X91294809Y-48871285D01*
X90913857Y-48871285D01*
X90818619Y-48918904D01*
X90771000Y-48966523D01*
X90723380Y-49061761D01*
X90723380Y-49252238D01*
X90771000Y-49347476D01*
X90818619Y-49395095D01*
X90913857Y-49442714D01*
X91151952Y-49442714D01*
X91247190Y-49395095D01*
X91294809Y-49347476D01*
X91342428Y-49252238D01*
X91342428Y-49061761D01*
X91294809Y-48966523D01*
X91247190Y-48918904D01*
X91151952Y-48871285D01*
%TO.C,R8*%
X94194333Y-32668380D02*
X93861000Y-32192190D01*
X93622904Y-32668380D02*
X93622904Y-31668380D01*
X94003857Y-31668380D01*
X94099095Y-31716000D01*
X94146714Y-31763619D01*
X94194333Y-31858857D01*
X94194333Y-32001714D01*
X94146714Y-32096952D01*
X94099095Y-32144571D01*
X94003857Y-32192190D01*
X93622904Y-32192190D01*
X94765761Y-32096952D02*
X94670523Y-32049333D01*
X94622904Y-32001714D01*
X94575285Y-31906476D01*
X94575285Y-31858857D01*
X94622904Y-31763619D01*
X94670523Y-31716000D01*
X94765761Y-31668380D01*
X94956238Y-31668380D01*
X95051476Y-31716000D01*
X95099095Y-31763619D01*
X95146714Y-31858857D01*
X95146714Y-31906476D01*
X95099095Y-32001714D01*
X95051476Y-32049333D01*
X94956238Y-32096952D01*
X94765761Y-32096952D01*
X94670523Y-32144571D01*
X94622904Y-32192190D01*
X94575285Y-32287428D01*
X94575285Y-32477904D01*
X94622904Y-32573142D01*
X94670523Y-32620761D01*
X94765761Y-32668380D01*
X94956238Y-32668380D01*
X95051476Y-32620761D01*
X95099095Y-32573142D01*
X95146714Y-32477904D01*
X95146714Y-32287428D01*
X95099095Y-32192190D01*
X95051476Y-32144571D01*
X94956238Y-32096952D01*
%TO.C,R7*%
X91527333Y-52226380D02*
X91194000Y-51750190D01*
X90955904Y-52226380D02*
X90955904Y-51226380D01*
X91336857Y-51226380D01*
X91432095Y-51274000D01*
X91479714Y-51321619D01*
X91527333Y-51416857D01*
X91527333Y-51559714D01*
X91479714Y-51654952D01*
X91432095Y-51702571D01*
X91336857Y-51750190D01*
X90955904Y-51750190D01*
X91860666Y-51226380D02*
X92527333Y-51226380D01*
X92098761Y-52226380D01*
%TO.C,R6*%
X93120380Y-81827666D02*
X92644190Y-82161000D01*
X93120380Y-82399095D02*
X92120380Y-82399095D01*
X92120380Y-82018142D01*
X92168000Y-81922904D01*
X92215619Y-81875285D01*
X92310857Y-81827666D01*
X92453714Y-81827666D01*
X92548952Y-81875285D01*
X92596571Y-81922904D01*
X92644190Y-82018142D01*
X92644190Y-82399095D01*
X92120380Y-80970523D02*
X92120380Y-81161000D01*
X92168000Y-81256238D01*
X92215619Y-81303857D01*
X92358476Y-81399095D01*
X92548952Y-81446714D01*
X92929904Y-81446714D01*
X93025142Y-81399095D01*
X93072761Y-81351476D01*
X93120380Y-81256238D01*
X93120380Y-81065761D01*
X93072761Y-80970523D01*
X93025142Y-80922904D01*
X92929904Y-80875285D01*
X92691809Y-80875285D01*
X92596571Y-80922904D01*
X92548952Y-80970523D01*
X92501333Y-81065761D01*
X92501333Y-81256238D01*
X92548952Y-81351476D01*
X92596571Y-81399095D01*
X92691809Y-81446714D01*
%TO.C,R5*%
X99681380Y-70524666D02*
X99205190Y-70858000D01*
X99681380Y-71096095D02*
X98681380Y-71096095D01*
X98681380Y-70715142D01*
X98729000Y-70619904D01*
X98776619Y-70572285D01*
X98871857Y-70524666D01*
X99014714Y-70524666D01*
X99109952Y-70572285D01*
X99157571Y-70619904D01*
X99205190Y-70715142D01*
X99205190Y-71096095D01*
X98681380Y-69619904D02*
X98681380Y-70096095D01*
X99157571Y-70143714D01*
X99109952Y-70096095D01*
X99062333Y-70000857D01*
X99062333Y-69762761D01*
X99109952Y-69667523D01*
X99157571Y-69619904D01*
X99252809Y-69572285D01*
X99490904Y-69572285D01*
X99586142Y-69619904D01*
X99633761Y-69667523D01*
X99681380Y-69762761D01*
X99681380Y-70000857D01*
X99633761Y-70096095D01*
X99586142Y-70143714D01*
%TO.C,R4*%
X92188380Y-49758166D02*
X91712190Y-50091500D01*
X92188380Y-50329595D02*
X91188380Y-50329595D01*
X91188380Y-49948642D01*
X91236000Y-49853404D01*
X91283619Y-49805785D01*
X91378857Y-49758166D01*
X91521714Y-49758166D01*
X91616952Y-49805785D01*
X91664571Y-49853404D01*
X91712190Y-49948642D01*
X91712190Y-50329595D01*
X91521714Y-48901023D02*
X92188380Y-48901023D01*
X91140761Y-49139119D02*
X91855047Y-49377214D01*
X91855047Y-48758166D01*
%TO.C,R3*%
X88505380Y-49823666D02*
X88029190Y-50157000D01*
X88505380Y-50395095D02*
X87505380Y-50395095D01*
X87505380Y-50014142D01*
X87553000Y-49918904D01*
X87600619Y-49871285D01*
X87695857Y-49823666D01*
X87838714Y-49823666D01*
X87933952Y-49871285D01*
X87981571Y-49918904D01*
X88029190Y-50014142D01*
X88029190Y-50395095D01*
X87505380Y-49490333D02*
X87505380Y-48871285D01*
X87886333Y-49204619D01*
X87886333Y-49061761D01*
X87933952Y-48966523D01*
X87981571Y-48918904D01*
X88076809Y-48871285D01*
X88314904Y-48871285D01*
X88410142Y-48918904D01*
X88457761Y-48966523D01*
X88505380Y-49061761D01*
X88505380Y-49347476D01*
X88457761Y-49442714D01*
X88410142Y-49490333D01*
%TO.C,R2*%
X84865380Y-65571666D02*
X84389190Y-65905000D01*
X84865380Y-66143095D02*
X83865380Y-66143095D01*
X83865380Y-65762142D01*
X83913000Y-65666904D01*
X83960619Y-65619285D01*
X84055857Y-65571666D01*
X84198714Y-65571666D01*
X84293952Y-65619285D01*
X84341571Y-65666904D01*
X84389190Y-65762142D01*
X84389190Y-66143095D01*
X83960619Y-65190714D02*
X83913000Y-65143095D01*
X83865380Y-65047857D01*
X83865380Y-64809761D01*
X83913000Y-64714523D01*
X83960619Y-64666904D01*
X84055857Y-64619285D01*
X84151095Y-64619285D01*
X84293952Y-64666904D01*
X84865380Y-65238333D01*
X84865380Y-64619285D01*
%TO.C,R1*%
X80293380Y-71602166D02*
X79817190Y-71935500D01*
X80293380Y-72173595D02*
X79293380Y-72173595D01*
X79293380Y-71792642D01*
X79341000Y-71697404D01*
X79388619Y-71649785D01*
X79483857Y-71602166D01*
X79626714Y-71602166D01*
X79721952Y-71649785D01*
X79769571Y-71697404D01*
X79817190Y-71792642D01*
X79817190Y-72173595D01*
X80293380Y-70649785D02*
X80293380Y-71221214D01*
X80293380Y-70935500D02*
X79293380Y-70935500D01*
X79436238Y-71030738D01*
X79531476Y-71125976D01*
X79579095Y-71221214D01*
%TO.C,L3*%
X138163380Y-82843666D02*
X138163380Y-83319857D01*
X137163380Y-83319857D01*
X137163380Y-82605571D02*
X137163380Y-81986523D01*
X137544333Y-82319857D01*
X137544333Y-82177000D01*
X137591952Y-82081761D01*
X137639571Y-82034142D01*
X137734809Y-81986523D01*
X137972904Y-81986523D01*
X138068142Y-82034142D01*
X138115761Y-82081761D01*
X138163380Y-82177000D01*
X138163380Y-82462714D01*
X138115761Y-82557952D01*
X138068142Y-82605571D01*
%TO.C,L2*%
X144554380Y-32932666D02*
X144554380Y-33408857D01*
X143554380Y-33408857D01*
X143649619Y-32646952D02*
X143602000Y-32599333D01*
X143554380Y-32504095D01*
X143554380Y-32266000D01*
X143602000Y-32170761D01*
X143649619Y-32123142D01*
X143744857Y-32075523D01*
X143840095Y-32075523D01*
X143982952Y-32123142D01*
X144554380Y-32694571D01*
X144554380Y-32075523D01*
%TO.C,L1*%
X75171380Y-86145666D02*
X75171380Y-86621857D01*
X74171380Y-86621857D01*
X75171380Y-85288523D02*
X75171380Y-85859952D01*
X75171380Y-85574238D02*
X74171380Y-85574238D01*
X74314238Y-85669476D01*
X74409476Y-85764714D01*
X74457095Y-85859952D01*
%TO.C,J17*%
X124696476Y-29502380D02*
X124696476Y-30216666D01*
X124648857Y-30359523D01*
X124553619Y-30454761D01*
X124410761Y-30502380D01*
X124315523Y-30502380D01*
X125696476Y-30502380D02*
X125125047Y-30502380D01*
X125410761Y-30502380D02*
X125410761Y-29502380D01*
X125315523Y-29645238D01*
X125220285Y-29740476D01*
X125125047Y-29788095D01*
X126029809Y-29502380D02*
X126696476Y-29502380D01*
X126267904Y-30502380D01*
%TO.C,J16*%
X183213476Y-43978380D02*
X183213476Y-44692666D01*
X183165857Y-44835523D01*
X183070619Y-44930761D01*
X182927761Y-44978380D01*
X182832523Y-44978380D01*
X184213476Y-44978380D02*
X183642047Y-44978380D01*
X183927761Y-44978380D02*
X183927761Y-43978380D01*
X183832523Y-44121238D01*
X183737285Y-44216476D01*
X183642047Y-44264095D01*
X185070619Y-43978380D02*
X184880142Y-43978380D01*
X184784904Y-44026000D01*
X184737285Y-44073619D01*
X184642047Y-44216476D01*
X184594428Y-44406952D01*
X184594428Y-44787904D01*
X184642047Y-44883142D01*
X184689666Y-44930761D01*
X184784904Y-44978380D01*
X184975380Y-44978380D01*
X185070619Y-44930761D01*
X185118238Y-44883142D01*
X185165857Y-44787904D01*
X185165857Y-44549809D01*
X185118238Y-44454571D01*
X185070619Y-44406952D01*
X184975380Y-44359333D01*
X184784904Y-44359333D01*
X184689666Y-44406952D01*
X184642047Y-44454571D01*
X184594428Y-44549809D01*
%TO.C,J15*%
X178641476Y-37782380D02*
X178641476Y-38496666D01*
X178593857Y-38639523D01*
X178498619Y-38734761D01*
X178355761Y-38782380D01*
X178260523Y-38782380D01*
X179641476Y-38782380D02*
X179070047Y-38782380D01*
X179355761Y-38782380D02*
X179355761Y-37782380D01*
X179260523Y-37925238D01*
X179165285Y-38020476D01*
X179070047Y-38068095D01*
X180546238Y-37782380D02*
X180070047Y-37782380D01*
X180022428Y-38258571D01*
X180070047Y-38210952D01*
X180165285Y-38163333D01*
X180403380Y-38163333D01*
X180498619Y-38210952D01*
X180546238Y-38258571D01*
X180593857Y-38353809D01*
X180593857Y-38591904D01*
X180546238Y-38687142D01*
X180498619Y-38734761D01*
X180403380Y-38782380D01*
X180165285Y-38782380D01*
X180070047Y-38734761D01*
X180022428Y-38687142D01*
%TO.C,J14*%
X168354476Y-52133380D02*
X168354476Y-52847666D01*
X168306857Y-52990523D01*
X168211619Y-53085761D01*
X168068761Y-53133380D01*
X167973523Y-53133380D01*
X169354476Y-53133380D02*
X168783047Y-53133380D01*
X169068761Y-53133380D02*
X169068761Y-52133380D01*
X168973523Y-52276238D01*
X168878285Y-52371476D01*
X168783047Y-52419095D01*
X170211619Y-52466714D02*
X170211619Y-53133380D01*
X169973523Y-52085761D02*
X169735428Y-52800047D01*
X170354476Y-52800047D01*
%TO.C,J13*%
X158734380Y-23923523D02*
X159448666Y-23923523D01*
X159591523Y-23971142D01*
X159686761Y-24066380D01*
X159734380Y-24209238D01*
X159734380Y-24304476D01*
X159734380Y-22923523D02*
X159734380Y-23494952D01*
X159734380Y-23209238D02*
X158734380Y-23209238D01*
X158877238Y-23304476D01*
X158972476Y-23399714D01*
X159020095Y-23494952D01*
X158734380Y-22590190D02*
X158734380Y-21971142D01*
X159115333Y-22304476D01*
X159115333Y-22161619D01*
X159162952Y-22066380D01*
X159210571Y-22018761D01*
X159305809Y-21971142D01*
X159543904Y-21971142D01*
X159639142Y-22018761D01*
X159686761Y-22066380D01*
X159734380Y-22161619D01*
X159734380Y-22447333D01*
X159686761Y-22542571D01*
X159639142Y-22590190D01*
%TO.C,J12*%
X151574380Y-23669523D02*
X152288666Y-23669523D01*
X152431523Y-23717142D01*
X152526761Y-23812380D01*
X152574380Y-23955238D01*
X152574380Y-24050476D01*
X152574380Y-22669523D02*
X152574380Y-23240952D01*
X152574380Y-22955238D02*
X151574380Y-22955238D01*
X151717238Y-23050476D01*
X151812476Y-23145714D01*
X151860095Y-23240952D01*
X151669619Y-22288571D02*
X151622000Y-22240952D01*
X151574380Y-22145714D01*
X151574380Y-21907619D01*
X151622000Y-21812380D01*
X151669619Y-21764761D01*
X151764857Y-21717142D01*
X151860095Y-21717142D01*
X152002952Y-21764761D01*
X152574380Y-22336190D01*
X152574380Y-21717142D01*
%TO.C,J11*%
X142478380Y-38655523D02*
X143192666Y-38655523D01*
X143335523Y-38703142D01*
X143430761Y-38798380D01*
X143478380Y-38941238D01*
X143478380Y-39036476D01*
X143478380Y-37655523D02*
X143478380Y-38226952D01*
X143478380Y-37941238D02*
X142478380Y-37941238D01*
X142621238Y-38036476D01*
X142716476Y-38131714D01*
X142764095Y-38226952D01*
X143478380Y-36703142D02*
X143478380Y-37274571D01*
X143478380Y-36988857D02*
X142478380Y-36988857D01*
X142621238Y-37084095D01*
X142716476Y-37179333D01*
X142764095Y-37274571D01*
%TO.C,J10*%
X145113476Y-42529380D02*
X145113476Y-43243666D01*
X145065857Y-43386523D01*
X144970619Y-43481761D01*
X144827761Y-43529380D01*
X144732523Y-43529380D01*
X146113476Y-43529380D02*
X145542047Y-43529380D01*
X145827761Y-43529380D02*
X145827761Y-42529380D01*
X145732523Y-42672238D01*
X145637285Y-42767476D01*
X145542047Y-42815095D01*
X146732523Y-42529380D02*
X146827761Y-42529380D01*
X146923000Y-42577000D01*
X146970619Y-42624619D01*
X147018238Y-42719857D01*
X147065857Y-42910333D01*
X147065857Y-43148428D01*
X147018238Y-43338904D01*
X146970619Y-43434142D01*
X146923000Y-43481761D01*
X146827761Y-43529380D01*
X146732523Y-43529380D01*
X146637285Y-43481761D01*
X146589666Y-43434142D01*
X146542047Y-43338904D01*
X146494428Y-43148428D01*
X146494428Y-42910333D01*
X146542047Y-42719857D01*
X146589666Y-42624619D01*
X146637285Y-42577000D01*
X146732523Y-42529380D01*
%TO.C,J9*%
X161099380Y-53292333D02*
X161813666Y-53292333D01*
X161956523Y-53339952D01*
X162051761Y-53435190D01*
X162099380Y-53578047D01*
X162099380Y-53673285D01*
X162099380Y-52768523D02*
X162099380Y-52578047D01*
X162051761Y-52482809D01*
X162004142Y-52435190D01*
X161861285Y-52339952D01*
X161670809Y-52292333D01*
X161289857Y-52292333D01*
X161194619Y-52339952D01*
X161147000Y-52387571D01*
X161099380Y-52482809D01*
X161099380Y-52673285D01*
X161147000Y-52768523D01*
X161194619Y-52816142D01*
X161289857Y-52863761D01*
X161527952Y-52863761D01*
X161623190Y-52816142D01*
X161670809Y-52768523D01*
X161718428Y-52673285D01*
X161718428Y-52482809D01*
X161670809Y-52387571D01*
X161623190Y-52339952D01*
X161527952Y-52292333D01*
%TO.C,J8*%
X161099380Y-57737333D02*
X161813666Y-57737333D01*
X161956523Y-57784952D01*
X162051761Y-57880190D01*
X162099380Y-58023047D01*
X162099380Y-58118285D01*
X161527952Y-57118285D02*
X161480333Y-57213523D01*
X161432714Y-57261142D01*
X161337476Y-57308761D01*
X161289857Y-57308761D01*
X161194619Y-57261142D01*
X161147000Y-57213523D01*
X161099380Y-57118285D01*
X161099380Y-56927809D01*
X161147000Y-56832571D01*
X161194619Y-56784952D01*
X161289857Y-56737333D01*
X161337476Y-56737333D01*
X161432714Y-56784952D01*
X161480333Y-56832571D01*
X161527952Y-56927809D01*
X161527952Y-57118285D01*
X161575571Y-57213523D01*
X161623190Y-57261142D01*
X161718428Y-57308761D01*
X161908904Y-57308761D01*
X162004142Y-57261142D01*
X162051761Y-57213523D01*
X162099380Y-57118285D01*
X162099380Y-56927809D01*
X162051761Y-56832571D01*
X162004142Y-56784952D01*
X161908904Y-56737333D01*
X161718428Y-56737333D01*
X161623190Y-56784952D01*
X161575571Y-56832571D01*
X161527952Y-56927809D01*
%TO.C,J7*%
X164258666Y-62722380D02*
X164258666Y-63436666D01*
X164211047Y-63579523D01*
X164115809Y-63674761D01*
X163972952Y-63722380D01*
X163877714Y-63722380D01*
X164639619Y-62722380D02*
X165306285Y-62722380D01*
X164877714Y-63722380D01*
%TO.C,J6*%
X183562666Y-84110380D02*
X183562666Y-84824666D01*
X183515047Y-84967523D01*
X183419809Y-85062761D01*
X183276952Y-85110380D01*
X183181714Y-85110380D01*
X184467428Y-84110380D02*
X184276952Y-84110380D01*
X184181714Y-84158000D01*
X184134095Y-84205619D01*
X184038857Y-84348476D01*
X183991238Y-84538952D01*
X183991238Y-84919904D01*
X184038857Y-85015142D01*
X184086476Y-85062761D01*
X184181714Y-85110380D01*
X184372190Y-85110380D01*
X184467428Y-85062761D01*
X184515047Y-85015142D01*
X184562666Y-84919904D01*
X184562666Y-84681809D01*
X184515047Y-84586571D01*
X184467428Y-84538952D01*
X184372190Y-84491333D01*
X184181714Y-84491333D01*
X184086476Y-84538952D01*
X184038857Y-84586571D01*
X183991238Y-84681809D01*
%TO.C,J5*%
X178990666Y-79819380D02*
X178990666Y-80533666D01*
X178943047Y-80676523D01*
X178847809Y-80771761D01*
X178704952Y-80819380D01*
X178609714Y-80819380D01*
X179943047Y-79819380D02*
X179466857Y-79819380D01*
X179419238Y-80295571D01*
X179466857Y-80247952D01*
X179562095Y-80200333D01*
X179800190Y-80200333D01*
X179895428Y-80247952D01*
X179943047Y-80295571D01*
X179990666Y-80390809D01*
X179990666Y-80628904D01*
X179943047Y-80724142D01*
X179895428Y-80771761D01*
X179800190Y-80819380D01*
X179562095Y-80819380D01*
X179466857Y-80771761D01*
X179419238Y-80724142D01*
%TO.C,J3*%
X102379666Y-90814380D02*
X102379666Y-91528666D01*
X102332047Y-91671523D01*
X102236809Y-91766761D01*
X102093952Y-91814380D01*
X101998714Y-91814380D01*
X102760619Y-90814380D02*
X103379666Y-90814380D01*
X103046333Y-91195333D01*
X103189190Y-91195333D01*
X103284428Y-91242952D01*
X103332047Y-91290571D01*
X103379666Y-91385809D01*
X103379666Y-91623904D01*
X103332047Y-91719142D01*
X103284428Y-91766761D01*
X103189190Y-91814380D01*
X102903476Y-91814380D01*
X102808238Y-91766761D01*
X102760619Y-91719142D01*
%TO.C,J1*%
X79422666Y-54062380D02*
X79422666Y-54776666D01*
X79375047Y-54919523D01*
X79279809Y-55014761D01*
X79136952Y-55062380D01*
X79041714Y-55062380D01*
X80422666Y-55062380D02*
X79851238Y-55062380D01*
X80136952Y-55062380D02*
X80136952Y-54062380D01*
X80041714Y-54205238D01*
X79946476Y-54300476D01*
X79851238Y-54348095D01*
%TO.C,H2*%
X186690095Y-18796380D02*
X186690095Y-17796380D01*
X186690095Y-18272571D02*
X187261523Y-18272571D01*
X187261523Y-18796380D02*
X187261523Y-17796380D01*
X187690095Y-17891619D02*
X187737714Y-17844000D01*
X187832952Y-17796380D01*
X188071047Y-17796380D01*
X188166285Y-17844000D01*
X188213904Y-17891619D01*
X188261523Y-17986857D01*
X188261523Y-18082095D01*
X188213904Y-18224952D01*
X187642476Y-18796380D01*
X188261523Y-18796380D01*
%TO.C,H1*%
X70485095Y-95631380D02*
X70485095Y-94631380D01*
X70485095Y-95107571D02*
X71056523Y-95107571D01*
X71056523Y-95631380D02*
X71056523Y-94631380D01*
X72056523Y-95631380D02*
X71485095Y-95631380D01*
X71770809Y-95631380D02*
X71770809Y-94631380D01*
X71675571Y-94774238D01*
X71580333Y-94869476D01*
X71485095Y-94917095D01*
%TO.C,C24*%
X173831642Y-47094142D02*
X173784023Y-47141761D01*
X173641166Y-47189380D01*
X173545928Y-47189380D01*
X173403071Y-47141761D01*
X173307833Y-47046523D01*
X173260214Y-46951285D01*
X173212595Y-46760809D01*
X173212595Y-46617952D01*
X173260214Y-46427476D01*
X173307833Y-46332238D01*
X173403071Y-46237000D01*
X173545928Y-46189380D01*
X173641166Y-46189380D01*
X173784023Y-46237000D01*
X173831642Y-46284619D01*
X174212595Y-46284619D02*
X174260214Y-46237000D01*
X174355452Y-46189380D01*
X174593547Y-46189380D01*
X174688785Y-46237000D01*
X174736404Y-46284619D01*
X174784023Y-46379857D01*
X174784023Y-46475095D01*
X174736404Y-46617952D01*
X174164976Y-47189380D01*
X174784023Y-47189380D01*
X175641166Y-46522714D02*
X175641166Y-47189380D01*
X175403071Y-46141761D02*
X175164976Y-46856047D01*
X175784023Y-46856047D01*
%TO.C,C23*%
X154536142Y-49434357D02*
X154583761Y-49481976D01*
X154631380Y-49624833D01*
X154631380Y-49720071D01*
X154583761Y-49862928D01*
X154488523Y-49958166D01*
X154393285Y-50005785D01*
X154202809Y-50053404D01*
X154059952Y-50053404D01*
X153869476Y-50005785D01*
X153774238Y-49958166D01*
X153679000Y-49862928D01*
X153631380Y-49720071D01*
X153631380Y-49624833D01*
X153679000Y-49481976D01*
X153726619Y-49434357D01*
X153726619Y-49053404D02*
X153679000Y-49005785D01*
X153631380Y-48910547D01*
X153631380Y-48672452D01*
X153679000Y-48577214D01*
X153726619Y-48529595D01*
X153821857Y-48481976D01*
X153917095Y-48481976D01*
X154059952Y-48529595D01*
X154631380Y-49101023D01*
X154631380Y-48481976D01*
X153631380Y-48148642D02*
X153631380Y-47529595D01*
X154012333Y-47862928D01*
X154012333Y-47720071D01*
X154059952Y-47624833D01*
X154107571Y-47577214D01*
X154202809Y-47529595D01*
X154440904Y-47529595D01*
X154536142Y-47577214D01*
X154583761Y-47624833D01*
X154631380Y-47720071D01*
X154631380Y-48005785D01*
X154583761Y-48101023D01*
X154536142Y-48148642D01*
%TO.C,C22*%
X144630142Y-42576357D02*
X144677761Y-42623976D01*
X144725380Y-42766833D01*
X144725380Y-42862071D01*
X144677761Y-43004928D01*
X144582523Y-43100166D01*
X144487285Y-43147785D01*
X144296809Y-43195404D01*
X144153952Y-43195404D01*
X143963476Y-43147785D01*
X143868238Y-43100166D01*
X143773000Y-43004928D01*
X143725380Y-42862071D01*
X143725380Y-42766833D01*
X143773000Y-42623976D01*
X143820619Y-42576357D01*
X143820619Y-42195404D02*
X143773000Y-42147785D01*
X143725380Y-42052547D01*
X143725380Y-41814452D01*
X143773000Y-41719214D01*
X143820619Y-41671595D01*
X143915857Y-41623976D01*
X144011095Y-41623976D01*
X144153952Y-41671595D01*
X144725380Y-42243023D01*
X144725380Y-41623976D01*
X143820619Y-41243023D02*
X143773000Y-41195404D01*
X143725380Y-41100166D01*
X143725380Y-40862071D01*
X143773000Y-40766833D01*
X143820619Y-40719214D01*
X143915857Y-40671595D01*
X144011095Y-40671595D01*
X144153952Y-40719214D01*
X144725380Y-41290642D01*
X144725380Y-40671595D01*
%TO.C,C21*%
X164821142Y-49537857D02*
X164868761Y-49585476D01*
X164916380Y-49728333D01*
X164916380Y-49823571D01*
X164868761Y-49966428D01*
X164773523Y-50061666D01*
X164678285Y-50109285D01*
X164487809Y-50156904D01*
X164344952Y-50156904D01*
X164154476Y-50109285D01*
X164059238Y-50061666D01*
X163964000Y-49966428D01*
X163916380Y-49823571D01*
X163916380Y-49728333D01*
X163964000Y-49585476D01*
X164011619Y-49537857D01*
X164011619Y-49156904D02*
X163964000Y-49109285D01*
X163916380Y-49014047D01*
X163916380Y-48775952D01*
X163964000Y-48680714D01*
X164011619Y-48633095D01*
X164106857Y-48585476D01*
X164202095Y-48585476D01*
X164344952Y-48633095D01*
X164916380Y-49204523D01*
X164916380Y-48585476D01*
X164916380Y-47633095D02*
X164916380Y-48204523D01*
X164916380Y-47918809D02*
X163916380Y-47918809D01*
X164059238Y-48014047D01*
X164154476Y-48109285D01*
X164202095Y-48204523D01*
%TO.C,C20*%
X173855142Y-49380142D02*
X173807523Y-49427761D01*
X173664666Y-49475380D01*
X173569428Y-49475380D01*
X173426571Y-49427761D01*
X173331333Y-49332523D01*
X173283714Y-49237285D01*
X173236095Y-49046809D01*
X173236095Y-48903952D01*
X173283714Y-48713476D01*
X173331333Y-48618238D01*
X173426571Y-48523000D01*
X173569428Y-48475380D01*
X173664666Y-48475380D01*
X173807523Y-48523000D01*
X173855142Y-48570619D01*
X174236095Y-48570619D02*
X174283714Y-48523000D01*
X174378952Y-48475380D01*
X174617047Y-48475380D01*
X174712285Y-48523000D01*
X174759904Y-48570619D01*
X174807523Y-48665857D01*
X174807523Y-48761095D01*
X174759904Y-48903952D01*
X174188476Y-49475380D01*
X174807523Y-49475380D01*
X175426571Y-48475380D02*
X175521809Y-48475380D01*
X175617047Y-48523000D01*
X175664666Y-48570619D01*
X175712285Y-48665857D01*
X175759904Y-48856333D01*
X175759904Y-49094428D01*
X175712285Y-49284904D01*
X175664666Y-49380142D01*
X175617047Y-49427761D01*
X175521809Y-49475380D01*
X175426571Y-49475380D01*
X175331333Y-49427761D01*
X175283714Y-49380142D01*
X175236095Y-49284904D01*
X175188476Y-49094428D01*
X175188476Y-48856333D01*
X175236095Y-48665857D01*
X175283714Y-48570619D01*
X175331333Y-48523000D01*
X175426571Y-48475380D01*
%TO.C,C19*%
X153774142Y-33281857D02*
X153821761Y-33329476D01*
X153869380Y-33472333D01*
X153869380Y-33567571D01*
X153821761Y-33710428D01*
X153726523Y-33805666D01*
X153631285Y-33853285D01*
X153440809Y-33900904D01*
X153297952Y-33900904D01*
X153107476Y-33853285D01*
X153012238Y-33805666D01*
X152917000Y-33710428D01*
X152869380Y-33567571D01*
X152869380Y-33472333D01*
X152917000Y-33329476D01*
X152964619Y-33281857D01*
X153869380Y-32329476D02*
X153869380Y-32900904D01*
X153869380Y-32615190D02*
X152869380Y-32615190D01*
X153012238Y-32710428D01*
X153107476Y-32805666D01*
X153155095Y-32900904D01*
X153869380Y-31853285D02*
X153869380Y-31662809D01*
X153821761Y-31567571D01*
X153774142Y-31519952D01*
X153631285Y-31424714D01*
X153440809Y-31377095D01*
X153059857Y-31377095D01*
X152964619Y-31424714D01*
X152917000Y-31472333D01*
X152869380Y-31567571D01*
X152869380Y-31758047D01*
X152917000Y-31853285D01*
X152964619Y-31900904D01*
X153059857Y-31948523D01*
X153297952Y-31948523D01*
X153393190Y-31900904D01*
X153440809Y-31853285D01*
X153488428Y-31758047D01*
X153488428Y-31567571D01*
X153440809Y-31472333D01*
X153393190Y-31424714D01*
X153297952Y-31377095D01*
%TO.C,C18*%
X166980142Y-28559357D02*
X167027761Y-28606976D01*
X167075380Y-28749833D01*
X167075380Y-28845071D01*
X167027761Y-28987928D01*
X166932523Y-29083166D01*
X166837285Y-29130785D01*
X166646809Y-29178404D01*
X166503952Y-29178404D01*
X166313476Y-29130785D01*
X166218238Y-29083166D01*
X166123000Y-28987928D01*
X166075380Y-28845071D01*
X166075380Y-28749833D01*
X166123000Y-28606976D01*
X166170619Y-28559357D01*
X167075380Y-27606976D02*
X167075380Y-28178404D01*
X167075380Y-27892690D02*
X166075380Y-27892690D01*
X166218238Y-27987928D01*
X166313476Y-28083166D01*
X166361095Y-28178404D01*
X166503952Y-27035547D02*
X166456333Y-27130785D01*
X166408714Y-27178404D01*
X166313476Y-27226023D01*
X166265857Y-27226023D01*
X166170619Y-27178404D01*
X166123000Y-27130785D01*
X166075380Y-27035547D01*
X166075380Y-26845071D01*
X166123000Y-26749833D01*
X166170619Y-26702214D01*
X166265857Y-26654595D01*
X166313476Y-26654595D01*
X166408714Y-26702214D01*
X166456333Y-26749833D01*
X166503952Y-26845071D01*
X166503952Y-27035547D01*
X166551571Y-27130785D01*
X166599190Y-27178404D01*
X166694428Y-27226023D01*
X166884904Y-27226023D01*
X166980142Y-27178404D01*
X167027761Y-27130785D01*
X167075380Y-27035547D01*
X167075380Y-26845071D01*
X167027761Y-26749833D01*
X166980142Y-26702214D01*
X166884904Y-26654595D01*
X166694428Y-26654595D01*
X166599190Y-26702214D01*
X166551571Y-26749833D01*
X166503952Y-26845071D01*
%TO.C,C15*%
X154153142Y-87764857D02*
X154200761Y-87812476D01*
X154248380Y-87955333D01*
X154248380Y-88050571D01*
X154200761Y-88193428D01*
X154105523Y-88288666D01*
X154010285Y-88336285D01*
X153819809Y-88383904D01*
X153676952Y-88383904D01*
X153486476Y-88336285D01*
X153391238Y-88288666D01*
X153296000Y-88193428D01*
X153248380Y-88050571D01*
X153248380Y-87955333D01*
X153296000Y-87812476D01*
X153343619Y-87764857D01*
X154248380Y-86812476D02*
X154248380Y-87383904D01*
X154248380Y-87098190D02*
X153248380Y-87098190D01*
X153391238Y-87193428D01*
X153486476Y-87288666D01*
X153534095Y-87383904D01*
X153248380Y-85907714D02*
X153248380Y-86383904D01*
X153724571Y-86431523D01*
X153676952Y-86383904D01*
X153629333Y-86288666D01*
X153629333Y-86050571D01*
X153676952Y-85955333D01*
X153724571Y-85907714D01*
X153819809Y-85860095D01*
X154057904Y-85860095D01*
X154153142Y-85907714D01*
X154200761Y-85955333D01*
X154248380Y-86050571D01*
X154248380Y-86288666D01*
X154200761Y-86383904D01*
X154153142Y-86431523D01*
%TO.C,C14*%
X149202142Y-30741857D02*
X149249761Y-30789476D01*
X149297380Y-30932333D01*
X149297380Y-31027571D01*
X149249761Y-31170428D01*
X149154523Y-31265666D01*
X149059285Y-31313285D01*
X148868809Y-31360904D01*
X148725952Y-31360904D01*
X148535476Y-31313285D01*
X148440238Y-31265666D01*
X148345000Y-31170428D01*
X148297380Y-31027571D01*
X148297380Y-30932333D01*
X148345000Y-30789476D01*
X148392619Y-30741857D01*
X149297380Y-29789476D02*
X149297380Y-30360904D01*
X149297380Y-30075190D02*
X148297380Y-30075190D01*
X148440238Y-30170428D01*
X148535476Y-30265666D01*
X148583095Y-30360904D01*
X148630714Y-28932333D02*
X149297380Y-28932333D01*
X148249761Y-29170428D02*
X148964047Y-29408523D01*
X148964047Y-28789476D01*
%TO.C,C11*%
X108562142Y-38869857D02*
X108609761Y-38917476D01*
X108657380Y-39060333D01*
X108657380Y-39155571D01*
X108609761Y-39298428D01*
X108514523Y-39393666D01*
X108419285Y-39441285D01*
X108228809Y-39488904D01*
X108085952Y-39488904D01*
X107895476Y-39441285D01*
X107800238Y-39393666D01*
X107705000Y-39298428D01*
X107657380Y-39155571D01*
X107657380Y-39060333D01*
X107705000Y-38917476D01*
X107752619Y-38869857D01*
X108657380Y-37917476D02*
X108657380Y-38488904D01*
X108657380Y-38203190D02*
X107657380Y-38203190D01*
X107800238Y-38298428D01*
X107895476Y-38393666D01*
X107943095Y-38488904D01*
X108657380Y-36965095D02*
X108657380Y-37536523D01*
X108657380Y-37250809D02*
X107657380Y-37250809D01*
X107800238Y-37346047D01*
X107895476Y-37441285D01*
X107943095Y-37536523D01*
%TO.C,C10*%
X110343142Y-25428142D02*
X110295523Y-25475761D01*
X110152666Y-25523380D01*
X110057428Y-25523380D01*
X109914571Y-25475761D01*
X109819333Y-25380523D01*
X109771714Y-25285285D01*
X109724095Y-25094809D01*
X109724095Y-24951952D01*
X109771714Y-24761476D01*
X109819333Y-24666238D01*
X109914571Y-24571000D01*
X110057428Y-24523380D01*
X110152666Y-24523380D01*
X110295523Y-24571000D01*
X110343142Y-24618619D01*
X111295523Y-25523380D02*
X110724095Y-25523380D01*
X111009809Y-25523380D02*
X111009809Y-24523380D01*
X110914571Y-24666238D01*
X110819333Y-24761476D01*
X110724095Y-24809095D01*
X111914571Y-24523380D02*
X112009809Y-24523380D01*
X112105047Y-24571000D01*
X112152666Y-24618619D01*
X112200285Y-24713857D01*
X112247904Y-24904333D01*
X112247904Y-25142428D01*
X112200285Y-25332904D01*
X112152666Y-25428142D01*
X112105047Y-25475761D01*
X112009809Y-25523380D01*
X111914571Y-25523380D01*
X111819333Y-25475761D01*
X111771714Y-25428142D01*
X111724095Y-25332904D01*
X111676476Y-25142428D01*
X111676476Y-24904333D01*
X111724095Y-24713857D01*
X111771714Y-24618619D01*
X111819333Y-24571000D01*
X111914571Y-24523380D01*
%TO.C,C9*%
X81736333Y-86261142D02*
X81688714Y-86308761D01*
X81545857Y-86356380D01*
X81450619Y-86356380D01*
X81307761Y-86308761D01*
X81212523Y-86213523D01*
X81164904Y-86118285D01*
X81117285Y-85927809D01*
X81117285Y-85784952D01*
X81164904Y-85594476D01*
X81212523Y-85499238D01*
X81307761Y-85404000D01*
X81450619Y-85356380D01*
X81545857Y-85356380D01*
X81688714Y-85404000D01*
X81736333Y-85451619D01*
X82212523Y-86356380D02*
X82403000Y-86356380D01*
X82498238Y-86308761D01*
X82545857Y-86261142D01*
X82641095Y-86118285D01*
X82688714Y-85927809D01*
X82688714Y-85546857D01*
X82641095Y-85451619D01*
X82593476Y-85404000D01*
X82498238Y-85356380D01*
X82307761Y-85356380D01*
X82212523Y-85404000D01*
X82164904Y-85451619D01*
X82117285Y-85546857D01*
X82117285Y-85784952D01*
X82164904Y-85880190D01*
X82212523Y-85927809D01*
X82307761Y-85975428D01*
X82498238Y-85975428D01*
X82593476Y-85927809D01*
X82641095Y-85880190D01*
X82688714Y-85784952D01*
%TO.C,C8*%
X105004142Y-38393666D02*
X105051761Y-38441285D01*
X105099380Y-38584142D01*
X105099380Y-38679380D01*
X105051761Y-38822238D01*
X104956523Y-38917476D01*
X104861285Y-38965095D01*
X104670809Y-39012714D01*
X104527952Y-39012714D01*
X104337476Y-38965095D01*
X104242238Y-38917476D01*
X104147000Y-38822238D01*
X104099380Y-38679380D01*
X104099380Y-38584142D01*
X104147000Y-38441285D01*
X104194619Y-38393666D01*
X104527952Y-37822238D02*
X104480333Y-37917476D01*
X104432714Y-37965095D01*
X104337476Y-38012714D01*
X104289857Y-38012714D01*
X104194619Y-37965095D01*
X104147000Y-37917476D01*
X104099380Y-37822238D01*
X104099380Y-37631761D01*
X104147000Y-37536523D01*
X104194619Y-37488904D01*
X104289857Y-37441285D01*
X104337476Y-37441285D01*
X104432714Y-37488904D01*
X104480333Y-37536523D01*
X104527952Y-37631761D01*
X104527952Y-37822238D01*
X104575571Y-37917476D01*
X104623190Y-37965095D01*
X104718428Y-38012714D01*
X104908904Y-38012714D01*
X105004142Y-37965095D01*
X105051761Y-37917476D01*
X105099380Y-37822238D01*
X105099380Y-37631761D01*
X105051761Y-37536523D01*
X105004142Y-37488904D01*
X104908904Y-37441285D01*
X104718428Y-37441285D01*
X104623190Y-37488904D01*
X104575571Y-37536523D01*
X104527952Y-37631761D01*
%TO.C,C7*%
X102083142Y-50562166D02*
X102130761Y-50609785D01*
X102178380Y-50752642D01*
X102178380Y-50847880D01*
X102130761Y-50990738D01*
X102035523Y-51085976D01*
X101940285Y-51133595D01*
X101749809Y-51181214D01*
X101606952Y-51181214D01*
X101416476Y-51133595D01*
X101321238Y-51085976D01*
X101226000Y-50990738D01*
X101178380Y-50847880D01*
X101178380Y-50752642D01*
X101226000Y-50609785D01*
X101273619Y-50562166D01*
X101178380Y-50228833D02*
X101178380Y-49562166D01*
X102178380Y-49990738D01*
%TO.C,C6*%
X102337142Y-46799166D02*
X102384761Y-46846785D01*
X102432380Y-46989642D01*
X102432380Y-47084880D01*
X102384761Y-47227738D01*
X102289523Y-47322976D01*
X102194285Y-47370595D01*
X102003809Y-47418214D01*
X101860952Y-47418214D01*
X101670476Y-47370595D01*
X101575238Y-47322976D01*
X101480000Y-47227738D01*
X101432380Y-47084880D01*
X101432380Y-46989642D01*
X101480000Y-46846785D01*
X101527619Y-46799166D01*
X101432380Y-45942023D02*
X101432380Y-46132500D01*
X101480000Y-46227738D01*
X101527619Y-46275357D01*
X101670476Y-46370595D01*
X101860952Y-46418214D01*
X102241904Y-46418214D01*
X102337142Y-46370595D01*
X102384761Y-46322976D01*
X102432380Y-46227738D01*
X102432380Y-46037261D01*
X102384761Y-45942023D01*
X102337142Y-45894404D01*
X102241904Y-45846785D01*
X102003809Y-45846785D01*
X101908571Y-45894404D01*
X101860952Y-45942023D01*
X101813333Y-46037261D01*
X101813333Y-46227738D01*
X101860952Y-46322976D01*
X101908571Y-46370595D01*
X102003809Y-46418214D01*
%TO.C,C5*%
X104750142Y-33544166D02*
X104797761Y-33591785D01*
X104845380Y-33734642D01*
X104845380Y-33829880D01*
X104797761Y-33972738D01*
X104702523Y-34067976D01*
X104607285Y-34115595D01*
X104416809Y-34163214D01*
X104273952Y-34163214D01*
X104083476Y-34115595D01*
X103988238Y-34067976D01*
X103893000Y-33972738D01*
X103845380Y-33829880D01*
X103845380Y-33734642D01*
X103893000Y-33591785D01*
X103940619Y-33544166D01*
X103845380Y-32639404D02*
X103845380Y-33115595D01*
X104321571Y-33163214D01*
X104273952Y-33115595D01*
X104226333Y-33020357D01*
X104226333Y-32782261D01*
X104273952Y-32687023D01*
X104321571Y-32639404D01*
X104416809Y-32591785D01*
X104654904Y-32591785D01*
X104750142Y-32639404D01*
X104797761Y-32687023D01*
X104845380Y-32782261D01*
X104845380Y-33020357D01*
X104797761Y-33115595D01*
X104750142Y-33163214D01*
%TO.C,C4*%
X102337142Y-35980666D02*
X102384761Y-36028285D01*
X102432380Y-36171142D01*
X102432380Y-36266380D01*
X102384761Y-36409238D01*
X102289523Y-36504476D01*
X102194285Y-36552095D01*
X102003809Y-36599714D01*
X101860952Y-36599714D01*
X101670476Y-36552095D01*
X101575238Y-36504476D01*
X101480000Y-36409238D01*
X101432380Y-36266380D01*
X101432380Y-36171142D01*
X101480000Y-36028285D01*
X101527619Y-35980666D01*
X101765714Y-35123523D02*
X102432380Y-35123523D01*
X101384761Y-35361619D02*
X102099047Y-35599714D01*
X102099047Y-34980666D01*
%TO.C,C3*%
X105854833Y-87480142D02*
X105807214Y-87527761D01*
X105664357Y-87575380D01*
X105569119Y-87575380D01*
X105426261Y-87527761D01*
X105331023Y-87432523D01*
X105283404Y-87337285D01*
X105235785Y-87146809D01*
X105235785Y-87003952D01*
X105283404Y-86813476D01*
X105331023Y-86718238D01*
X105426261Y-86623000D01*
X105569119Y-86575380D01*
X105664357Y-86575380D01*
X105807214Y-86623000D01*
X105854833Y-86670619D01*
X106188166Y-86575380D02*
X106807214Y-86575380D01*
X106473880Y-86956333D01*
X106616738Y-86956333D01*
X106711976Y-87003952D01*
X106759595Y-87051571D01*
X106807214Y-87146809D01*
X106807214Y-87384904D01*
X106759595Y-87480142D01*
X106711976Y-87527761D01*
X106616738Y-87575380D01*
X106331023Y-87575380D01*
X106235785Y-87527761D01*
X106188166Y-87480142D01*
%TO.C,C2*%
X98996833Y-90653142D02*
X98949214Y-90700761D01*
X98806357Y-90748380D01*
X98711119Y-90748380D01*
X98568261Y-90700761D01*
X98473023Y-90605523D01*
X98425404Y-90510285D01*
X98377785Y-90319809D01*
X98377785Y-90176952D01*
X98425404Y-89986476D01*
X98473023Y-89891238D01*
X98568261Y-89796000D01*
X98711119Y-89748380D01*
X98806357Y-89748380D01*
X98949214Y-89796000D01*
X98996833Y-89843619D01*
X99377785Y-89843619D02*
X99425404Y-89796000D01*
X99520642Y-89748380D01*
X99758738Y-89748380D01*
X99853976Y-89796000D01*
X99901595Y-89843619D01*
X99949214Y-89938857D01*
X99949214Y-90034095D01*
X99901595Y-90176952D01*
X99330166Y-90748380D01*
X99949214Y-90748380D01*
%TO.C,C1*%
X85407833Y-71223142D02*
X85360214Y-71270761D01*
X85217357Y-71318380D01*
X85122119Y-71318380D01*
X84979261Y-71270761D01*
X84884023Y-71175523D01*
X84836404Y-71080285D01*
X84788785Y-70889809D01*
X84788785Y-70746952D01*
X84836404Y-70556476D01*
X84884023Y-70461238D01*
X84979261Y-70366000D01*
X85122119Y-70318380D01*
X85217357Y-70318380D01*
X85360214Y-70366000D01*
X85407833Y-70413619D01*
X86360214Y-71318380D02*
X85788785Y-71318380D01*
X86074500Y-71318380D02*
X86074500Y-70318380D01*
X85979261Y-70461238D01*
X85884023Y-70556476D01*
X85788785Y-70604095D01*
%TD*%
M02*
