M48
; DRILL file {KiCad 5.1.10-88a1d61d58~88~ubuntu18.04.1} date Tue Jul 13 17:51:07 2021
; FORMAT={-:-/ absolute / inch / decimal}
; #@! TF.CreationDate,2021-07-13T17:51:07-03:00
; #@! TF.GenerationSoftware,Kicad,Pcbnew,5.1.10-88a1d61d58~88~ubuntu18.04.1
; #@! TF.FileFunction,Plated,1,2,PTH
FMAT,2
INCH
T1C0.0236
T2C0.0315
T3C0.0394
T4C0.0591
T5C0.0598
T6C0.0669
%
G90
G05
T1
X3.195Y-3.51
X3.2541Y-3.51
X4.34Y-1.115
X4.3991Y-1.115
X5.76Y-1.1609
X5.76Y-1.22
X5.765Y-3.39
X5.765Y-3.4491
X6.28Y-1.06
X6.28Y-1.1191
T2
X3.035Y-3.235
X3.035Y-3.535
X3.175Y-2.415
X3.39Y-2.415
X3.495Y-1.435
X3.495Y-1.555
X3.495Y-1.655
X3.495Y-1.755
X3.635Y-2.77
X3.635Y-2.87
X3.635Y-2.97
X3.685Y-1.8
X3.76Y-1.46
X3.76Y-1.56
X3.76Y-1.66
X3.84Y-1.985
X3.845Y-1.8
X3.93Y-1.535
X4.1Y-2.355
X4.63Y-1.355
X4.63Y-1.455
X4.63Y-1.555
X4.63Y-1.655
X4.63Y-1.755
X4.63Y-1.855
X4.63Y-1.955
X4.63Y-2.055
X4.63Y-2.155
X4.63Y-2.255
X4.63Y-2.355
X4.63Y-2.455
X4.63Y-2.555
X4.63Y-2.655
X4.63Y-2.755
X4.63Y-2.855
X4.63Y-2.955
X4.63Y-3.055
X4.63Y-3.155
X4.63Y-3.255
X4.63Y-3.355
X4.63Y-3.455
X4.63Y-3.555
X4.63Y-3.655
X5.23Y-1.355
X5.23Y-1.455
X5.23Y-1.555
X5.23Y-1.655
X5.23Y-1.755
X5.23Y-1.855
X5.23Y-1.955
X5.23Y-2.055
X5.23Y-2.155
X5.23Y-2.255
X5.23Y-2.355
X5.23Y-2.455
X5.23Y-2.555
X5.23Y-2.655
X5.23Y-2.755
X5.23Y-2.855
X5.23Y-2.955
X5.23Y-3.055
X5.23Y-3.155
X5.23Y-3.255
X5.23Y-3.355
X5.23Y-3.455
X5.23Y-3.555
X5.23Y-3.655
X5.515Y-3.105
X5.515Y-3.405
X5.58Y-1.14
X5.58Y-1.44
X5.63Y-2.035
X5.635Y-1.68
X5.7Y-1.94
X5.76Y-2.13
X5.83Y-1.055
X5.895Y-3.575
X5.93Y-3.14
X5.975Y-1.94
X5.975Y-2.035
X5.975Y-2.13
X5.99Y-2.22
X5.99Y-2.43
X6.105Y-2.52
X6.305Y-1.745
T3
X5.68Y-0.9
X5.74Y-1.49
X5.745Y-1.805
X5.78Y-0.9
X5.84Y-1.49
X5.88Y-0.9
X5.94Y-1.49
X6.155Y-2.085
X6.155Y-2.26
X6.255Y-2.085
X6.255Y-2.26
X6.38Y-0.91
X6.48Y-0.91
X6.48Y-2.6
X6.48Y-2.7
X6.48Y-2.8
X6.48Y-2.9
X6.48Y-3.0
X6.48Y-3.1
X6.48Y-3.2
X6.48Y-3.3
X6.48Y-3.4
X6.48Y-3.5
X6.48Y-3.6
X6.48Y-3.7
X6.48Y-3.8
X6.58Y-0.91
X6.66Y-1.865
X6.66Y-1.965
X7.06Y-2.855
X7.06Y-2.955
X7.06Y-3.055
X7.065Y-1.2
X7.065Y-1.3
X7.065Y-1.4
T4
X3.035Y-2.08
X7.24Y-3.52
X7.245Y-1.94
T5
X3.035Y-3.78
X3.235Y-3.78
X3.845Y-3.78
X4.045Y-3.78
X4.245Y-3.78
X4.74Y-1.0
X4.94Y-1.0
X5.14Y-1.0
T6
X2.935Y-1.98
X2.935Y-2.18
X3.135Y-1.98
X3.135Y-2.18
X7.14Y-3.42
X7.14Y-3.62
X7.145Y-1.84
X7.145Y-2.04
X7.34Y-3.42
X7.34Y-3.62
X7.345Y-1.84
X7.345Y-2.04
T0
M30
