%TF.GenerationSoftware,KiCad,Pcbnew,5.1.10-88a1d61d58~88~ubuntu18.04.1*%
%TF.CreationDate,2021-07-13T17:51:20-03:00*%
%TF.ProjectId,ASBF,41534246-2e6b-4696-9361-645f70636258,V1.1*%
%TF.SameCoordinates,Original*%
%TF.FileFunction,Soldermask,Top*%
%TF.FilePolarity,Negative*%
%FSLAX46Y46*%
G04 Gerber Fmt 4.6, Leading zero omitted, Abs format (unit mm)*
G04 Created by KiCad (PCBNEW 5.1.10-88a1d61d58~88~ubuntu18.04.1) date 2021-07-13 17:51:20*
%MOMM*%
%LPD*%
G01*
G04 APERTURE LIST*
%ADD10R,2.540000X1.650000*%
%ADD11C,3.000000*%
%ADD12R,3.000000X3.000000*%
%ADD13C,1.200000*%
%ADD14R,1.200000X1.200000*%
%ADD15O,2.400000X1.600000*%
%ADD16R,2.400000X1.600000*%
%ADD17R,0.250000X1.300000*%
%ADD18R,1.300000X0.250000*%
%ADD19R,0.650000X1.060000*%
%ADD20C,1.440000*%
%ADD21O,1.600000X1.600000*%
%ADD22C,1.600000*%
%ADD23C,2.250000*%
%ADD24C,2.050000*%
%ADD25O,1.700000X1.700000*%
%ADD26R,1.700000X1.700000*%
%ADD27C,2.500000*%
G04 APERTURE END LIST*
D10*
%TO.C,TR1*%
X173736000Y-56769000D03*
X173736000Y-59309000D03*
X173736000Y-61849000D03*
X168656000Y-61849000D03*
X168656000Y-59309000D03*
X168656000Y-56769000D03*
%TD*%
D11*
%TO.C,J2*%
X82169000Y-96012000D03*
D12*
X77089000Y-96012000D03*
%TD*%
D13*
%TO.C,C12*%
X159512000Y-28424000D03*
D14*
X159512000Y-26924000D03*
%TD*%
D13*
%TO.C,C17*%
X146431000Y-87606000D03*
D14*
X146431000Y-86106000D03*
%TD*%
D13*
%TO.C,C16*%
X146304000Y-29488000D03*
D14*
X146304000Y-30988000D03*
%TD*%
D15*
%TO.C,J4*%
X132842000Y-34417000D03*
X117602000Y-92837000D03*
X132842000Y-36957000D03*
X117602000Y-90297000D03*
X132842000Y-39497000D03*
X117602000Y-87757000D03*
X132842000Y-42037000D03*
X117602000Y-85217000D03*
X132842000Y-44577000D03*
X117602000Y-82677000D03*
X132842000Y-47117000D03*
X117602000Y-80137000D03*
X132842000Y-49657000D03*
X117602000Y-77597000D03*
X132842000Y-52197000D03*
X117602000Y-75057000D03*
X132842000Y-54737000D03*
X117602000Y-72517000D03*
X132842000Y-57277000D03*
X117602000Y-69977000D03*
X132842000Y-59817000D03*
X117602000Y-67437000D03*
X132842000Y-62357000D03*
X117602000Y-64897000D03*
X132842000Y-64897000D03*
X117602000Y-62357000D03*
X132842000Y-67437000D03*
X117602000Y-59817000D03*
X132842000Y-69977000D03*
X117602000Y-57277000D03*
X132842000Y-72517000D03*
X117602000Y-54737000D03*
X132842000Y-75057000D03*
X117602000Y-52197000D03*
X132842000Y-77597000D03*
X117602000Y-49657000D03*
X132842000Y-80137000D03*
X117602000Y-47117000D03*
X132842000Y-82677000D03*
X117602000Y-44577000D03*
X132842000Y-85217000D03*
X117602000Y-42037000D03*
X132842000Y-87757000D03*
X117602000Y-39497000D03*
X132842000Y-90297000D03*
X117602000Y-36957000D03*
X132842000Y-92837000D03*
D16*
X117602000Y-34417000D03*
%TD*%
D17*
%TO.C,U3*%
X143681000Y-63976000D03*
X144181000Y-63976000D03*
X144681000Y-63976000D03*
X145181000Y-63976000D03*
X145681000Y-63976000D03*
X146181000Y-63976000D03*
X146681000Y-63976000D03*
X147181000Y-63976000D03*
X147681000Y-63976000D03*
X148181000Y-63976000D03*
X148681000Y-63976000D03*
X149181000Y-63976000D03*
D18*
X150781000Y-65576000D03*
X150781000Y-66076000D03*
X150781000Y-66576000D03*
X150781000Y-67076000D03*
X150781000Y-67576000D03*
X150781000Y-68076000D03*
X150781000Y-68576000D03*
X150781000Y-69076000D03*
X150781000Y-69576000D03*
X150781000Y-70076000D03*
X150781000Y-70576000D03*
X150781000Y-71076000D03*
D17*
X149181000Y-72676000D03*
X148681000Y-72676000D03*
X148181000Y-72676000D03*
X147681000Y-72676000D03*
X147181000Y-72676000D03*
X146681000Y-72676000D03*
X146181000Y-72676000D03*
X145681000Y-72676000D03*
X145181000Y-72676000D03*
X144681000Y-72676000D03*
X144181000Y-72676000D03*
X143681000Y-72676000D03*
D18*
X142081000Y-71076000D03*
X142081000Y-70576000D03*
X142081000Y-70076000D03*
X142081000Y-69576000D03*
X142081000Y-69076000D03*
X142081000Y-68576000D03*
X142081000Y-68076000D03*
X142081000Y-67576000D03*
X142081000Y-67076000D03*
X142081000Y-66576000D03*
X142081000Y-66076000D03*
X142081000Y-65576000D03*
%TD*%
%TO.C,U2*%
G36*
G01*
X108805000Y-42245000D02*
X108805000Y-42045000D01*
G75*
G02*
X108905000Y-41945000I100000J0D01*
G01*
X110180000Y-41945000D01*
G75*
G02*
X110280000Y-42045000I0J-100000D01*
G01*
X110280000Y-42245000D01*
G75*
G02*
X110180000Y-42345000I-100000J0D01*
G01*
X108905000Y-42345000D01*
G75*
G02*
X108805000Y-42245000I0J100000D01*
G01*
G37*
G36*
G01*
X108805000Y-42895000D02*
X108805000Y-42695000D01*
G75*
G02*
X108905000Y-42595000I100000J0D01*
G01*
X110180000Y-42595000D01*
G75*
G02*
X110280000Y-42695000I0J-100000D01*
G01*
X110280000Y-42895000D01*
G75*
G02*
X110180000Y-42995000I-100000J0D01*
G01*
X108905000Y-42995000D01*
G75*
G02*
X108805000Y-42895000I0J100000D01*
G01*
G37*
G36*
G01*
X108805000Y-43545000D02*
X108805000Y-43345000D01*
G75*
G02*
X108905000Y-43245000I100000J0D01*
G01*
X110180000Y-43245000D01*
G75*
G02*
X110280000Y-43345000I0J-100000D01*
G01*
X110280000Y-43545000D01*
G75*
G02*
X110180000Y-43645000I-100000J0D01*
G01*
X108905000Y-43645000D01*
G75*
G02*
X108805000Y-43545000I0J100000D01*
G01*
G37*
G36*
G01*
X108805000Y-44195000D02*
X108805000Y-43995000D01*
G75*
G02*
X108905000Y-43895000I100000J0D01*
G01*
X110180000Y-43895000D01*
G75*
G02*
X110280000Y-43995000I0J-100000D01*
G01*
X110280000Y-44195000D01*
G75*
G02*
X110180000Y-44295000I-100000J0D01*
G01*
X108905000Y-44295000D01*
G75*
G02*
X108805000Y-44195000I0J100000D01*
G01*
G37*
G36*
G01*
X108805000Y-44845000D02*
X108805000Y-44645000D01*
G75*
G02*
X108905000Y-44545000I100000J0D01*
G01*
X110180000Y-44545000D01*
G75*
G02*
X110280000Y-44645000I0J-100000D01*
G01*
X110280000Y-44845000D01*
G75*
G02*
X110180000Y-44945000I-100000J0D01*
G01*
X108905000Y-44945000D01*
G75*
G02*
X108805000Y-44845000I0J100000D01*
G01*
G37*
G36*
G01*
X108805000Y-45495000D02*
X108805000Y-45295000D01*
G75*
G02*
X108905000Y-45195000I100000J0D01*
G01*
X110180000Y-45195000D01*
G75*
G02*
X110280000Y-45295000I0J-100000D01*
G01*
X110280000Y-45495000D01*
G75*
G02*
X110180000Y-45595000I-100000J0D01*
G01*
X108905000Y-45595000D01*
G75*
G02*
X108805000Y-45495000I0J100000D01*
G01*
G37*
G36*
G01*
X108805000Y-46145000D02*
X108805000Y-45945000D01*
G75*
G02*
X108905000Y-45845000I100000J0D01*
G01*
X110180000Y-45845000D01*
G75*
G02*
X110280000Y-45945000I0J-100000D01*
G01*
X110280000Y-46145000D01*
G75*
G02*
X110180000Y-46245000I-100000J0D01*
G01*
X108905000Y-46245000D01*
G75*
G02*
X108805000Y-46145000I0J100000D01*
G01*
G37*
G36*
G01*
X108805000Y-46795000D02*
X108805000Y-46595000D01*
G75*
G02*
X108905000Y-46495000I100000J0D01*
G01*
X110180000Y-46495000D01*
G75*
G02*
X110280000Y-46595000I0J-100000D01*
G01*
X110280000Y-46795000D01*
G75*
G02*
X110180000Y-46895000I-100000J0D01*
G01*
X108905000Y-46895000D01*
G75*
G02*
X108805000Y-46795000I0J100000D01*
G01*
G37*
G36*
G01*
X108805000Y-47445000D02*
X108805000Y-47245000D01*
G75*
G02*
X108905000Y-47145000I100000J0D01*
G01*
X110180000Y-47145000D01*
G75*
G02*
X110280000Y-47245000I0J-100000D01*
G01*
X110280000Y-47445000D01*
G75*
G02*
X110180000Y-47545000I-100000J0D01*
G01*
X108905000Y-47545000D01*
G75*
G02*
X108805000Y-47445000I0J100000D01*
G01*
G37*
G36*
G01*
X108805000Y-48095000D02*
X108805000Y-47895000D01*
G75*
G02*
X108905000Y-47795000I100000J0D01*
G01*
X110180000Y-47795000D01*
G75*
G02*
X110280000Y-47895000I0J-100000D01*
G01*
X110280000Y-48095000D01*
G75*
G02*
X110180000Y-48195000I-100000J0D01*
G01*
X108905000Y-48195000D01*
G75*
G02*
X108805000Y-48095000I0J100000D01*
G01*
G37*
G36*
G01*
X108805000Y-48745000D02*
X108805000Y-48545000D01*
G75*
G02*
X108905000Y-48445000I100000J0D01*
G01*
X110180000Y-48445000D01*
G75*
G02*
X110280000Y-48545000I0J-100000D01*
G01*
X110280000Y-48745000D01*
G75*
G02*
X110180000Y-48845000I-100000J0D01*
G01*
X108905000Y-48845000D01*
G75*
G02*
X108805000Y-48745000I0J100000D01*
G01*
G37*
G36*
G01*
X108805000Y-49395000D02*
X108805000Y-49195000D01*
G75*
G02*
X108905000Y-49095000I100000J0D01*
G01*
X110180000Y-49095000D01*
G75*
G02*
X110280000Y-49195000I0J-100000D01*
G01*
X110280000Y-49395000D01*
G75*
G02*
X110180000Y-49495000I-100000J0D01*
G01*
X108905000Y-49495000D01*
G75*
G02*
X108805000Y-49395000I0J100000D01*
G01*
G37*
G36*
G01*
X103080000Y-49395000D02*
X103080000Y-49195000D01*
G75*
G02*
X103180000Y-49095000I100000J0D01*
G01*
X104455000Y-49095000D01*
G75*
G02*
X104555000Y-49195000I0J-100000D01*
G01*
X104555000Y-49395000D01*
G75*
G02*
X104455000Y-49495000I-100000J0D01*
G01*
X103180000Y-49495000D01*
G75*
G02*
X103080000Y-49395000I0J100000D01*
G01*
G37*
G36*
G01*
X103080000Y-48745000D02*
X103080000Y-48545000D01*
G75*
G02*
X103180000Y-48445000I100000J0D01*
G01*
X104455000Y-48445000D01*
G75*
G02*
X104555000Y-48545000I0J-100000D01*
G01*
X104555000Y-48745000D01*
G75*
G02*
X104455000Y-48845000I-100000J0D01*
G01*
X103180000Y-48845000D01*
G75*
G02*
X103080000Y-48745000I0J100000D01*
G01*
G37*
G36*
G01*
X103080000Y-48095000D02*
X103080000Y-47895000D01*
G75*
G02*
X103180000Y-47795000I100000J0D01*
G01*
X104455000Y-47795000D01*
G75*
G02*
X104555000Y-47895000I0J-100000D01*
G01*
X104555000Y-48095000D01*
G75*
G02*
X104455000Y-48195000I-100000J0D01*
G01*
X103180000Y-48195000D01*
G75*
G02*
X103080000Y-48095000I0J100000D01*
G01*
G37*
G36*
G01*
X103080000Y-47445000D02*
X103080000Y-47245000D01*
G75*
G02*
X103180000Y-47145000I100000J0D01*
G01*
X104455000Y-47145000D01*
G75*
G02*
X104555000Y-47245000I0J-100000D01*
G01*
X104555000Y-47445000D01*
G75*
G02*
X104455000Y-47545000I-100000J0D01*
G01*
X103180000Y-47545000D01*
G75*
G02*
X103080000Y-47445000I0J100000D01*
G01*
G37*
G36*
G01*
X103080000Y-46795000D02*
X103080000Y-46595000D01*
G75*
G02*
X103180000Y-46495000I100000J0D01*
G01*
X104455000Y-46495000D01*
G75*
G02*
X104555000Y-46595000I0J-100000D01*
G01*
X104555000Y-46795000D01*
G75*
G02*
X104455000Y-46895000I-100000J0D01*
G01*
X103180000Y-46895000D01*
G75*
G02*
X103080000Y-46795000I0J100000D01*
G01*
G37*
G36*
G01*
X103080000Y-46145000D02*
X103080000Y-45945000D01*
G75*
G02*
X103180000Y-45845000I100000J0D01*
G01*
X104455000Y-45845000D01*
G75*
G02*
X104555000Y-45945000I0J-100000D01*
G01*
X104555000Y-46145000D01*
G75*
G02*
X104455000Y-46245000I-100000J0D01*
G01*
X103180000Y-46245000D01*
G75*
G02*
X103080000Y-46145000I0J100000D01*
G01*
G37*
G36*
G01*
X103080000Y-45495000D02*
X103080000Y-45295000D01*
G75*
G02*
X103180000Y-45195000I100000J0D01*
G01*
X104455000Y-45195000D01*
G75*
G02*
X104555000Y-45295000I0J-100000D01*
G01*
X104555000Y-45495000D01*
G75*
G02*
X104455000Y-45595000I-100000J0D01*
G01*
X103180000Y-45595000D01*
G75*
G02*
X103080000Y-45495000I0J100000D01*
G01*
G37*
G36*
G01*
X103080000Y-44845000D02*
X103080000Y-44645000D01*
G75*
G02*
X103180000Y-44545000I100000J0D01*
G01*
X104455000Y-44545000D01*
G75*
G02*
X104555000Y-44645000I0J-100000D01*
G01*
X104555000Y-44845000D01*
G75*
G02*
X104455000Y-44945000I-100000J0D01*
G01*
X103180000Y-44945000D01*
G75*
G02*
X103080000Y-44845000I0J100000D01*
G01*
G37*
G36*
G01*
X103080000Y-44195000D02*
X103080000Y-43995000D01*
G75*
G02*
X103180000Y-43895000I100000J0D01*
G01*
X104455000Y-43895000D01*
G75*
G02*
X104555000Y-43995000I0J-100000D01*
G01*
X104555000Y-44195000D01*
G75*
G02*
X104455000Y-44295000I-100000J0D01*
G01*
X103180000Y-44295000D01*
G75*
G02*
X103080000Y-44195000I0J100000D01*
G01*
G37*
G36*
G01*
X103080000Y-43545000D02*
X103080000Y-43345000D01*
G75*
G02*
X103180000Y-43245000I100000J0D01*
G01*
X104455000Y-43245000D01*
G75*
G02*
X104555000Y-43345000I0J-100000D01*
G01*
X104555000Y-43545000D01*
G75*
G02*
X104455000Y-43645000I-100000J0D01*
G01*
X103180000Y-43645000D01*
G75*
G02*
X103080000Y-43545000I0J100000D01*
G01*
G37*
G36*
G01*
X103080000Y-42895000D02*
X103080000Y-42695000D01*
G75*
G02*
X103180000Y-42595000I100000J0D01*
G01*
X104455000Y-42595000D01*
G75*
G02*
X104555000Y-42695000I0J-100000D01*
G01*
X104555000Y-42895000D01*
G75*
G02*
X104455000Y-42995000I-100000J0D01*
G01*
X103180000Y-42995000D01*
G75*
G02*
X103080000Y-42895000I0J100000D01*
G01*
G37*
G36*
G01*
X103080000Y-42245000D02*
X103080000Y-42045000D01*
G75*
G02*
X103180000Y-41945000I100000J0D01*
G01*
X104455000Y-41945000D01*
G75*
G02*
X104555000Y-42045000I0J-100000D01*
G01*
X104555000Y-42245000D01*
G75*
G02*
X104455000Y-42345000I-100000J0D01*
G01*
X103180000Y-42345000D01*
G75*
G02*
X103080000Y-42245000I0J100000D01*
G01*
G37*
%TD*%
D19*
%TO.C,U1*%
X92644000Y-59266000D03*
X90744000Y-59266000D03*
X90744000Y-57066000D03*
X91694000Y-57066000D03*
X92644000Y-57066000D03*
%TD*%
D10*
%TO.C,TR2*%
X171450000Y-37211000D03*
X171450000Y-39751000D03*
X171450000Y-42291000D03*
X166370000Y-42291000D03*
X166370000Y-39751000D03*
X166370000Y-37211000D03*
%TD*%
D20*
%TO.C,RV3*%
X95504000Y-42164000D03*
X95504000Y-39624000D03*
X95504000Y-37084000D03*
%TD*%
%TO.C,RV2*%
X92329000Y-75438000D03*
X92329000Y-72898000D03*
X92329000Y-70358000D03*
%TD*%
%TO.C,RV1*%
X88773000Y-44577000D03*
X88773000Y-42037000D03*
X88773000Y-39497000D03*
%TD*%
%TO.C,R22*%
G36*
G01*
X162423001Y-31612000D02*
X161172999Y-31612000D01*
G75*
G02*
X160923000Y-31362001I0J249999D01*
G01*
X160923000Y-30736999D01*
G75*
G02*
X161172999Y-30487000I249999J0D01*
G01*
X162423001Y-30487000D01*
G75*
G02*
X162673000Y-30736999I0J-249999D01*
G01*
X162673000Y-31362001D01*
G75*
G02*
X162423001Y-31612000I-249999J0D01*
G01*
G37*
G36*
G01*
X162423001Y-34537000D02*
X161172999Y-34537000D01*
G75*
G02*
X160923000Y-34287001I0J249999D01*
G01*
X160923000Y-33661999D01*
G75*
G02*
X161172999Y-33412000I249999J0D01*
G01*
X162423001Y-33412000D01*
G75*
G02*
X162673000Y-33661999I0J-249999D01*
G01*
X162673000Y-34287001D01*
G75*
G02*
X162423001Y-34537000I-249999J0D01*
G01*
G37*
%TD*%
%TO.C,R21*%
G36*
G01*
X158740001Y-31358000D02*
X157489999Y-31358000D01*
G75*
G02*
X157240000Y-31108001I0J249999D01*
G01*
X157240000Y-30482999D01*
G75*
G02*
X157489999Y-30233000I249999J0D01*
G01*
X158740001Y-30233000D01*
G75*
G02*
X158990000Y-30482999I0J-249999D01*
G01*
X158990000Y-31108001D01*
G75*
G02*
X158740001Y-31358000I-249999J0D01*
G01*
G37*
G36*
G01*
X158740001Y-34283000D02*
X157489999Y-34283000D01*
G75*
G02*
X157240000Y-34033001I0J249999D01*
G01*
X157240000Y-33407999D01*
G75*
G02*
X157489999Y-33158000I249999J0D01*
G01*
X158740001Y-33158000D01*
G75*
G02*
X158990000Y-33407999I0J-249999D01*
G01*
X158990000Y-34033001D01*
G75*
G02*
X158740001Y-34283000I-249999J0D01*
G01*
G37*
%TD*%
%TO.C,R20*%
G36*
G01*
X152409999Y-29348000D02*
X153660001Y-29348000D01*
G75*
G02*
X153910000Y-29597999I0J-249999D01*
G01*
X153910000Y-30223001D01*
G75*
G02*
X153660001Y-30473000I-249999J0D01*
G01*
X152409999Y-30473000D01*
G75*
G02*
X152160000Y-30223001I0J249999D01*
G01*
X152160000Y-29597999D01*
G75*
G02*
X152409999Y-29348000I249999J0D01*
G01*
G37*
G36*
G01*
X152409999Y-26423000D02*
X153660001Y-26423000D01*
G75*
G02*
X153910000Y-26672999I0J-249999D01*
G01*
X153910000Y-27298001D01*
G75*
G02*
X153660001Y-27548000I-249999J0D01*
G01*
X152409999Y-27548000D01*
G75*
G02*
X152160000Y-27298001I0J249999D01*
G01*
X152160000Y-26672999D01*
G75*
G02*
X152409999Y-26423000I249999J0D01*
G01*
G37*
%TD*%
%TO.C,R19*%
G36*
G01*
X175525000Y-46218001D02*
X175525000Y-44967999D01*
G75*
G02*
X175774999Y-44718000I249999J0D01*
G01*
X176400001Y-44718000D01*
G75*
G02*
X176650000Y-44967999I0J-249999D01*
G01*
X176650000Y-46218001D01*
G75*
G02*
X176400001Y-46468000I-249999J0D01*
G01*
X175774999Y-46468000D01*
G75*
G02*
X175525000Y-46218001I0J249999D01*
G01*
G37*
G36*
G01*
X172600000Y-46218001D02*
X172600000Y-44967999D01*
G75*
G02*
X172849999Y-44718000I249999J0D01*
G01*
X173475001Y-44718000D01*
G75*
G02*
X173725000Y-44967999I0J-249999D01*
G01*
X173725000Y-46218001D01*
G75*
G02*
X173475001Y-46468000I-249999J0D01*
G01*
X172849999Y-46468000D01*
G75*
G02*
X172600000Y-46218001I0J249999D01*
G01*
G37*
%TD*%
%TO.C,R18*%
G36*
G01*
X158740001Y-47421500D02*
X157489999Y-47421500D01*
G75*
G02*
X157240000Y-47171501I0J249999D01*
G01*
X157240000Y-46546499D01*
G75*
G02*
X157489999Y-46296500I249999J0D01*
G01*
X158740001Y-46296500D01*
G75*
G02*
X158990000Y-46546499I0J-249999D01*
G01*
X158990000Y-47171501D01*
G75*
G02*
X158740001Y-47421500I-249999J0D01*
G01*
G37*
G36*
G01*
X158740001Y-50346500D02*
X157489999Y-50346500D01*
G75*
G02*
X157240000Y-50096501I0J249999D01*
G01*
X157240000Y-49471499D01*
G75*
G02*
X157489999Y-49221500I249999J0D01*
G01*
X158740001Y-49221500D01*
G75*
G02*
X158990000Y-49471499I0J-249999D01*
G01*
X158990000Y-50096501D01*
G75*
G02*
X158740001Y-50346500I-249999J0D01*
G01*
G37*
%TD*%
%TO.C,R17*%
G36*
G01*
X165471001Y-31612000D02*
X164220999Y-31612000D01*
G75*
G02*
X163971000Y-31362001I0J249999D01*
G01*
X163971000Y-30736999D01*
G75*
G02*
X164220999Y-30487000I249999J0D01*
G01*
X165471001Y-30487000D01*
G75*
G02*
X165721000Y-30736999I0J-249999D01*
G01*
X165721000Y-31362001D01*
G75*
G02*
X165471001Y-31612000I-249999J0D01*
G01*
G37*
G36*
G01*
X165471001Y-34537000D02*
X164220999Y-34537000D01*
G75*
G02*
X163971000Y-34287001I0J249999D01*
G01*
X163971000Y-33661999D01*
G75*
G02*
X164220999Y-33412000I249999J0D01*
G01*
X165471001Y-33412000D01*
G75*
G02*
X165721000Y-33661999I0J-249999D01*
G01*
X165721000Y-34287001D01*
G75*
G02*
X165471001Y-34537000I-249999J0D01*
G01*
G37*
%TD*%
%TO.C,R16*%
G36*
G01*
X165852001Y-51678000D02*
X164601999Y-51678000D01*
G75*
G02*
X164352000Y-51428001I0J249999D01*
G01*
X164352000Y-50802999D01*
G75*
G02*
X164601999Y-50553000I249999J0D01*
G01*
X165852001Y-50553000D01*
G75*
G02*
X166102000Y-50802999I0J-249999D01*
G01*
X166102000Y-51428001D01*
G75*
G02*
X165852001Y-51678000I-249999J0D01*
G01*
G37*
G36*
G01*
X165852001Y-54603000D02*
X164601999Y-54603000D01*
G75*
G02*
X164352000Y-54353001I0J249999D01*
G01*
X164352000Y-53727999D01*
G75*
G02*
X164601999Y-53478000I249999J0D01*
G01*
X165852001Y-53478000D01*
G75*
G02*
X166102000Y-53727999I0J-249999D01*
G01*
X166102000Y-54353001D01*
G75*
G02*
X165852001Y-54603000I-249999J0D01*
G01*
G37*
%TD*%
%TO.C,R15*%
G36*
G01*
X159902999Y-49221500D02*
X161153001Y-49221500D01*
G75*
G02*
X161403000Y-49471499I0J-249999D01*
G01*
X161403000Y-50096501D01*
G75*
G02*
X161153001Y-50346500I-249999J0D01*
G01*
X159902999Y-50346500D01*
G75*
G02*
X159653000Y-50096501I0J249999D01*
G01*
X159653000Y-49471499D01*
G75*
G02*
X159902999Y-49221500I249999J0D01*
G01*
G37*
G36*
G01*
X159902999Y-46296500D02*
X161153001Y-46296500D01*
G75*
G02*
X161403000Y-46546499I0J-249999D01*
G01*
X161403000Y-47171501D01*
G75*
G02*
X161153001Y-47421500I-249999J0D01*
G01*
X159902999Y-47421500D01*
G75*
G02*
X159653000Y-47171501I0J249999D01*
G01*
X159653000Y-46546499D01*
G75*
G02*
X159902999Y-46296500I249999J0D01*
G01*
G37*
%TD*%
%TO.C,R14*%
G36*
G01*
X175652000Y-53965001D02*
X175652000Y-52714999D01*
G75*
G02*
X175901999Y-52465000I249999J0D01*
G01*
X176527001Y-52465000D01*
G75*
G02*
X176777000Y-52714999I0J-249999D01*
G01*
X176777000Y-53965001D01*
G75*
G02*
X176527001Y-54215000I-249999J0D01*
G01*
X175901999Y-54215000D01*
G75*
G02*
X175652000Y-53965001I0J249999D01*
G01*
G37*
G36*
G01*
X172727000Y-53965001D02*
X172727000Y-52714999D01*
G75*
G02*
X172976999Y-52465000I249999J0D01*
G01*
X173602001Y-52465000D01*
G75*
G02*
X173852000Y-52714999I0J-249999D01*
G01*
X173852000Y-53965001D01*
G75*
G02*
X173602001Y-54215000I-249999J0D01*
G01*
X172976999Y-54215000D01*
G75*
G02*
X172727000Y-53965001I0J249999D01*
G01*
G37*
%TD*%
%TO.C,R13*%
G36*
G01*
X148834001Y-78856000D02*
X147583999Y-78856000D01*
G75*
G02*
X147334000Y-78606001I0J249999D01*
G01*
X147334000Y-77980999D01*
G75*
G02*
X147583999Y-77731000I249999J0D01*
G01*
X148834001Y-77731000D01*
G75*
G02*
X149084000Y-77980999I0J-249999D01*
G01*
X149084000Y-78606001D01*
G75*
G02*
X148834001Y-78856000I-249999J0D01*
G01*
G37*
G36*
G01*
X148834001Y-81781000D02*
X147583999Y-81781000D01*
G75*
G02*
X147334000Y-81531001I0J249999D01*
G01*
X147334000Y-80905999D01*
G75*
G02*
X147583999Y-80656000I249999J0D01*
G01*
X148834001Y-80656000D01*
G75*
G02*
X149084000Y-80905999I0J-249999D01*
G01*
X149084000Y-81531001D01*
G75*
G02*
X148834001Y-81781000I-249999J0D01*
G01*
G37*
%TD*%
%TO.C,R12*%
G36*
G01*
X144770001Y-78729000D02*
X143519999Y-78729000D01*
G75*
G02*
X143270000Y-78479001I0J249999D01*
G01*
X143270000Y-77853999D01*
G75*
G02*
X143519999Y-77604000I249999J0D01*
G01*
X144770001Y-77604000D01*
G75*
G02*
X145020000Y-77853999I0J-249999D01*
G01*
X145020000Y-78479001D01*
G75*
G02*
X144770001Y-78729000I-249999J0D01*
G01*
G37*
G36*
G01*
X144770001Y-81654000D02*
X143519999Y-81654000D01*
G75*
G02*
X143270000Y-81404001I0J249999D01*
G01*
X143270000Y-80778999D01*
G75*
G02*
X143519999Y-80529000I249999J0D01*
G01*
X144770001Y-80529000D01*
G75*
G02*
X145020000Y-80778999I0J-249999D01*
G01*
X145020000Y-81404001D01*
G75*
G02*
X144770001Y-81654000I-249999J0D01*
G01*
G37*
%TD*%
%TO.C,R11*%
G36*
G01*
X113274001Y-37708000D02*
X112023999Y-37708000D01*
G75*
G02*
X111774000Y-37458001I0J249999D01*
G01*
X111774000Y-36832999D01*
G75*
G02*
X112023999Y-36583000I249999J0D01*
G01*
X113274001Y-36583000D01*
G75*
G02*
X113524000Y-36832999I0J-249999D01*
G01*
X113524000Y-37458001D01*
G75*
G02*
X113274001Y-37708000I-249999J0D01*
G01*
G37*
G36*
G01*
X113274001Y-40633000D02*
X112023999Y-40633000D01*
G75*
G02*
X111774000Y-40383001I0J249999D01*
G01*
X111774000Y-39757999D01*
G75*
G02*
X112023999Y-39508000I249999J0D01*
G01*
X113274001Y-39508000D01*
G75*
G02*
X113524000Y-39757999I0J-249999D01*
G01*
X113524000Y-40383001D01*
G75*
G02*
X113274001Y-40633000I-249999J0D01*
G01*
G37*
%TD*%
%TO.C,R10*%
G36*
G01*
X103514999Y-54240000D02*
X104765001Y-54240000D01*
G75*
G02*
X105015000Y-54489999I0J-249999D01*
G01*
X105015000Y-55115001D01*
G75*
G02*
X104765001Y-55365000I-249999J0D01*
G01*
X103514999Y-55365000D01*
G75*
G02*
X103265000Y-55115001I0J249999D01*
G01*
X103265000Y-54489999D01*
G75*
G02*
X103514999Y-54240000I249999J0D01*
G01*
G37*
G36*
G01*
X103514999Y-51315000D02*
X104765001Y-51315000D01*
G75*
G02*
X105015000Y-51564999I0J-249999D01*
G01*
X105015000Y-52190001D01*
G75*
G02*
X104765001Y-52440000I-249999J0D01*
G01*
X103514999Y-52440000D01*
G75*
G02*
X103265000Y-52190001I0J249999D01*
G01*
X103265000Y-51564999D01*
G75*
G02*
X103514999Y-51315000I249999J0D01*
G01*
G37*
%TD*%
%TO.C,R9*%
G36*
G01*
X93716001Y-48757000D02*
X92465999Y-48757000D01*
G75*
G02*
X92216000Y-48507001I0J249999D01*
G01*
X92216000Y-47881999D01*
G75*
G02*
X92465999Y-47632000I249999J0D01*
G01*
X93716001Y-47632000D01*
G75*
G02*
X93966000Y-47881999I0J-249999D01*
G01*
X93966000Y-48507001D01*
G75*
G02*
X93716001Y-48757000I-249999J0D01*
G01*
G37*
G36*
G01*
X93716001Y-51682000D02*
X92465999Y-51682000D01*
G75*
G02*
X92216000Y-51432001I0J249999D01*
G01*
X92216000Y-50806999D01*
G75*
G02*
X92465999Y-50557000I249999J0D01*
G01*
X93716001Y-50557000D01*
G75*
G02*
X93966000Y-50806999I0J-249999D01*
G01*
X93966000Y-51432001D01*
G75*
G02*
X93716001Y-51682000I-249999J0D01*
G01*
G37*
%TD*%
%TO.C,R8*%
G36*
G01*
X95261000Y-34661001D02*
X95261000Y-33410999D01*
G75*
G02*
X95510999Y-33161000I249999J0D01*
G01*
X96136001Y-33161000D01*
G75*
G02*
X96386000Y-33410999I0J-249999D01*
G01*
X96386000Y-34661001D01*
G75*
G02*
X96136001Y-34911000I-249999J0D01*
G01*
X95510999Y-34911000D01*
G75*
G02*
X95261000Y-34661001I0J249999D01*
G01*
G37*
G36*
G01*
X92336000Y-34661001D02*
X92336000Y-33410999D01*
G75*
G02*
X92585999Y-33161000I249999J0D01*
G01*
X93211001Y-33161000D01*
G75*
G02*
X93461000Y-33410999I0J-249999D01*
G01*
X93461000Y-34661001D01*
G75*
G02*
X93211001Y-34911000I-249999J0D01*
G01*
X92585999Y-34911000D01*
G75*
G02*
X92336000Y-34661001I0J249999D01*
G01*
G37*
%TD*%
%TO.C,R7*%
G36*
G01*
X92594000Y-54219001D02*
X92594000Y-52968999D01*
G75*
G02*
X92843999Y-52719000I249999J0D01*
G01*
X93469001Y-52719000D01*
G75*
G02*
X93719000Y-52968999I0J-249999D01*
G01*
X93719000Y-54219001D01*
G75*
G02*
X93469001Y-54469000I-249999J0D01*
G01*
X92843999Y-54469000D01*
G75*
G02*
X92594000Y-54219001I0J249999D01*
G01*
G37*
G36*
G01*
X89669000Y-54219001D02*
X89669000Y-52968999D01*
G75*
G02*
X89918999Y-52719000I249999J0D01*
G01*
X90544001Y-52719000D01*
G75*
G02*
X90794000Y-52968999I0J-249999D01*
G01*
X90794000Y-54219001D01*
G75*
G02*
X90544001Y-54469000I-249999J0D01*
G01*
X89918999Y-54469000D01*
G75*
G02*
X89669000Y-54219001I0J249999D01*
G01*
G37*
%TD*%
%TO.C,R6*%
G36*
G01*
X95113001Y-80761000D02*
X93862999Y-80761000D01*
G75*
G02*
X93613000Y-80511001I0J249999D01*
G01*
X93613000Y-79885999D01*
G75*
G02*
X93862999Y-79636000I249999J0D01*
G01*
X95113001Y-79636000D01*
G75*
G02*
X95363000Y-79885999I0J-249999D01*
G01*
X95363000Y-80511001D01*
G75*
G02*
X95113001Y-80761000I-249999J0D01*
G01*
G37*
G36*
G01*
X95113001Y-83686000D02*
X93862999Y-83686000D01*
G75*
G02*
X93613000Y-83436001I0J249999D01*
G01*
X93613000Y-82810999D01*
G75*
G02*
X93862999Y-82561000I249999J0D01*
G01*
X95113001Y-82561000D01*
G75*
G02*
X95363000Y-82810999I0J-249999D01*
G01*
X95363000Y-83436001D01*
G75*
G02*
X95113001Y-83686000I-249999J0D01*
G01*
G37*
%TD*%
%TO.C,R5*%
G36*
G01*
X96783999Y-71258000D02*
X98034001Y-71258000D01*
G75*
G02*
X98284000Y-71507999I0J-249999D01*
G01*
X98284000Y-72133001D01*
G75*
G02*
X98034001Y-72383000I-249999J0D01*
G01*
X96783999Y-72383000D01*
G75*
G02*
X96534000Y-72133001I0J249999D01*
G01*
X96534000Y-71507999D01*
G75*
G02*
X96783999Y-71258000I249999J0D01*
G01*
G37*
G36*
G01*
X96783999Y-68333000D02*
X98034001Y-68333000D01*
G75*
G02*
X98284000Y-68582999I0J-249999D01*
G01*
X98284000Y-69208001D01*
G75*
G02*
X98034001Y-69458000I-249999J0D01*
G01*
X96783999Y-69458000D01*
G75*
G02*
X96534000Y-69208001I0J249999D01*
G01*
X96534000Y-68582999D01*
G75*
G02*
X96783999Y-68333000I249999J0D01*
G01*
G37*
%TD*%
%TO.C,R4*%
G36*
G01*
X89290999Y-50491500D02*
X90541001Y-50491500D01*
G75*
G02*
X90791000Y-50741499I0J-249999D01*
G01*
X90791000Y-51366501D01*
G75*
G02*
X90541001Y-51616500I-249999J0D01*
G01*
X89290999Y-51616500D01*
G75*
G02*
X89041000Y-51366501I0J249999D01*
G01*
X89041000Y-50741499D01*
G75*
G02*
X89290999Y-50491500I249999J0D01*
G01*
G37*
G36*
G01*
X89290999Y-47566500D02*
X90541001Y-47566500D01*
G75*
G02*
X90791000Y-47816499I0J-249999D01*
G01*
X90791000Y-48441501D01*
G75*
G02*
X90541001Y-48691500I-249999J0D01*
G01*
X89290999Y-48691500D01*
G75*
G02*
X89041000Y-48441501I0J249999D01*
G01*
X89041000Y-47816499D01*
G75*
G02*
X89290999Y-47566500I249999J0D01*
G01*
G37*
%TD*%
%TO.C,R3*%
G36*
G01*
X85607999Y-50557000D02*
X86858001Y-50557000D01*
G75*
G02*
X87108000Y-50806999I0J-249999D01*
G01*
X87108000Y-51432001D01*
G75*
G02*
X86858001Y-51682000I-249999J0D01*
G01*
X85607999Y-51682000D01*
G75*
G02*
X85358000Y-51432001I0J249999D01*
G01*
X85358000Y-50806999D01*
G75*
G02*
X85607999Y-50557000I249999J0D01*
G01*
G37*
G36*
G01*
X85607999Y-47632000D02*
X86858001Y-47632000D01*
G75*
G02*
X87108000Y-47881999I0J-249999D01*
G01*
X87108000Y-48507001D01*
G75*
G02*
X86858001Y-48757000I-249999J0D01*
G01*
X85607999Y-48757000D01*
G75*
G02*
X85358000Y-48507001I0J249999D01*
G01*
X85358000Y-47881999D01*
G75*
G02*
X85607999Y-47632000I249999J0D01*
G01*
G37*
%TD*%
%TO.C,R2*%
G36*
G01*
X86858001Y-64505000D02*
X85607999Y-64505000D01*
G75*
G02*
X85358000Y-64255001I0J249999D01*
G01*
X85358000Y-63629999D01*
G75*
G02*
X85607999Y-63380000I249999J0D01*
G01*
X86858001Y-63380000D01*
G75*
G02*
X87108000Y-63629999I0J-249999D01*
G01*
X87108000Y-64255001D01*
G75*
G02*
X86858001Y-64505000I-249999J0D01*
G01*
G37*
G36*
G01*
X86858001Y-67430000D02*
X85607999Y-67430000D01*
G75*
G02*
X85358000Y-67180001I0J249999D01*
G01*
X85358000Y-66554999D01*
G75*
G02*
X85607999Y-66305000I249999J0D01*
G01*
X86858001Y-66305000D01*
G75*
G02*
X87108000Y-66554999I0J-249999D01*
G01*
X87108000Y-67180001D01*
G75*
G02*
X86858001Y-67430000I-249999J0D01*
G01*
G37*
%TD*%
%TO.C,R1*%
G36*
G01*
X82286001Y-70535500D02*
X81035999Y-70535500D01*
G75*
G02*
X80786000Y-70285501I0J249999D01*
G01*
X80786000Y-69660499D01*
G75*
G02*
X81035999Y-69410500I249999J0D01*
G01*
X82286001Y-69410500D01*
G75*
G02*
X82536000Y-69660499I0J-249999D01*
G01*
X82536000Y-70285501D01*
G75*
G02*
X82286001Y-70535500I-249999J0D01*
G01*
G37*
G36*
G01*
X82286001Y-73460500D02*
X81035999Y-73460500D01*
G75*
G02*
X80786000Y-73210501I0J249999D01*
G01*
X80786000Y-72585499D01*
G75*
G02*
X81035999Y-72335500I249999J0D01*
G01*
X82286001Y-72335500D01*
G75*
G02*
X82536000Y-72585499I0J-249999D01*
G01*
X82536000Y-73210501D01*
G75*
G02*
X82286001Y-73460500I-249999J0D01*
G01*
G37*
%TD*%
D21*
%TO.C,L3*%
X140081000Y-78867000D03*
D22*
X140081000Y-86487000D03*
%TD*%
D21*
%TO.C,L2*%
X141732000Y-36576000D03*
D22*
X141732000Y-28956000D03*
%TD*%
D21*
%TO.C,L1*%
X77089000Y-82169000D03*
D22*
X77089000Y-89789000D03*
%TD*%
D11*
%TO.C,J17*%
X120396000Y-25400000D03*
X125476000Y-25400000D03*
D12*
X130556000Y-25400000D03*
%TD*%
D23*
%TO.C,J16*%
X181483000Y-51816000D03*
X181483000Y-46736000D03*
X186563000Y-46736000D03*
X186563000Y-51816000D03*
D24*
X184023000Y-49276000D03*
%TD*%
D25*
%TO.C,J15*%
X179451000Y-30480000D03*
X179451000Y-33020000D03*
D26*
X179451000Y-35560000D03*
%TD*%
D25*
%TO.C,J14*%
X169164000Y-47371000D03*
D26*
X169164000Y-49911000D03*
%TD*%
D25*
%TO.C,J13*%
X167132000Y-23114000D03*
X164592000Y-23114000D03*
D26*
X162052000Y-23114000D03*
%TD*%
D25*
%TO.C,J12*%
X144272000Y-22860000D03*
X146812000Y-22860000D03*
D26*
X149352000Y-22860000D03*
%TD*%
D25*
%TO.C,J11*%
X150876000Y-37846000D03*
X148336000Y-37846000D03*
D26*
X145796000Y-37846000D03*
%TD*%
%TO.C,J10*%
X145923000Y-45847000D03*
%TD*%
D25*
%TO.C,J9*%
X156337000Y-52959000D03*
D26*
X158877000Y-52959000D03*
%TD*%
D25*
%TO.C,J8*%
X156337000Y-57404000D03*
D26*
X158877000Y-57404000D03*
%TD*%
D25*
%TO.C,J7*%
X164592000Y-96520000D03*
X164592000Y-93980000D03*
X164592000Y-91440000D03*
X164592000Y-88900000D03*
X164592000Y-86360000D03*
X164592000Y-83820000D03*
X164592000Y-81280000D03*
X164592000Y-78740000D03*
X164592000Y-76200000D03*
X164592000Y-73660000D03*
X164592000Y-71120000D03*
X164592000Y-68580000D03*
D26*
X164592000Y-66040000D03*
%TD*%
D23*
%TO.C,J6*%
X181356000Y-91948000D03*
X181356000Y-86868000D03*
X186436000Y-86868000D03*
X186436000Y-91948000D03*
D24*
X183896000Y-89408000D03*
%TD*%
D25*
%TO.C,J5*%
X179324000Y-72517000D03*
X179324000Y-75057000D03*
D26*
X179324000Y-77597000D03*
%TD*%
D11*
%TO.C,J3*%
X107823000Y-96012000D03*
X102743000Y-96012000D03*
D12*
X97663000Y-96012000D03*
%TD*%
D23*
%TO.C,J1*%
X74549000Y-55372000D03*
X74549000Y-50292000D03*
X79629000Y-50292000D03*
X79629000Y-55372000D03*
D24*
X77089000Y-52832000D03*
%TD*%
D27*
%TO.C,H2*%
X187452000Y-21844000D03*
%TD*%
%TO.C,H1*%
X71247000Y-98679000D03*
%TD*%
%TO.C,C24*%
G36*
G01*
X174874500Y-48837001D02*
X174874500Y-47936999D01*
G75*
G02*
X175124499Y-47687000I249999J0D01*
G01*
X175649501Y-47687000D01*
G75*
G02*
X175899500Y-47936999I0J-249999D01*
G01*
X175899500Y-48837001D01*
G75*
G02*
X175649501Y-49087000I-249999J0D01*
G01*
X175124499Y-49087000D01*
G75*
G02*
X174874500Y-48837001I0J249999D01*
G01*
G37*
G36*
G01*
X173049500Y-48837001D02*
X173049500Y-47936999D01*
G75*
G02*
X173299499Y-47687000I249999J0D01*
G01*
X173824501Y-47687000D01*
G75*
G02*
X174074500Y-47936999I0J-249999D01*
G01*
X174074500Y-48837001D01*
G75*
G02*
X173824501Y-49087000I-249999J0D01*
G01*
X173299499Y-49087000D01*
G75*
G02*
X173049500Y-48837001I0J249999D01*
G01*
G37*
%TD*%
%TO.C,C23*%
G36*
G01*
X156279001Y-48391500D02*
X155378999Y-48391500D01*
G75*
G02*
X155129000Y-48141501I0J249999D01*
G01*
X155129000Y-47616499D01*
G75*
G02*
X155378999Y-47366500I249999J0D01*
G01*
X156279001Y-47366500D01*
G75*
G02*
X156529000Y-47616499I0J-249999D01*
G01*
X156529000Y-48141501D01*
G75*
G02*
X156279001Y-48391500I-249999J0D01*
G01*
G37*
G36*
G01*
X156279001Y-50216500D02*
X155378999Y-50216500D01*
G75*
G02*
X155129000Y-49966501I0J249999D01*
G01*
X155129000Y-49441499D01*
G75*
G02*
X155378999Y-49191500I249999J0D01*
G01*
X156279001Y-49191500D01*
G75*
G02*
X156529000Y-49441499I0J-249999D01*
G01*
X156529000Y-49966501D01*
G75*
G02*
X156279001Y-50216500I-249999J0D01*
G01*
G37*
%TD*%
%TO.C,C22*%
G36*
G01*
X146373001Y-41533500D02*
X145472999Y-41533500D01*
G75*
G02*
X145223000Y-41283501I0J249999D01*
G01*
X145223000Y-40758499D01*
G75*
G02*
X145472999Y-40508500I249999J0D01*
G01*
X146373001Y-40508500D01*
G75*
G02*
X146623000Y-40758499I0J-249999D01*
G01*
X146623000Y-41283501D01*
G75*
G02*
X146373001Y-41533500I-249999J0D01*
G01*
G37*
G36*
G01*
X146373001Y-43358500D02*
X145472999Y-43358500D01*
G75*
G02*
X145223000Y-43108501I0J249999D01*
G01*
X145223000Y-42583499D01*
G75*
G02*
X145472999Y-42333500I249999J0D01*
G01*
X146373001Y-42333500D01*
G75*
G02*
X146623000Y-42583499I0J-249999D01*
G01*
X146623000Y-43108501D01*
G75*
G02*
X146373001Y-43358500I-249999J0D01*
G01*
G37*
%TD*%
%TO.C,C21*%
G36*
G01*
X162363999Y-49295000D02*
X163264001Y-49295000D01*
G75*
G02*
X163514000Y-49544999I0J-249999D01*
G01*
X163514000Y-50070001D01*
G75*
G02*
X163264001Y-50320000I-249999J0D01*
G01*
X162363999Y-50320000D01*
G75*
G02*
X162114000Y-50070001I0J249999D01*
G01*
X162114000Y-49544999D01*
G75*
G02*
X162363999Y-49295000I249999J0D01*
G01*
G37*
G36*
G01*
X162363999Y-47470000D02*
X163264001Y-47470000D01*
G75*
G02*
X163514000Y-47719999I0J-249999D01*
G01*
X163514000Y-48245001D01*
G75*
G02*
X163264001Y-48495000I-249999J0D01*
G01*
X162363999Y-48495000D01*
G75*
G02*
X162114000Y-48245001I0J249999D01*
G01*
X162114000Y-47719999D01*
G75*
G02*
X162363999Y-47470000I249999J0D01*
G01*
G37*
%TD*%
%TO.C,C20*%
G36*
G01*
X174898000Y-51123001D02*
X174898000Y-50222999D01*
G75*
G02*
X175147999Y-49973000I249999J0D01*
G01*
X175673001Y-49973000D01*
G75*
G02*
X175923000Y-50222999I0J-249999D01*
G01*
X175923000Y-51123001D01*
G75*
G02*
X175673001Y-51373000I-249999J0D01*
G01*
X175147999Y-51373000D01*
G75*
G02*
X174898000Y-51123001I0J249999D01*
G01*
G37*
G36*
G01*
X173073000Y-51123001D02*
X173073000Y-50222999D01*
G75*
G02*
X173322999Y-49973000I249999J0D01*
G01*
X173848001Y-49973000D01*
G75*
G02*
X174098000Y-50222999I0J-249999D01*
G01*
X174098000Y-51123001D01*
G75*
G02*
X173848001Y-51373000I-249999J0D01*
G01*
X173322999Y-51373000D01*
G75*
G02*
X173073000Y-51123001I0J249999D01*
G01*
G37*
%TD*%
%TO.C,C19*%
G36*
G01*
X155517001Y-32239000D02*
X154616999Y-32239000D01*
G75*
G02*
X154367000Y-31989001I0J249999D01*
G01*
X154367000Y-31463999D01*
G75*
G02*
X154616999Y-31214000I249999J0D01*
G01*
X155517001Y-31214000D01*
G75*
G02*
X155767000Y-31463999I0J-249999D01*
G01*
X155767000Y-31989001D01*
G75*
G02*
X155517001Y-32239000I-249999J0D01*
G01*
G37*
G36*
G01*
X155517001Y-34064000D02*
X154616999Y-34064000D01*
G75*
G02*
X154367000Y-33814001I0J249999D01*
G01*
X154367000Y-33288999D01*
G75*
G02*
X154616999Y-33039000I249999J0D01*
G01*
X155517001Y-33039000D01*
G75*
G02*
X155767000Y-33288999I0J-249999D01*
G01*
X155767000Y-33814001D01*
G75*
G02*
X155517001Y-34064000I-249999J0D01*
G01*
G37*
%TD*%
%TO.C,C18*%
G36*
G01*
X164522999Y-28316500D02*
X165423001Y-28316500D01*
G75*
G02*
X165673000Y-28566499I0J-249999D01*
G01*
X165673000Y-29091501D01*
G75*
G02*
X165423001Y-29341500I-249999J0D01*
G01*
X164522999Y-29341500D01*
G75*
G02*
X164273000Y-29091501I0J249999D01*
G01*
X164273000Y-28566499D01*
G75*
G02*
X164522999Y-28316500I249999J0D01*
G01*
G37*
G36*
G01*
X164522999Y-26491500D02*
X165423001Y-26491500D01*
G75*
G02*
X165673000Y-26741499I0J-249999D01*
G01*
X165673000Y-27266501D01*
G75*
G02*
X165423001Y-27516500I-249999J0D01*
G01*
X164522999Y-27516500D01*
G75*
G02*
X164273000Y-27266501I0J249999D01*
G01*
X164273000Y-26741499D01*
G75*
G02*
X164522999Y-26491500I249999J0D01*
G01*
G37*
%TD*%
%TO.C,C15*%
G36*
G01*
X151695999Y-87522000D02*
X152596001Y-87522000D01*
G75*
G02*
X152846000Y-87771999I0J-249999D01*
G01*
X152846000Y-88297001D01*
G75*
G02*
X152596001Y-88547000I-249999J0D01*
G01*
X151695999Y-88547000D01*
G75*
G02*
X151446000Y-88297001I0J249999D01*
G01*
X151446000Y-87771999D01*
G75*
G02*
X151695999Y-87522000I249999J0D01*
G01*
G37*
G36*
G01*
X151695999Y-85697000D02*
X152596001Y-85697000D01*
G75*
G02*
X152846000Y-85946999I0J-249999D01*
G01*
X152846000Y-86472001D01*
G75*
G02*
X152596001Y-86722000I-249999J0D01*
G01*
X151695999Y-86722000D01*
G75*
G02*
X151446000Y-86472001I0J249999D01*
G01*
X151446000Y-85946999D01*
G75*
G02*
X151695999Y-85697000I249999J0D01*
G01*
G37*
%TD*%
%TO.C,C14*%
G36*
G01*
X150945001Y-29699000D02*
X150044999Y-29699000D01*
G75*
G02*
X149795000Y-29449001I0J249999D01*
G01*
X149795000Y-28923999D01*
G75*
G02*
X150044999Y-28674000I249999J0D01*
G01*
X150945001Y-28674000D01*
G75*
G02*
X151195000Y-28923999I0J-249999D01*
G01*
X151195000Y-29449001D01*
G75*
G02*
X150945001Y-29699000I-249999J0D01*
G01*
G37*
G36*
G01*
X150945001Y-31524000D02*
X150044999Y-31524000D01*
G75*
G02*
X149795000Y-31274001I0J249999D01*
G01*
X149795000Y-30748999D01*
G75*
G02*
X150044999Y-30499000I249999J0D01*
G01*
X150945001Y-30499000D01*
G75*
G02*
X151195000Y-30748999I0J-249999D01*
G01*
X151195000Y-31274001D01*
G75*
G02*
X150945001Y-31524000I-249999J0D01*
G01*
G37*
%TD*%
%TO.C,C11*%
G36*
G01*
X110305001Y-37827000D02*
X109404999Y-37827000D01*
G75*
G02*
X109155000Y-37577001I0J249999D01*
G01*
X109155000Y-37051999D01*
G75*
G02*
X109404999Y-36802000I249999J0D01*
G01*
X110305001Y-36802000D01*
G75*
G02*
X110555000Y-37051999I0J-249999D01*
G01*
X110555000Y-37577001D01*
G75*
G02*
X110305001Y-37827000I-249999J0D01*
G01*
G37*
G36*
G01*
X110305001Y-39652000D02*
X109404999Y-39652000D01*
G75*
G02*
X109155000Y-39402001I0J249999D01*
G01*
X109155000Y-38876999D01*
G75*
G02*
X109404999Y-38627000I249999J0D01*
G01*
X110305001Y-38627000D01*
G75*
G02*
X110555000Y-38876999I0J-249999D01*
G01*
X110555000Y-39402001D01*
G75*
G02*
X110305001Y-39652000I-249999J0D01*
G01*
G37*
%TD*%
D13*
%TO.C,C10*%
X111736000Y-28321000D03*
D14*
X110236000Y-28321000D03*
%TD*%
D13*
%TO.C,C9*%
X82653000Y-89154000D03*
D14*
X81153000Y-89154000D03*
%TD*%
%TO.C,C8*%
G36*
G01*
X102546999Y-38627000D02*
X103447001Y-38627000D01*
G75*
G02*
X103697000Y-38876999I0J-249999D01*
G01*
X103697000Y-39402001D01*
G75*
G02*
X103447001Y-39652000I-249999J0D01*
G01*
X102546999Y-39652000D01*
G75*
G02*
X102297000Y-39402001I0J249999D01*
G01*
X102297000Y-38876999D01*
G75*
G02*
X102546999Y-38627000I249999J0D01*
G01*
G37*
G36*
G01*
X102546999Y-36802000D02*
X103447001Y-36802000D01*
G75*
G02*
X103697000Y-37051999I0J-249999D01*
G01*
X103697000Y-37577001D01*
G75*
G02*
X103447001Y-37827000I-249999J0D01*
G01*
X102546999Y-37827000D01*
G75*
G02*
X102297000Y-37577001I0J249999D01*
G01*
X102297000Y-37051999D01*
G75*
G02*
X102546999Y-36802000I249999J0D01*
G01*
G37*
%TD*%
%TO.C,C7*%
G36*
G01*
X99625999Y-50795500D02*
X100526001Y-50795500D01*
G75*
G02*
X100776000Y-51045499I0J-249999D01*
G01*
X100776000Y-51570501D01*
G75*
G02*
X100526001Y-51820500I-249999J0D01*
G01*
X99625999Y-51820500D01*
G75*
G02*
X99376000Y-51570501I0J249999D01*
G01*
X99376000Y-51045499D01*
G75*
G02*
X99625999Y-50795500I249999J0D01*
G01*
G37*
G36*
G01*
X99625999Y-48970500D02*
X100526001Y-48970500D01*
G75*
G02*
X100776000Y-49220499I0J-249999D01*
G01*
X100776000Y-49745501D01*
G75*
G02*
X100526001Y-49995500I-249999J0D01*
G01*
X99625999Y-49995500D01*
G75*
G02*
X99376000Y-49745501I0J249999D01*
G01*
X99376000Y-49220499D01*
G75*
G02*
X99625999Y-48970500I249999J0D01*
G01*
G37*
%TD*%
%TO.C,C6*%
G36*
G01*
X99879999Y-47032500D02*
X100780001Y-47032500D01*
G75*
G02*
X101030000Y-47282499I0J-249999D01*
G01*
X101030000Y-47807501D01*
G75*
G02*
X100780001Y-48057500I-249999J0D01*
G01*
X99879999Y-48057500D01*
G75*
G02*
X99630000Y-47807501I0J249999D01*
G01*
X99630000Y-47282499D01*
G75*
G02*
X99879999Y-47032500I249999J0D01*
G01*
G37*
G36*
G01*
X99879999Y-45207500D02*
X100780001Y-45207500D01*
G75*
G02*
X101030000Y-45457499I0J-249999D01*
G01*
X101030000Y-45982501D01*
G75*
G02*
X100780001Y-46232500I-249999J0D01*
G01*
X99879999Y-46232500D01*
G75*
G02*
X99630000Y-45982501I0J249999D01*
G01*
X99630000Y-45457499D01*
G75*
G02*
X99879999Y-45207500I249999J0D01*
G01*
G37*
%TD*%
%TO.C,C5*%
G36*
G01*
X102292999Y-33777500D02*
X103193001Y-33777500D01*
G75*
G02*
X103443000Y-34027499I0J-249999D01*
G01*
X103443000Y-34552501D01*
G75*
G02*
X103193001Y-34802500I-249999J0D01*
G01*
X102292999Y-34802500D01*
G75*
G02*
X102043000Y-34552501I0J249999D01*
G01*
X102043000Y-34027499D01*
G75*
G02*
X102292999Y-33777500I249999J0D01*
G01*
G37*
G36*
G01*
X102292999Y-31952500D02*
X103193001Y-31952500D01*
G75*
G02*
X103443000Y-32202499I0J-249999D01*
G01*
X103443000Y-32727501D01*
G75*
G02*
X103193001Y-32977500I-249999J0D01*
G01*
X102292999Y-32977500D01*
G75*
G02*
X102043000Y-32727501I0J249999D01*
G01*
X102043000Y-32202499D01*
G75*
G02*
X102292999Y-31952500I249999J0D01*
G01*
G37*
%TD*%
%TO.C,C4*%
G36*
G01*
X99879999Y-36214000D02*
X100780001Y-36214000D01*
G75*
G02*
X101030000Y-36463999I0J-249999D01*
G01*
X101030000Y-36989001D01*
G75*
G02*
X100780001Y-37239000I-249999J0D01*
G01*
X99879999Y-37239000D01*
G75*
G02*
X99630000Y-36989001I0J249999D01*
G01*
X99630000Y-36463999D01*
G75*
G02*
X99879999Y-36214000I249999J0D01*
G01*
G37*
G36*
G01*
X99879999Y-34389000D02*
X100780001Y-34389000D01*
G75*
G02*
X101030000Y-34638999I0J-249999D01*
G01*
X101030000Y-35164001D01*
G75*
G02*
X100780001Y-35414000I-249999J0D01*
G01*
X99879999Y-35414000D01*
G75*
G02*
X99630000Y-35164001I0J249999D01*
G01*
X99630000Y-34638999D01*
G75*
G02*
X99879999Y-34389000I249999J0D01*
G01*
G37*
%TD*%
%TO.C,C3*%
G36*
G01*
X106421500Y-89223001D02*
X106421500Y-88322999D01*
G75*
G02*
X106671499Y-88073000I249999J0D01*
G01*
X107196501Y-88073000D01*
G75*
G02*
X107446500Y-88322999I0J-249999D01*
G01*
X107446500Y-89223001D01*
G75*
G02*
X107196501Y-89473000I-249999J0D01*
G01*
X106671499Y-89473000D01*
G75*
G02*
X106421500Y-89223001I0J249999D01*
G01*
G37*
G36*
G01*
X104596500Y-89223001D02*
X104596500Y-88322999D01*
G75*
G02*
X104846499Y-88073000I249999J0D01*
G01*
X105371501Y-88073000D01*
G75*
G02*
X105621500Y-88322999I0J-249999D01*
G01*
X105621500Y-89223001D01*
G75*
G02*
X105371501Y-89473000I-249999J0D01*
G01*
X104846499Y-89473000D01*
G75*
G02*
X104596500Y-89223001I0J249999D01*
G01*
G37*
%TD*%
%TO.C,C2*%
G36*
G01*
X98763500Y-88195999D02*
X98763500Y-89096001D01*
G75*
G02*
X98513501Y-89346000I-249999J0D01*
G01*
X97988499Y-89346000D01*
G75*
G02*
X97738500Y-89096001I0J249999D01*
G01*
X97738500Y-88195999D01*
G75*
G02*
X97988499Y-87946000I249999J0D01*
G01*
X98513501Y-87946000D01*
G75*
G02*
X98763500Y-88195999I0J-249999D01*
G01*
G37*
G36*
G01*
X100588500Y-88195999D02*
X100588500Y-89096001D01*
G75*
G02*
X100338501Y-89346000I-249999J0D01*
G01*
X99813499Y-89346000D01*
G75*
G02*
X99563500Y-89096001I0J249999D01*
G01*
X99563500Y-88195999D01*
G75*
G02*
X99813499Y-87946000I249999J0D01*
G01*
X100338501Y-87946000D01*
G75*
G02*
X100588500Y-88195999I0J-249999D01*
G01*
G37*
%TD*%
%TO.C,C1*%
G36*
G01*
X85871000Y-73348001D02*
X85871000Y-72447999D01*
G75*
G02*
X86120999Y-72198000I249999J0D01*
G01*
X86646001Y-72198000D01*
G75*
G02*
X86896000Y-72447999I0J-249999D01*
G01*
X86896000Y-73348001D01*
G75*
G02*
X86646001Y-73598000I-249999J0D01*
G01*
X86120999Y-73598000D01*
G75*
G02*
X85871000Y-73348001I0J249999D01*
G01*
G37*
G36*
G01*
X84046000Y-73348001D02*
X84046000Y-72447999D01*
G75*
G02*
X84295999Y-72198000I249999J0D01*
G01*
X84821001Y-72198000D01*
G75*
G02*
X85071000Y-72447999I0J-249999D01*
G01*
X85071000Y-73348001D01*
G75*
G02*
X84821001Y-73598000I-249999J0D01*
G01*
X84295999Y-73598000D01*
G75*
G02*
X84046000Y-73348001I0J249999D01*
G01*
G37*
%TD*%
M02*
